<?xml version="1.0" encoding="UTF-8" standalone="no"?>
<!-- Created with Inkscape (http://www.inkscape.org/) -->

<svg
   width="324.13983mm"
   height="284.62564mm"
   viewBox="0 0 1225.0955 1075.7505"
   version="1.1"
   id="svg1"
   xml:space="preserve"
   xmlns="http://www.w3.org/2000/svg"
   xmlns:svg="http://www.w3.org/2000/svg"><defs
     id="defs1" /><g
     id="layer1"
     transform="translate(-1353.7384,-1412.1002)"><path
       style="fill:none;stroke:#1c1c1c"
       d="m 1787.7963,1414.3441 v 6 c -3.1317,3e-4 -5.9645,-0.1416 -11,0.5794 -7.2192,1.0337 -15.6791,1.1309 -23,4.7338 -8.6435,4.2539 -16.9845,11.0794 -27,13.7423 -7.1823,1.9097 -13.2219,7.1062 -20,10.6134 -5.9809,3.0947 -11.6013,6.1392 -16,8.2339 -2.9298,1.3952 -4.2298,2.4558 -7,4.4058 -2.5565,1.7995 -4.4834,3.323 -7,5.1003 -2.4441,1.7261 -4.4159,2.7306 -7,4.2091 -5.1259,2.9329 -11.5321,7.072 -15.2855,11.5664 -2.1096,2.526 -3.873,5.0785 -4.9414,7.8141 -1.7639,4.5166 -0.7854,6.1589 -0.7731,7.0015 m 139,-78 c 6.3722,10.1692 7.4767,7.9172 10,8 m -5,0 c -0.69,0.9482 -1.5758,1.7726 -2.1705,3.1605 -2.3964,5.5923 -2.9041,15.4692 -10.7578,24.125 -2.4885,2.7428 -3.8072,5.9064 -5.26,9.6959 -1.2108,3.1585 -2.389,3.4766 -4.5131,5.7284 -1.8103,1.9192 -1.9047,3.8314 -2.8781,6.2909 -0.9873,2.4949 -2.3012,3.6609 -3.4267,5.9993 -1.2467,2.5904 -1.7167,6.9474 -2.2438,9 -1.3202,5.1406 -2.2113,5.4237 -2.892,8 -0.099,0.3738 -1.0712,2.532 0.2099,4.8125 1.9146,3.4082 4.4216,2.3133 5.9329,2.2986 4.7093,-0.046 11.5477,-3.056 19.9992,-3.1103 5.8223,-0.037 8.1619,1.1646 14,-0.5494 4.1008,-1.204 6.3556,-2.6427 10,-4.1605 2.1499,-0.8954 3.647,-1.7971 6,-2.4915 2.8435,-0.8393 4.7959,-0.6529 8,-0.8882 2.8101,-0.2063 5.0372,-0.6613 8,-1.0377 6.2734,-0.7971 11.3037,0.1265 18,0.1265 v 7 m -211,-62 c -2.5915,2.9834 -5.8772,5.6479 -12.0355,11.7145 -1.9925,1.9627 -3.9633,4.0638 -5.2191,6.2855 -2.6112,4.6194 -5.7167,7.5692 -11.73,12.7407 -4.6678,4.0145 -6.9253,7.6344 -10.1088,12.1698 -1.81,2.5787 -3.716,4.1083 -5.625,6.179 -5.4136,5.8725 -8.5628,17.9422 -9.2816,21.9105 m 53,-69 3,2 m -81,19 c -0.024,2.7011 0.3738,5.7831 -3.0039,11 -2.11,3.259 -3.7062,6.8656 -3.9598,11 -0.274,4.4659 -1.2881,8.0295 -2.5579,13 -0.7634,2.9881 -1.1852,5.0945 -1.3889,8 -0.2379,3.3941 0.017,7.2033 -0.179,10 -0.4157,5.9304 -4.3767,12.1968 -1.5718,19.9985 1.404,3.9049 2.7359,5.1195 3.8858,5.8888 3.3882,2.2667 5.9877,2.5228 8.7755,3.1127 m 317,-63 c 0.04,1.2142 -2.4523,4.1199 2.3179,6.5354 3.9,1.975 15.608,0.468 19.6821,0.4631 3.5759,0 6.1931,-0.6621 10,-0.069 4.2772,0.6666 9.4748,2.7066 15,3.0354 5.1088,0.3041 7.83,0.8848 9,1.0347 v -3 m -42,-4 v 2 m -36,0 v 5 c 8.3334,-1.2251 13.9263,-0.5246 22,-5 m 3,2 v 4 m -243,-1 h 12 m 202,1 h 3 m 79,0 4,13 h 15 m -193,-2 c -6.5842,8.5867 -3.0047,10.6416 -3,13 m -180,-10 9,-1 m 189,0 5,10 m 157,-9 c -2.1273,6.1585 -7.3933,9.6477 -13.9105,13.4738 -2.508,1.4724 -4.1657,3.2244 -7.1289,4.7701 -4.3299,2.2586 -5.6598,2.9734 -9.9606,6.1265 -5.7103,4.1865 -13.9077,8.0697 -20,10.622 -6.9449,2.9094 -15.0076,9.3291 -20.9815,14.2183 -3.0303,2.4801 -5.7817,5.5177 -6.0239,9.7901 -0.1888,3.3307 1.5108,9.1513 2.7438,10.9406 2.9861,4.3335 6.8166,5.0546 17.2616,5.0586 4.9467,0 10.8983,-0.094 16,0.5757 3.1971,0.4198 5.0528,0.3299 8,0.4637 4.5434,0.2063 15.2485,1.9509 20,1.9606 4.9633,0.01 6.4418,-0.099 11,1.5757 2.7753,1.0194 4.3004,1.2738 7,1.4236 2.7565,0.1529 4.4488,0.325 7,0.8048 3.894,0.7323 11.663,2.3391 14,2.9267 1.2859,0.3233 3.339,0.8405 6,1.2692 5.4557,0.8792 5.3148,0.7823 11,3.1482 5.3622,2.2314 7.3937,3.4141 11,4.2369 4.2147,0.9615 5.5905,0.9542 9,3.0709 3.951,2.4529 5.2964,2.1843 9.6605,6.1119 6.9548,6.2592 6.235,11.1333 6.3395,14.4321 h 12 m -286,-113 15,-3 m 513,2 c 0,3.0466 -2.4648,5.9869 1.0278,10.3967 1.2737,1.6081 12.8719,1.4306 17.9722,-1.3967 -4.6435,-5.0177 -4.6381,-6.6433 -5,-9 m -19,1 c 2e-4,2.2215 -0.3063,4.1932 0.1466,6.943 0.1596,0.9687 -0.8248,2.5044 3.8534,4.057 m 39,-10 c 0.044,1.3309 -1.6011,3.4671 1.6034,5.9738 1.9753,1.5452 6.4655,0.9148 9.3966,1.1157 5.8957,0.4041 11.6566,1.5235 13.6574,-2.4799 l 0.3426,-1.6095 m -44,4 h 18 m 25,0 c 2.0562,1.1397 4.0151,2.052 7.0015,2.5578 9.3311,1.5806 20.1675,0.6485 26.9985,2.7709 3.8486,1.1958 6.194,2.9868 10,3.6527 6.9523,1.2164 11.9299,1.2047 18,3.9337 6.1986,2.7868 9.4998,5.2903 17,6.8495 7.1771,1.4921 7.6564,3.1491 15,6.9144 5.1566,2.6439 8.8572,4.9958 12.9961,7.0864 5.9022,2.9813 5.6492,4.4432 12.0078,8.1443 8.2316,4.7913 9.1068,4.9628 15.993,9.51 3.9964,2.6389 5.1811,4.3343 8.1335,7.1659 3.4518,3.3106 4.849,4.1917 8.8842,6.6737 3.7857,2.3283 5.0278,3.7238 7.9461,6.7445 4.8708,5.0416 4.7768,7.1865 8.8772,12.7871 2.6001,3.5514 4.5624,4.435 7.3319,8.1311 5.047,6.7357 12.4087,11.6109 14.6104,19.078 1.0701,3.6297 1.7392,5.0581 4.2384,7.5756 2.2282,2.2448 3.9737,3.7357 5.128,6.4282 1.6552,3.8609 2.1122,6.4253 4.6336,9.9962 2.8688,4.0631 2.8532,8.4507 3.6634,12.9961 0.4873,2.7336 1.1075,4.231 2.7625,6.4283 2.4576,3.2631 3.2526,3.6115 4.2646,7.5756 1.069,4.1873 0.4851,6.6642 1.9336,12 1.3197,4.8614 3.1694,5.5586 4.4877,10 0.6928,2.3342 0.8701,5.4261 1.2223,8 0.9068,6.6273 2.2545,12.2722 2.993,19 0.4359,3.9705 2.0663,5.623 3.1844,10 1.2687,4.9663 0.7071,12.2417 0.7083,16 0,4.757 0.09,5.1837 0.1389,9 0.039,3.0411 -0.052,6.1708 -0.7391,8 -2.7656,7.3597 -4.7034,6.298 -7.3998,9 -2.9097,2.9156 -7.7787,7.7786 -11,11 l -10,10 c 12.7216,3.7604 14.8839,-0.6588 21,2.3178 9.0864,4.4224 16.9414,20.8486 28,21.6822 m -522,-173 c 1.8027,1.8015 3.5096,3.5708 6.0046,5.9112 0.594,0.5572 1.687,1.5578 3.9954,3.3434 2.1226,1.6419 3.5735,2.7135 4,3.0702 1.7876,1.4952 2.8932,2.6119 4,3.6898 4.7431,4.6194 9.4751,3.9392 12.3025,13.9854 0.587,2.0856 -0.9937,6.3305 -3.436,8.8256 -2.3803,2.4317 -3.9436,3.6694 -7.8665,5.3889 -2.3642,1.0363 -4.6241,1.5081 -6.9954,2.581 -4.0305,1.8237 -4.9301,3.2729 -6.0046,4.2045 -3.746,-3.746 -9.6734,-8.9846 -12.6821,-13 -2.7481,-3.6676 -4.8231,-7.8821 -0.067,-24 1.9253,-6.525 0.8524,-8.1227 4.8835,-12.5756 2.4659,-2.724 3.3806,-3.4977 4.6303,-7.4252 1.4856,-4.6686 2.7381,-5.6974 5.5625,-9.9992 1.6969,-2.5845 3.7225,-7.4962 5.3418,-10 1.6325,-2.5242 2.9548,-4.3711 4.6174,-6.9815 3.7287,-5.8549 8.0042,-10.4217 12.0185,-14.9792 5.8207,-6.6082 15.4898,-17.4219 22.6944,-21.625 7.626,-4.4489 9.105,-6.3298 14.9113,-11.1597 3.3097,-2.7532 4.0641,-4.1655 7.1289,-7.2369 2.5261,-2.5315 4.6789,-4.3746 7.9606,-5.8889 5.2603,-2.4272 7.1474,-3.5694 11,-7.0401 2.7459,-2.4736 4.8636,-4.0876 8,-6.1497 7.6948,-5.059 12.733,-7.5153 24,-10.1937 2.2346,-0.5311 10.2123,-1.6272 12,-2.2901 2.8076,-1.0411 3.6182,-2.2441 7,-3.4275 4.2365,-1.4824 7.906,-0.9143 12,-1.4521 4.1021,-0.5389 11.6697,-1.1919 15,-3.3395 3.2634,-2.1044 5.1719,-3.9712 7,-4.6335 6.0273,-2.1836 15.2047,-0.6026 25,-0.6026 m -747,9 1,5 8,-6 m 19,0 h 2 m -29,6 c 0.4762,6.0333 1.1714,13.448 0.2361,17 -0.3435,1.3046 -1.5288,4.6474 -2.8032,7 -1.8385,3.3937 -2.885,4.431 -3.2446,5 -1.9426,3.073 -2.1026,5.3601 -2.1883,8 m -18,-31 c 0,1.9193 -1.7154,4.1015 1.0278,8.8665 2.7,4.6901 8.2287,4.5536 10.9722,5.6042 1.7652,0.6759 4.5561,2.0385 11,3.5293 m 38,-18 v 2 m -38,19 7,10 m -8,-8 v 8 m 336,-6 h 9 m -390,19 4.6003,1.429 6.4036,4.2847 6.9961,3.9028 9,2.4684 12,2.4505 4.9807,0.8465 3.99,-2.3341 1.0293,-3.0478 m -3,7 c 0.6975,1.2568 1.2918,1.9967 1.9128,4.0447 0.3691,1.2171 0.7357,2.5578 1.0826,3.9553 3.0947,12.4689 0.2898,15.5016 4.9652,26 2.5108,5.6378 3.238,12.578 3.0888,18 -0.085,3.0816 -0.377,6.6999 -0.076,10 0.3054,3.3449 0.9887,7.1358 1.0262,11 0.058,5.9992 0.4229,7.2626 2,11 -4.1823,2.597 -7.0053,3.3584 -15,5.4784 -2.1918,0.5811 -5.1512,1.8558 -9,3.1103 -5.1905,1.6918 -13.0935,7.0396 -16.6744,10.7122 -2.668,2.7363 -3.7293,4.452 -5.3873,8.6991 -1.8814,4.8191 -2.5089,4.7821 -4.1744,10 -1.0061,3.1521 -0.7581,5.1095 -0.7639,8 -0.01,2.6064 -0.063,4.6649 0.039,7 0.1505,3.438 0.7685,8.4417 1.2492,12 0.5483,4.0586 1.3549,7.5588 2.6898,11 1.3124,3.383 2.9119,5.1346 4.7006,8 2.0432,3.2732 3.1457,5.8393 4.9398,9 1.0127,1.7839 1.8922,3.2242 3.3442,4.9452 2.4474,2.9008 3.5042,3.6615 7.0517,4.8402 3.242,1.0773 4.8635,1.7534 6.9853,2.8349 3.6661,1.8687 8.1399,1.9007 11.9599,2.5278 2.3667,0.3886 3.3819,2.5413 6.7893,5.1636 3.226,2.4828 7.3394,0.6604 9.2508,0.8063 4.4218,0.3375 11.2727,1.007 16,-0.4668 5.5821,-1.7403 7.4265,-2.7934 10,-3.6512 m 829,-183 c -0.5085,6.3611 -3.382,9.083 -6,11 m -57,-8 c 0.03,1.2536 -0.1495,2.3987 0.2284,4.0439 1.9005,8.2745 10.7387,15.1704 19.733,25.9707 4.6199,5.5476 6.1897,10.3039 12.0432,15.3102 4.0579,3.4705 8.8767,10.7265 13.0888,12.8758 7.55,3.8526 8.668,4.9086 10.9066,6.5 5.1908,3.6902 14.4276,2.0104 19,5.2994 -4.0883,4.0882 -7.9089,7.844 -11.9954,12 -1.1922,1.2125 -1.9209,1.2337 -5.9961,7 -1.233,1.7447 -2.4512,3.6006 -2.6489,4 -0.9649,1.9494 -2.3089,5.2412 1.7685,9.7145 4.0913,4.4884 4.5947,5.8272 5.4514,11.2855 0.6678,4.255 0.8518,5.3551 3.4251,9 3.8023,5.3854 4.9539,8.6747 4.9947,15 0.025,3.9299 -0.057,10.6741 0.01,13.9992 0.019,1.0101 0.013,4.1087 1.0215,5.3974 2.5772,3.2946 4.7019,1.5616 5.9739,1.6034 m -20,-159 h 4 m 3,5 c 3.6039,1.0423 4.9963,3.1259 7.0162,5.7453 1.8059,2.342 3.5401,3.4056 5.8951,6.2933 2.5542,3.1318 6.8306,6.4477 8.0833,9.0656 1.4165,2.96 -2.8182,7.428 -4.2862,9.1813 -1.2925,1.5436 -1.8386,2.3578 -2.1591,2.7538 -1.7477,2.16 -3.4214,3.5588 -4.503,5.9607 -2.458,5.4583 5.2282,10.5563 8.6405,15 2.8907,3.7645 3.4084,6.3948 5.3132,9 -6.6439,3.5456 -10.0958,2 -13,2 m -388,-63 c -1.5562,1.1862 -2.8602,2.3476 -5.0247,3.1311 -6.5427,2.3686 -23.0452,1.1036 -30.9753,2.159 -2.2676,0.3019 -4.4373,0.9025 -7,1.4491 -5.7585,1.2282 -6.0952,1.1745 -11,1.99 -4.8652,0.8089 -6.5601,1.953 -11,2.7801 -2.8856,0.5375 -5.5428,0.481 -8,0.4899 -7.9101,0.028 -14.0709,-1.0712 -18.8565,0.3186 -2.3162,0.6727 -7.1351,6.9855 -8.3087,10.6822 -1.4793,4.66 1.0123,5.9463 1.9137,8 2.4168,5.5064 2.2947,9.1676 2.2515,12 m 437,-43 c 3.9991,0.1297 7.7266,2.9859 18,10.7098 8.7596,6.5859 19.0657,16.8435 24.5509,24.169 0.9755,1.3028 1.8434,2.3653 2.4491,3.1212 m 26,-37 c 3.5802,-0.6865 6.0461,-0.3333 11.2839,5.9151 2.929,3.4941 6.3072,7.2796 8.9005,9.9954 7.2334,7.5747 10.7431,8.0477 17.6821,15.2592 4.0452,4.2042 6.8739,14.1713 7.7446,17.8303 1.1759,4.9419 2.1579,6.5317 3.375,10 0.094,0.2689 1.1562,2.6317 1.5178,4.9992 0.2935,1.9214 0.094,2.6029 -0.049,2.946 -0.5685,1.3607 -0.1692,2.4685 -4.463,4.1613 -1.9955,0.7867 -7.2284,0.8913 -9.9915,0.8935 -4.2804,0 -6.9197,-0.1079 -10,0.8387 -3.1454,0.9666 -4.1379,1.6602 -4.9954,2.0309 -2.6775,1.1576 -4.2707,2.049 -6.0046,3.1304 2.8616,5.2354 3.5056,6.2219 4.1257,8 1.0356,2.969 1.1596,6.3777 2.0448,9 0.4711,1.3954 0.9805,1.9906 1.99,6 0.27,1.0722 4.2185,15.2372 4.8256,18 0.759,3.4543 1.4364,8.408 2.4885,10.8302 1.3591,3.1293 2.351,3.2227 4.1859,6.2091 1.4153,2.3036 2.1613,6.4382 3.2183,8.9452 1.6669,3.9535 3.5928,4.7309 6.1258,5.9214 2.951,1.3867 8.0411,3.785 9.9954,5.3534 6.7218,5.394 8.6626,5.9924 12.8518,10.7592 0.5713,0.65 1.4244,1.1855 2.6035,3.9668 0.7608,1.7946 1.2305,3.3703 2.1435,4.5903 2.3148,3.0932 3.9268,3.9901 5.4019,5.439 3.1248,3.0694 5.4235,6.2981 8.9993,8.4576 0.2441,0.1474 2.3577,1.3793 5,0.7098 3.5823,-0.9075 4.3575,-1.9235 5,-2.3147 3.6249,-2.2073 6.3397,-5.2161 9,-7.8673 m -389,-179 1,17 8,-3.4854 11,-1.5146 m -213,-9 v 6 m 313,-5 c 0.9755,7.2934 11.1007,19.7056 19.0934,27.9599 2.5911,2.6759 6.1225,5.258 8.9066,6.8912 3.2001,1.8771 4.5298,2.4387 6,2.946 4.7097,1.625 8.7337,0.27 12,0.2029 v -14 m -338,-22 v 3 m -362,-1 c 0.01,1.8489 -0.1791,3.6097 0.3179,5.8565 0.1116,0.5046 -0.043,1.5873 2,2.5254 3.0292,1.3907 10.4146,-1.3374 11.6821,-1.6929 2.725,-0.7643 5.1645,-0.8067 10,-0.7137 3.3253,0.064 8.1021,0.062 10.9954,0.4491 3.6924,0.4942 4.6708,0.5183 6.0046,0.5756 m -22,-6 v 4 m 779,-1 -4.0448,3.875 -2.9568,2.5509 -2.9737,2.6389 -5.0247,4.9352 m -203,-12 c -1.8313,4.5418 -2.9324,7.655 -1.5741,18 0.3835,2.9205 0.5173,6.2661 1.6065,8.8711 2.4627,5.8901 6.84,5.5928 8.9676,6.1289 m -600,-31 8,2 -1,7 m 4,-9 -2,2 m 3,-1 v 7 m 534,-7 c -2.1202,1.3166 -3.4826,2.316 -9,3.9637 -1.8627,0.5563 -4.0087,0.8976 -5.9992,1.5687 -2.3685,0.7985 -3.7143,1.6695 -5.7153,3.5864 -4.1649,3.9899 -5.7383,5.2237 -8.1775,8.9205 -1.8543,2.8105 -3.5829,7.0617 -6.2407,9.8704 -6.4423,6.8081 -16.2181,10.0618 -18.8673,12.0903 m 53,-39 c 4.4675,4.6168 6.8963,6.687 6.9807,16 0.027,2.9679 -0.8168,6.9305 -1.8179,10 -2.5172,7.7184 -3.0281,10.263 -3.1628,13 m 270,-36 c 2.7012,2.379 4.6273,5.635 5.1257,8.0038 2.7779,13.2011 0.6933,14.1763 -7.1257,21.9962 m -509,-29 h 8 m -386,3 h 6 m 701,3 c 3.2321,5.2187 7.5857,7.7155 12.2801,13.2593 1.7559,2.0736 3.0039,4.7084 5.8943,7.4151 3.105,2.9076 4.0665,3.4293 7.8256,5.1412 5.3601,2.441 7.2015,3.735 13.3287,5.0409 l 1.6713,0.1435 m -43,-28 h 1 m -312,5 c 4.8477,1.4906 16.3498,2.7621 26,3.0146 3.3481,0.088 6.1819,-0.2025 10.2902,3.2956 2.2867,1.9471 3.2219,2.9451 5.7276,3.466 4.202,0.8737 5.8905,1.3004 9.1519,4.0934 1.8376,1.5737 4.0981,3.3107 7.8303,4.2863 6.1587,1.6098 5.98,1.0324 13,4.7098 2.3123,1.2112 3.6064,1.8931 6,2.6929 3.0858,1.031 5.0973,1.3827 8,3.1906 2.2368,1.3931 4.8056,3.2471 8,4.946 8.0782,4.2962 15.04,6.4853 18,7.8148 7.514,3.3749 10.9236,9.4031 16,14.49 2.6782,2.6837 8.556,4.2873 7.365,13 -0.772,5.6469 -2.285,7.4723 -3.0394,12 -0.393,2.3595 -0.1423,5.8469 -0.4737,8 -0.8319,5.4038 -2.8073,5.815 -4.0132,8 -0.6445,1.1679 -1.4332,2.4316 -1.7446,6 -0.2739,3.1394 -0.1594,17.8532 -1.2785,21 -1.551,4.3607 -2.813,9.1607 -2.9313,14 -0.2611,10.6816 0.1157,9.0832 0.1157,23 0,2.9157 1.6111,17.2743 2.2546,20 0.889,3.7651 3.4467,14.1142 2.6867,19 -0.6283,4.0397 -2.5146,4.4872 -3.9614,5.9992 -3.9713,4.1502 -8.6343,6.9376 -13.9799,7.0008 m -510,-212 h 5 m 97,5 c 2.3472,4.0178 4.7355,3.9366 9,3.9961 3.1366,0.044 7.496,0 9.9985,0 h 7.0015 m 495,-4 h 6 m 161,0 c 3.5022,2.837 6.7362,4.0381 9.892,7.1327 2.7992,2.7451 3.774,6.156 5.3819,8.6783 3.2909,5.1621 8.8787,5.4068 15.7261,6.8642 2.001,0.4259 4.9272,0.7308 7,1.588 3.0115,1.2453 4.728,2.8082 9,3.9729 5.6219,1.5327 7.699,2.6349 12,1.8504 2.4244,-0.4423 4.1034,-1.9747 6,-3.5309 3.7898,-3.1096 4.8462,-4.4195 5.9753,-5.5347 1.9665,-1.9424 3.4196,-3.4158 5.0247,-5.0209 m -770,-13 h 5 m 575,2 v 2 m -55,-1 h 6 m -6,4 h 5 m 179,7 c -2.1945,2.1928 -4.0565,4.7294 -8,7.4862 -1.3338,0.9324 -3.3033,1.1515 -9,3.013 -6.3797,2.0848 -12.766,9.665 -16.8519,14.5008 -2.737,3.2395 -4.1866,10.2057 -5.8186,14 -1.8663,4.339 -2.0612,5.2557 -2.75,10 -0.9749,6.7144 -0.3139,10.5468 -0.4946,15.3288 l -0.085,1.6712 m 135,-65 c 3.6735,5.3611 3.0858,5.618 7.2902,9.6952 2.9553,2.8659 6.1773,4.067 9.7098,5.0317 2.9005,0.7921 5.4642,1.4077 8,2.2731 m -282,44 0.057,-1.6712 c 0.5188,-4.2622 0.605,-6.6892 3.8619,-12.0432 2.0324,-3.3411 4.0096,-5.9849 6.1312,-10.2856 2.4676,-5.0019 5.463,-9.7096 9.1596,-13.9992 1.9486,-2.2611 3.3914,-3.6302 5.7756,-5.5448 4.8377,-3.8849 10.7829,-7.162 16.0146,-9.7685 6.4942,-3.2354 4.4451,-5.5222 13,-5.6828 8.2004,-0.154 14.9735,-0.7882 22.9105,2.1419 3.5807,1.3219 6.012,3.6713 9.0039,5.7184 2.7345,1.8711 3.8533,2.957 6.821,6.3048 3.8555,4.3494 3.9934,6.1387 7.2993,10.2546 4.7951,5.97 3.9607,10.2142 2.9653,15.5756 m -733,-39 17.9985,15.3156 7.0015,2.6844 m 926,-13 c 8.1371,2.7079 10.8655,3.1302 13.1968,8.0193 2.1997,4.6131 4.1633,10.5119 7.128,15.9807 3.3573,6.1931 3.9286,5.5594 5.8002,11 1.0205,2.9665 0.8689,5.3173 0.875,9 0,2.6427 -0.1392,6.1383 0.3248,9 0.7317,4.5121 1.2077,5.1133 1.9066,8 1.7749,7.3301 3.122,16.6238 1.71,21 -1.7476,5.4162 -3.7289,6.7876 -14.9414,18 m -126,-94 c 0.822,1.4304 1.2537,6.267 9,11 m -314,-5 -2.5332,5.0247 -2.2168,2.9753 -2.4105,3.9985 -2.8395,7.0015 m -28,-8 h 18 m -134,10 c 3.2589,1.5572 9.5048,3.8617 24.2855,10.1343 4.4404,1.8844 9.3874,3.0374 13.7145,5.3704 4.7219,2.5458 6.8834,2.6521 12,5.9491 6.6103,4.2594 9.7923,6.2578 15,10.0115 4.2336,3.0516 8.2126,6.6407 12.4244,10.3295 2.2019,1.9284 3.0764,2.4708 5.0031,4.4143 2.2743,2.2943 4.0384,4.1741 6.091,6.7909 3.486,4.4446 5.7007,8.5022 11.4815,12.3349 7.1087,4.7132 8.9993,4.7427 11,6.0849 5.7012,3.8246 7.5393,4.9691 19,3.5802 m 242,-55 5,2 m -135,3 c -0.028,0.9133 0.1174,2.1669 -0.5779,7.0016 -0.7756,5.3925 -6.1488,12.3004 -7.1937,17.9984 -1.1749,6.4065 -1.2031,15.8221 -1.3441,22 -0.1076,4.7101 0.1366,7.1703 0.1149,12 -0.014,3.1706 -0.4703,11.4135 -0.125,14 0.5234,3.9215 0.7907,5.1883 3.1258,9 l 8,-4 m -2,-71 h 3 m 406,8 h 18 m -181,9 c 0.01,2.8283 0.1553,6.0547 0.8981,8 0.8111,2.1245 3.4935,4.3537 3.6944,9 0.2497,5.7749 -3.1279,6.8128 -4.753,12 -1.0559,3.3702 -0.7472,6.1308 -0.8788,9 -0.1779,3.8807 -1.9885,9.5579 -4.3851,13 -3.5749,5.1346 -2.639,8.6194 -6.3442,13.9607 -4.6163,6.6546 -13.6738,16.1945 -21.2321,19.0069 -3.5606,1.3249 -10.1931,3.0844 -12.9993,5.2971 -1.9995,1.5766 -3.461,2.9079 -6,4.5625 -2.9089,1.8957 -5.1685,3.4944 -8,4.8773 -6.9391,3.3892 -13.2106,0.6987 -17.6821,2.8989 -3.1409,1.5456 -1.8216,3.984 -2.6204,7.3966 -0.4864,2.078 -1.0981,3.2853 -2.4213,4.8519 -3.1934,3.7812 -6.58,3.3729 -10.2762,2.3835 -6.436,-1.723 -7.9308,-4.2114 -12,-8.2354 3.9963,-4.9693 6.2003,-6.8151 10.0008,-6.9807 0.8241,-0.036 2.2209,-0.097 5.9992,0 2.4405,0.06 6.8858,0.7182 9,0.9854 m -88,-96 c 0.2167,2.3907 0.5136,4.8324 2.2546,7.9853 0.2784,0.5041 0.9399,2.2675 3.2052,4.4575 3.4413,3.3268 11.4647,3.8186 11.4823,11.5618 0.016,7.1087 -2.6366,10.2929 -4.9753,11.6968 -2.3924,1.4362 -5.5852,1.7436 -6.9668,6.2986 m 61,-40 c 0.3311,0.5726 0.5214,1.6423 1.6104,2.4576 2.9802,2.2309 5.2061,1.8728 8.2423,4.2445 4.2099,3.2888 4.281,6.6532 8.1473,7.2979 m -3,0 c -6.6216,10.7954 -3.4827,13.3191 -11.9992,12.9568 -4.3093,-0.1834 -8.9711,-8.2179 -8.8712,-12.9568 0.078,-3.6865 0.8819,-8.6718 4.8704,-11 m -61,7 c -1.7156,2.2928 -4.2683,5.7469 -4.8712,11 -0.2345,2.0433 0.081,6.6067 -1.1566,8.8294 -1.7037,3.0598 -3.0827,3.3981 -3.99,4.0224 -2.4437,1.6817 -4.4984,1.9626 -6.9822,2.1482 m 181,-24 2,4 m -260,1 h 2 m -594,1 4,5 m 418,-5 c 0.1172,1.4844 0.365,2.1427 0.8303,7.0015 0.2679,2.7979 0.1071,7.8521 0.1843,10.9985 0.1083,4.4082 2.6366,7.2854 0.092,14 -3.3377,8.807 -5.4497,20.3907 -7.2353,30 -0.6309,3.3949 -2.1485,4.7999 -3.5726,8 -1.1037,2.48 -1.0278,4.2226 -1.6234,7 -1.4851,6.9251 -5.4552,14.4524 -8.2339,21 -1.5424,3.6344 -4.04,5.7098 -6.1983,9 -2.4376,3.716 -4.9041,6.7983 -8.0347,9.7098 -2.9464,2.7403 -3.6769,5.2882 -6.341,8.2863 -3.0389,3.4201 -5.3971,4.9507 -8.8673,7.1737 -3.8206,2.4475 -6.7399,5.6384 -11,8.4467 -2.6276,1.7322 -6.3946,3.8568 -8.9992,5.1783 -4.0422,2.0508 -5.0944,1.7958 -6.3828,5.26 -0.6443,1.7324 0.5898,8.8999 1.382,11.9452 1.5412,5.9241 2.8113,8.211 3.6697,14 0.6217,4.1928 -1.7542,7.9294 -2.7955,11 -0.9343,2.755 -0.7581,5.942 -1.4899,10 -0.6417,3.5581 -2.7857,10.6877 -3.3889,12.9992 -0.4792,1.836 -0.5355,3.8855 -3.2732,6.4329 -2.8316,2.6348 -5.1985,3.4293 -5.6944,4.1118 -1.5438,2.1244 -0.9713,3.7357 -1.0278,5.4561 m -353,-226 c 0,1.3969 -0.1532,2.5746 0.015,9 0.083,3.1642 2.0601,11.2888 2.9814,15 2.0697,8.3366 1.3526,21.8056 4.0039,30 1.3044,4.0315 1.9471,7.0268 1.9961,11 0.046,3.7461 -0.1186,7.2025 1.0039,11 l 9,-1 m -8,-75 v 6 m 759,3 c 0.3444,5.4793 -0.4288,6.8791 -1,9 m -51,-7 h 3 m -21,3 6,3 m 279,-3 c -0.3905,2.0136 -0.8898,3.7448 -1.561,8 -0.3898,2.4708 -0.5105,6.0355 -0.9922,8 -1.0545,4.3006 -2.0633,4.3971 -2.3927,9 -0.1702,2.3771 -0.2281,6.4519 -0.9298,9 -1.0072,3.6573 -1.6328,4.9331 -2.375,8 -0.7752,3.203 -1.0909,7.0063 -2.3527,9 -4.4946,7.1014 -10.2943,10.8995 -14.3966,15 -4.2218,4.2199 -8.5935,9.579 -13,8.3379 -6.7618,-1.9044 -12.7828,-13.0713 -21,-13.3379 m -72,-48 6,2 m -243,2 c 0.3375,4.2401 1.3091,9.1634 2.9452,13 2.2723,5.3285 2.1968,9.4627 6.2292,14.9606 2.8157,3.839 5.626,6.2563 9.25,9.7392 2.6393,2.5366 4.3673,3.4626 7.5756,5.4553 2.8354,1.761 11.7535,5.8194 14,6.5763 2.3492,0.7916 6.1017,1.5553 7.9722,4.5463 1.5199,2.4303 1.0072,5.3107 1.0286,7.7223 0.092,10.4137 3.2173,14.2791 10.4236,24.0578 2.2586,3.0649 3.0019,4.1852 5.5262,6.9229 2.4558,2.6633 3.7567,4.0742 7.0888,5.1968 4.5876,1.5455 8.8815,2.6061 14.9606,3.8225 8.2701,1.6548 13.6056,6.7931 21,6.0895 7.5078,-0.7145 10.7913,-4.1959 16.9992,-6.8495 4.1105,-1.7572 6.2106,-3.3828 8.6212,-7.2547 4.9088,-7.8846 8.7846,-17.0494 12.3796,-22.9853 l 8,3 m -21,-59 c -0.2162,2.5805 -0.3494,4.664 4.0201,8.946 2.3313,2.2846 5.6717,4.3569 7.4259,6.3133 5.2078,5.8079 4.2545,7.6419 6.554,12.7407 m 161,-24 h 49 m -302,30 h -6 c 0.042,-5.1281 -0.6043,-8.0727 3.2886,-12.5756 7.8584,-9.0898 17.8366,-9.4244 22.7114,-9.4244 m -179,3 c 2.2544,4.0016 5.137,9.4964 6.2979,13 1.0076,3.0412 0.6899,4.7248 0.7021,8 0.011,2.9073 -0.2091,5.3673 0.9877,7.7145 2.0022,3.9268 4.1197,10.1784 7.1905,16.2855 2.5467,5.0646 3.8414,4.0887 5.7956,8 1.0811,2.1639 0.9153,6.472 2.5941,9.9606 1.2744,2.6483 2.5252,3.6526 4.2769,6.1945 1.4607,2.1194 3.7511,4.9665 5.5904,6.7292 2.4914,2.3877 3.5584,3.4193 6.105,7.1002 3.1433,4.5436 7.4024,5.2486 10.405,7.5873 6.8483,5.3339 1.0531,4.3295 6.5641,14.4282 3.6215,6.6363 2.9734,7.1145 5.8039,11.7754 1.732,2.852 3.7804,3.394 7.6868,4.0587 2.9765,0.5065 4.5269,0.7353 7,2.4398 3.4463,2.3752 4.8222,3.263 7.8303,5.5255 2.5315,1.904 4.9163,4.8071 7.1843,6.7615 3.7088,3.1959 8.375,5.8271 11.7254,9.5325 4.9589,5.4842 4.8757,9.5492 10.4336,12.5887 3.1347,1.7144 5.7256,1.3955 7.8264,1.7531 2.906,0.4946 7.7817,2.1113 11,4.5648 -1.5306,1.5476 -3.0359,3.0204 -4.7654,5.0208 -0.38,0.4395 -1.083,1.5655 -2.9444,3.8094 -2.4754,2.984 -5.0046,4.9843 -5.2948,5.2593 -4.3719,4.1417 -7.423,7.338 -10.9954,10.9105 l 0.035,-12 1.7801,-7 0.1844,-12 m -361,-154 v 1 m 709,0 c 0.4435,3.5584 1.0065,4.836 1.8889,7.0015 0.1654,0.4058 0.7326,1.8752 1.892,3.9985 2.8746,5.2646 3.4195,6.4874 3.4505,9 0.051,4.1697 -1.1221,10.9145 -2.0701,14 -1.4275,4.6461 -2.0939,6.5268 -3.6706,10 -2.0232,4.4569 -7.0489,6.5345 -12.9768,15 -1.3772,1.9667 -2.0665,7.0411 -4.1134,9.5448 -3.1166,3.8121 -5.5133,4.4917 -8.6551,8.4513 -1.9705,2.4834 -5.6973,4.8178 -8.1829,6.973 -3.8965,3.3784 -6.0757,10.6241 -10.652,14.8974 -2.7391,2.5577 -4.8109,2.4407 -8.7816,5.0671 -4.9034,3.2434 -7.7998,8.0978 -9.8041,11.2354 -1.0072,1.5767 -1.6056,4.0111 -4.5139,5.8426 -3.0935,1.9481 -7.1861,1.9425 -9.8109,3.537 -3.8989,2.3686 -7.9224,6.5284 -12.0895,9.1805 -2.7644,1.7594 -4.8689,3.5289 -7.9105,5.8156 -4.8196,3.6234 -6.3616,3.9306 -11,7.2585 -2.3552,1.6898 -4.5638,3.2053 -6.9993,4.5818 -2.9638,1.6753 -4.4146,2.6078 -7.4251,5.6042 -3.1971,3.182 -5.3097,4.1429 -9.5756,5.6258 -8.526,2.9638 -17.668,6.3916 -23,7.385 v -8 m -561,-153 c -0.2305,1.2893 -1.2328,13.2711 -1.4367,15 -0.2979,2.5248 -0.553,4.2234 -0.5162,7 0.1344,10.1472 -0.4735,16.7638 10.9529,22 l -3,7 m -257,-50 c 0,8.4664 -0.1425,12.1978 0.05,20 0.1863,7.5424 -0.05,10.477 -0.05,17 2e-4,2.6917 0.043,8.1231 1.0262,9.9413 2.3711,4.3838 4.4017,3.6121 5.9738,4.0587 m 734,-51 13,5 m -503,-3 h 3 m 406,2 -4,4 m -238,-3 9,8 m 327,-6 c -0.3722,4.7154 -1,7.0113 -1,19 m 182,-13 -17,16 m -671,-15 h 2 m 48,15 c 0.023,0.8036 -1.4312,3.03 2,6 m -56,-5 h 5 m 12,13 c 0.9899,0.1838 1.9187,0.4032 3.1605,0.581 0.8303,0.1189 1.5889,0.261 2.8441,0.3295 7.9412,0.4331 11.2283,0.6105 16.571,-2.8858 2.2607,-1.4794 9.9856,-4.2291 13.4244,-5.0247 m 672,0 c 5.6034,5.6033 11.8566,10.3127 13.3566,15 1.1339,3.5434 -1.0801,8.6631 -3.4152,19 -1.0229,4.5284 -6.3966,9.2436 -10.98,14.0038 -2.8149,2.9235 -4.5284,4.8095 -7.3858,7.9777 -7.0614,7.8296 -9.55,5.4259 -18.5354,14.1119 -6.0122,5.8117 -6.3352,9.5023 -9.2948,12.2229 -0.3735,0.3433 -2.6313,1.5413 -3.7184,3.1783 -1.8203,2.7409 -0.9707,3.6815 -1.0077,4.5054 -0.1021,2.272 -0.019,4.0467 -0.019,6 m -599,-86 c 0.2289,2.147 0.038,8.0631 -1.0139,9.9452 -2.3147,4.1396 -5.5452,4.4874 -6.9861,5.0548 m -321,-13 c -1.4673,4.3008 -3.3436,7.0922 -8.0008,7.8526 -2.5452,0.4156 -4.7203,0.035 -6.9992,1.1751 -3.6944,1.8482 -6.1877,5.3216 -9.4244,8.9576 -3.7732,4.2388 -5.7942,4.3369 -9.5471,10.0293 -2.1245,3.2226 -2.0483,6.5117 -3.1172,9.9707 -1.0104,3.2697 -4.1202,5.5714 -5.5085,9.054 -1.8172,4.5586 -1.2496,6.9713 -1.2516,11.9607 0,5.5722 -0.2837,7.5191 0,9.9405 0.043,0.3679 -0.074,1.933 1.4553,2.9375 2.3176,1.5226 4.7763,-0.2285 5.3974,-0.4629 3.1913,-1.2042 6.1922,-1.7562 11.9992,-6.4653 4.4325,-3.5945 7.5582,-3.8723 12,-7.1882 3.4554,-2.5796 5.0989,-3.727 8.9105,-7.0818 3.8227,-3.3646 7.9628,-6.2683 12.0895,-8.9738 3.9807,-2.6098 6.3254,-2.924 10.5756,-6.9251 6.9074,-6.5025 10.4455,-8.6041 17.4244,-11.7809 m 292,-14 c 2.7915,2.8522 6.6579,8.1853 9.3248,10.581 5.7877,5.199 9.2649,5.4117 18.6752,5.419 m 596,-14 7.9607,8 4.4637,5 2.6404,2.9753 4.9352,5.0247 m -1008,7 h 8 m 286,4 c 0.9427,4.063 1.4501,8.1122 7.0756,14.9992 4.727,5.787 8.6314,9.8958 11.3442,16.0008 2.6481,5.9594 0.9435,7.1277 4.3842,13.8912 0.9586,1.8842 2.7241,3.1539 5.2145,4.1798 3.0831,1.2699 4.5564,2.1604 7.9815,3.9143 3.0485,1.5612 8.2342,3.294 10,2.9731 4.8886,-0.8887 4.7986,-3.167 9,-3.8103 6.9775,-1.0682 17.2963,0.2247 23.9985,-0.2376 2.3958,-0.1653 4.6015,-0.6072 7.0015,-0.9105 m -302,-47 c -0.2088,0.8946 0.1276,4.4494 -1.4483,7.7214 -0.9315,1.9342 -3.494,2.6869 -4.5602,2.953 -3.7405,0.9334 -11.9555,5.4961 -16.9907,9.1203 -3.5642,2.5654 -11.6648,8.5383 -14.9113,11.0047 -2.9174,2.2163 -7.7861,8.9951 -11.1289,11.4506 -6.0419,4.4381 -13.094,8.7235 -17.9606,12.7847 -5.0688,4.2299 -7.8665,4.5206 -9.9599,5.5687 -0.485,0.2428 -1.9887,1.005 -3.4822,2.6605 -3.8496,4.267 -3.318,5.9219 -3.5178,9.7361 -0.2236,4.2716 1.0911,6.3218 -3.0401,9 m 485,-80 c 0.4907,3.1819 2.0215,5.1179 5.831,10.9853 2.3799,3.6656 6.3215,9.9909 10.169,15.0147 5.7279,-4.8447 8.5865,-4.1256 14,-5.1999 1.902,-0.3774 4.582,-1.0321 9,-1.669 3.7464,-0.5401 6.8807,-1.1078 9,-1.5308 3.0963,-0.618 12.6509,-1.3724 17,-1.8858 7.0947,-0.8376 12.4756,-1.7066 19,-1.7145 5.7574,-0.01 11.3749,0.8645 18,0.1659 4.8267,-0.509 8.4435,-0.7588 14,-1.2593 8.7194,-0.7855 11.8913,-5.0621 14,-6.9066 m -527,2 c 10.2817,2.686 9.1663,9.9031 14.1296,14.5563 3.9308,3.6851 6.1816,3.0169 10.8511,6.7569 1.5319,1.2269 5.0847,8.5461 10.0386,9.578 2.5061,0.522 4.1855,0.5798 4.9807,0.7245 3.3584,0.6112 4.5408,1.0616 8,1.9097 3.7156,0.911 9.0363,1.8576 13,1.0193 6.1566,-1.302 8.7418,-1.4318 15,-1.3248 1.8805,0.032 4.0945,0.5258 8,0.7446 5.4107,0.3031 12.4747,1.3255 17,3.8742 3.2307,1.8196 6.4324,4.2749 9,5.7022 2.2523,1.252 5.4959,5.9223 10.6597,1.8758 6.835,-5.3561 5.8703,-11.5663 7.2693,-18.4167 0.8811,-4.3142 4.7373,-7.8426 7.6157,-11.1698 3.3367,-3.8569 3.898,-6.1793 7.166,-9.3974 3.3685,-3.317 7.8331,-4.0227 12.2893,-5.3788 4.4965,-1.3684 10.1089,-1.1105 15,-1.0502 2.7243,0.034 5.3651,0.2815 8,1.1667 4.0496,1.3606 5.507,2.0274 10,2.6782 2.8001,0.4057 4.883,0.8856 7,2.4691 5.5555,4.1556 11.1004,9.4873 16,14.6822 l 7.0015,-6.7161 2.9738,-2.5447 5.0247,-4.7392 m -312,-5 h 9 m 937,4 c 1.1315,0.9801 3.6851,4.4181 9.9954,4.9027 2.1981,0.1689 4.4011,-0.2301 6.0046,-0.9027 v -3 m 6,0 v 7 l -5,-2 m -864,2 c -2.5796,2.5796 -4.8805,4.9281 -8,7.9953 -1.2136,1.1933 -2.3401,2.5531 -6,5.2948 -1.2518,0.9378 -2.7046,1.8879 -4,2.929 -2.2787,1.8313 -4.2309,3.4025 -7,5.5255 -3.0539,2.3413 -5.7016,4.6386 -9,6.7955 -3.4743,2.272 -4.7952,3.5356 -9,7.3735 -4.3341,3.9559 -6.2561,4.5611 -9.9606,7.5448 -1.8744,1.5095 -13.8531,12.5296 -16.0394,14.4112 -5.3874,4.6364 -10.6565,8.5001 -14,9.9522 -0.8493,0.3687 -3.8722,2.4409 -6.9954,1.9412 -5.6952,-0.911 -6.3522,-3.573 -7.0046,-10.763 m 966,-59 3,3 m -973,-1 c -1.3434,3.4363 -2.4821,7.4561 -3.0586,13.9992 -0.2774,3.1481 -1.7943,5.4048 -4,6.4908 -6.9398,3.4166 -9.7982,-0.5121 -11.8874,7.5539 -1.1772,4.5451 -2.0797,5.9514 -4.7646,9.2416 -2.9787,3.65 -2.5087,3.7391 -3.3789,7.7145 -0.8934,4.0815 -2.2401,5.2472 -4.8071,9 -2.906,4.2484 -2.7395,5.2615 -4.4722,10 -1.1027,3.0153 -1.9143,4.6998 -2.5378,7 -1.8625,6.8702 -0.5199,10.6073 -1.3218,15 -0.1494,0.8184 -0.5193,3.4901 -3,5.7129 -2.7042,2.4231 -4.0754,1.5399 -4.7724,1.3982 -3.5581,-0.7237 -5.8785,-2.0105 -8.9992,-2.1111 m 558,-89 c 0,2.6555 0.3741,5.6971 -0.1481,8.9953 -0.2632,1.6623 -1.3038,3.8966 -3,5.1652 -5.12,3.829 -3.7779,3.039 -11.8519,4.3966 -15.6652,2.6339 -45.9389,-2.5669 -59,5.4429 l 2,5 m -129,-27 c 7.8025,9.9647 6.1787,11.8677 10.0193,14.3966 2.1254,1.3995 6.316,1.7646 8.9792,1.4159 4.5002,-0.5894 5.3426,-1.7963 7.0015,-2.8125 m 414,-7 c 2.6741,0.055 5.2613,-0.3222 12,1.4552 5.9233,1.5624 17.4839,5.8713 26,3.2593 4.5771,-1.4039 5.7134,-1.6878 10,-1.7138 3.9135,-0.024 11.8885,1.1088 15,1.1266 7.2406,0.042 7.8461,-1.8264 10,-2.1273 m -313,3 c 3.1874,3.6758 6.6411,7.4477 7.8711,15 0.3077,1.8895 0.6962,5.2366 0.9592,8 0.5268,5.5353 0.2594,9.381 0.2808,11.9961 0,0.5099 0.2998,2.9006 -0.8843,4.6598 -1.8312,2.7205 -3.2564,2.5611 -4.2322,2.905 -2.4126,0.8503 -6.4131,0.1973 -14.9946,-0.5609 -2.796,-0.2471 -6.9796,-1.0904 -10,-1.5609 -9.282,-1.4462 -25.7803,-1.4638 -35,-0.2509 -7.4364,0.9784 -7.0602,2.7664 -14,2.811 -5.5361,0.036 -26.8734,-0.023 -32,10e-4 -4.6631,0.023 -7.1214,0.4297 -11,1.1991 -4.0937,0.8121 -10.2864,1.6288 -14,2.0849 -4.606,0.5658 -6.9758,0.707 -10,0.7153 -0.427,-5.3647 -1.9162,-15.3177 -7.0146,-26 -0.6407,-1.3423 -1.084,-2.1626 -1.5348,-2.9954 -0.6955,-1.2849 -1.1969,-2.0114 -1.7647,-2.8441 -0.9024,-1.3235 -1.7971,-2.1444 -2.6859,-3.1605 m 455,-12 v 2 m -687,-1 c 0,9.1637 3.4837,19.4794 -4.0586,24.0123 -1.8388,1.1051 -3.8825,1.342 -5.9414,2.0417 -4.2769,1.4536 -6.8567,3.384 -11,6.2323 -2.4325,1.6722 -5.5798,4.4378 -6.8873,6.7284 -5.4932,9.6231 -0.1052,5.5481 -8.0325,15.9853 -4.2253,5.5633 -6.2829,14.9475 -9.2137,17.4421 -2.1529,1.8326 -6.9822,3.1757 -9.5633,5.8357 -2.9587,3.0492 -3.3372,6.3769 -4.7538,8.5524 -0.3932,0.6038 -1.7332,1.9215 -2.3704,3.4553 -1.1692,2.8147 -0.3602,4.185 -0.3256,4.7184 0.1711,2.6358 0.4461,5.0554 1.1466,7.9961 m -61,-100 c 2.3562,3.7944 1.9568,10.4316 10,17 m 391,-17 c 2.6917,2.6118 4.9719,6.3203 13,7.6744 7.7756,1.3114 9.8981,0.6441 17,-0.6744 m -276,-6 c 1.5386,7.7919 6.5005,12.1868 14,14 m 100,-14 c 0.026,2.2184 -0.9352,4.6282 1.6034,7.4907 3.1889,3.596 8.2778,2.5188 10.3379,1.2563 l 1.7377,-1.6243 c 0.9814,-0.9639 1.5713,-2.0659 2.321,-3.1227 m 29,-4 c -1.695,1.6964 -4.5841,4.1592 -7.5401,8 -2.3373,3.0369 -4.1462,7.9407 -7.5887,8.8171 -3.5968,0.9158 -5.0648,-0.052 -7.8712,-0.6257 -3.3807,-0.6911 -8.1891,-2.6827 -12,-5.1914 m -63,-5 h 7 m 36,1 9,1 m 422,0 c 4.9367,1.0593 6.403,2.1549 11,2.9113 3.979,0.6547 6.565,1.7547 10,3.7083 2.3488,1.3359 4.3409,2.0412 7,2.287 4.3835,0.4054 6.6059,0.5532 7.946,1.2724 2.7793,1.4915 4.3987,4.5446 6.3133,6.8217 8.6498,10.2878 8.1861,12.9169 16.7407,22.9993 4.6813,-4.6814 9.2598,-10.1406 17,-16.8665 1.915,-1.664 3.0427,-4.0847 13,-4.1328 4.1805,-0.02 6.7017,0.031 10,0.5395 3.014,0.4644 4.2547,0.5009 7,0.4807 5.394,-0.04 8.7346,-0.025 9.9954,0.297 0.7533,0.1925 4.222,0.7106 5.2716,4.7014 0.8226,3.128 -0.5514,6.079 -2.7763,10.9807 -1.9231,4.237 -4.2125,5.6927 -5.4953,7 -4.1089,4.1871 -6.5044,6.509 -8.9954,9 -2.4773,2.4773 -4.0079,5.6138 -10,9.3966 -4.6377,2.9277 -11.9852,1.6034 -17,1.6034 -6.824,0 -12.0201,1.152 -21,0.6906 -4.7146,-0.2422 -6.998,-1.1969 -11,-0.2238 -9.1683,2.2296 -17.4836,4.6494 -23,7.3087 -11.0748,5.3386 -12.159,10.3834 -16,14.2245 -5.0524,-5.0524 -13.8334,-13.7985 -18.9992,-19 -5.5095,-5.5476 -7.7421,-8.2038 -9.7423,-16 -1.8131,-7.0671 -4.934,-18 -1.2585,-24 m -458,-22 c -0.8411,1.2603 -0.9491,4.1899 -6.1883,8.4514 -2.3996,1.9518 -5.4184,3.1275 -7.8117,4.7624 -3.3675,2.3003 -6.7085,4.4341 -11,5.5362 -3.7469,0.9622 -6.1601,1.0048 -10,1.4159 -6.5092,0.6969 -13.396,0.8452 -20,0.8341 -3.2909,-0.01 -5.1634,0.1716 -8,-0.6844 -6.9401,-2.0943 -9.8117,-4.349 -14,-6.5756 -2.0222,-1.0751 -2.9252,-1.9383 -3.9753,-2.8488 -1.801,-1.5615 -3.3108,-3.1832 -5.0247,-4.8912 m 691,-6 c 0.2576,1.6695 0.5112,3.353 1.6034,5.0247 0.6564,1.0046 1.5083,2.0262 2.4553,2.9414 0.9137,0.883 1.6838,1.8027 2.9421,2.5462 l 1.9992,1.0356 c 4.9318,1.1263 9.1511,0.022 16,-1.3481 3.5389,-0.7076 7.4411,-1.6734 11,-2.0293 5.6589,-0.5658 6.3823,-0.1705 12,-0.1705 m -100,-4 c -1.7858,6.3623 -11.0068,14.0067 -17,20 m -442,-17 0.4051,2.1589 c 1.1551,7.1817 0.4017,13.6235 2.5949,20.8411 l 8,-2 m 548,-20 c 2.3654,2.5355 4.0372,4.3505 5.1235,7.0015 0.4171,1.018 0.1964,2.5943 2.0409,5.98 2.6577,4.8785 6.5169,6.4651 8.9159,8.348 1.8734,1.4703 3.8297,3.0107 5.9197,4.6698 3.7205,2.9533 7.2506,4.2588 11,6.8225 5.1023,3.4888 8.0701,4.4844 12.4244,8.1335 2.8406,2.3804 12.4112,6.7051 14.8611,8.7284 2.0396,1.6843 3.5224,2.5851 5.6258,4.5247 10.6254,9.7977 16.1408,13.7528 18.0887,23.7916 h -11 m -113,-74 c -2.4254,2.2135 -3.9932,3.5817 -9,7 m -21,-2 v 8 3 5 16 m -717,-25 19,-1 m 624,-1 v 42 m -204,-41 c 3.1731,3.6819 4.8203,4.9492 6.1412,10 1.646,6.2935 1.7086,15.5954 1.8449,22 0.078,3.688 0.035,4.7786 0.013,8 -0.015,2.2064 -0.1999,5.3461 -1.027,7 -4.6975,9.3944 -8.4892,9.0223 -11.9722,10 m 79,-56 c -3.1825,2.0859 -4.3867,1.2014 -6,1 m -322,2 c 5.4596,1.4371 9.6825,8.3406 17,10.5756 5.7223,1.7479 6.5896,3.4389 9,5.206 0.619,0.4538 4.4621,3.3225 10,1.9036 3.3743,-0.8646 4.1802,-2.1716 4.8704,-2.8333 2.0561,-1.9712 4.5633,-3.052 5.1296,-11.8519 m 283,-3 c 4.1512,2.4319 4.2651,3.9321 7.9606,7 2.8377,2.3557 3.4984,4.454 6.3334,6.7145 4.7236,3.7665 6.5584,6.638 10.5964,9.9684 2.1186,1.7472 3.9425,4.598 6.2384,5.7724 5.1004,2.6089 6.7563,3.585 7.8712,4.6033 5.4302,4.96 8.5965,8.538 12,11.9414 l 27,27 c 2.857,2.8569 5.5884,5.5884 9,9 1.2261,1.2261 1.9114,1.8909 4.9992,5 1.8112,1.8237 3.269,3.2781 3.8527,4 1.545,1.9108 3.6074,6.785 3.0894,13 -0.4583,5.5007 -2.4279,5.7376 -2.9135,10 -0.7566,6.6401 0.476,17.4042 -0.3133,24 -0.2685,2.2435 0.9081,6.1371 -3.1482,10.8519 -1.8184,2.1136 -3.306,2.4655 -3.5817,2.5594 -2.39,0.8137 -4.1009,0.8316 -5.9846,1.3526 -7.7714,2.1497 -18.1356,13.3666 -27,15.4414 -7.4724,1.7489 -14.3304,2.7584 -22,5.6883 -3.1804,1.2149 -7.0377,5.448 -10,6.4992 -3.6754,1.3043 -9.3311,-0.3212 -14,1.3534 -5.7783,2.0724 -9.2284,3.1396 -19,6.8881 -2.7049,1.0376 -6.2341,2.3071 -10,5.5532 -2.1422,1.8465 -3.6629,3.4135 -5.9105,5.5263 -3.5088,3.2982 -6.4807,6.5625 -10.375,10.0663 -1.9727,1.7749 -4.8129,3.7202 -6.7145,5.1605 -3.8425,2.9103 -4.3418,2.6625 -8.9606,6.152 -2.1749,1.6431 -11.2461,6.9146 -13.0348,7.5996 -2.7772,1.0635 -5.6545,1.3155 -5.5269,6.3125 0.05,1.9561 0.9835,4.1267 2.2252,5.8256 2.9148,3.988 8.2549,6.54 10.2909,11.1697 1.7892,4.0681 -0.4386,4.9315 -1.2215,6 -0.4583,0.6256 -1.7372,1.9748 -4.3479,5 -1.4154,1.6402 -2.3479,2.739 -2.5749,3 -1.4204,1.6337 -2.4129,2.6027 -3.2307,3.9954 l -0.8673,1.946 c -0.012,0.6181 -0.9197,1.8861 0.8712,3.0309 3.3387,2.134 11.9203,1.7366 15.3688,0.4243 2.0582,-0.7832 4.1439,-1.1644 4.6451,-5.4012 0.2489,-2.1039 -0.8268,-4.5205 -0.99,-4.9954 -1.2077,-3.5147 -3.5301,-6.6256 -5.6466,-9 m -166.0074,-252.9993 c -1.8069,3.1188 -3.3221,9.2727 -4.1883,12.9992 -0.5226,2.2482 -1.0833,3.8134 -3.0401,5.4159 -5.8539,4.7939 -7.3831,3.3219 -10.7708,7.6103 -1.9394,2.455 -4.0106,4.2948 -5.5872,7.1444 -2.2218,4.0155 -3.2611,6.4381 -5.0131,8.8116 -1.2721,1.7233 -3.981,4.4589 -5.1366,5.7284 -3.8029,4.1778 -2.2052,5.4856 -2.2639,7.2902 m 418,-49 c 0,10.152 -1.1164,16.0461 -7,22 m -728,-21 v 12 c 0,7.5534 -1.5186,7.5136 1.0324,13.946 1,2.5213 2.4894,3.4829 3.1119,3.9058 1.7527,1.191 7.0502,1.9957 13.8557,2.1628 15.6281,0.3839 18.0232,4.9784 27,4.9854 m 495,-35 c 0.757,1.4859 1.4128,2.6207 3.5447,5.1559 1.4378,1.7096 3.5252,4.0224 5.5487,5.0439 2.1091,1.0648 4.1897,1.2609 7.6211,3.3696 3.5884,2.2054 6.4555,3.1784 10.0216,6.1844 6.7261,5.6698 5.3562,9.4487 8.2639,13.2462 -1.0445,0.9049 -1.9766,1.9183 -3.1605,2.6459 -0.8565,0.5263 -1.5866,1.0333 -2.8441,1.4798 -9.876,3.5075 -15.6961,2.2335 -26.9954,6.159 -5.5015,1.9113 -9.6334,3.4388 -15,3.6759 -4.0478,0.1788 -5.8007,0.2377 -8,0.025 -5.2717,-0.5088 -9.692,-9.6815 -13,-14.9861 m -283,-31 c -0.642,4.9381 -1.3152,6.7283 -3.7184,10.2856 -0.6985,1.0339 -1.3138,3.0025 -3.2006,5.4367 -2.2521,2.9054 -5.755,3.1677 -8.081,3.6805 -5.9253,1.3063 -17.0356,10.575 -23.0185,13.1628 -7.2719,3.1454 -24.6401,8.8332 -20.429,18.4159 0.4943,1.1248 1.1424,1.9751 1.8657,2.7408 1.3351,1.4133 2.7955,2.2294 5.5826,3.2584 5.3849,1.9883 9.1179,2.682 10.9992,3.3372 3.1519,1.0977 9.678,4.1439 15,3.3318 1.7809,-0.2717 5.8227,-2.239 8,-2.9745 1.8571,-0.6273 4.9863,-1.2567 6.9105,-2.1852 7.0039,-3.3796 6.7041,-4.676 10.0309,-11.49 2.3606,-4.8351 2.9795,-8.4459 3.5455,-10 0.1638,-0.4499 1.0656,-2.0916 0.7214,-4 -1.0253,-5.6848 -3.6338,-5.9507 -9.3788,-13.841 l -1.8295,-2.159 m 319,-14 4,-1 m -255,2 12,8.1111 9,1.6528 10,3.2214 6,0.8773 8,5.1374 m -56,-16 c 0,4.9137 0.5813,9.7833 -1.0278,13 -1.3666,2.7319 -3.8408,5.7903 -8.9722,8.7407 -4.0118,2.3067 -6.6599,4.3564 -7.3966,6.2778 -1.0147,2.6463 -1.0071,12.0461 -0.4599,15.9768 0.5843,4.1973 2.0128,4.8317 2.8565,6.0047 3.9998,-3.9999 5.8466,-5.9454 9,-8.9607 0.3618,-0.3459 2.771,-2.508 6,-5.3233 4.6335,-4.04 2.9917,-5.8231 10,-6.1628 1.6483,-0.08 4.4226,0.5553 6,0.8334 8.0953,1.4267 20.019,1.6134 28,1.6134 m 31,-31 c 1.8352,1.8402 3.8212,3.7949 8.3843,8.8302 3.2539,3.5907 7.4339,8.9793 9.2862,12.1698 2.8525,4.913 5.4059,11.9087 9.3295,17 l 8,-2 m -319,-27 c 1.0176,1.0169 1.9164,1.9338 3.1605,3.1566 l 1.8642,1.8287 c 6.21,5.8213 8.7257,11.0469 10.8179,13.8665 0.2802,0.3777 1.2471,2.0655 4.1759,2.8303 8.3385,2.1773 6.3685,0.3375 15.9815,2.8402 2.8943,0.7536 5.1201,1.2574 7,1.8211 3.1904,0.9565 9.0573,1.5731 13,1.6712 8.8841,0.2211 20.9678,0.9854 30,0.9854 h 12 m 608,-28 c 12.0422,12.0423 18.0858,15.5307 23,19.8449 2.5872,2.2712 4.2189,3.8652 11.9606,8.4104 3.9807,2.3372 11.2927,9.841 16.0394,13.3195 3.3495,2.4547 7.444,3.6204 10.9105,5.7261 2.6307,1.598 6.4149,5.7435 10.0903,7.4244 4.0899,1.8704 11.4593,3.5683 13.9992,3.9444 0.9357,0.1386 2.7195,0.5885 4.892,-0.277 3.8061,-1.5161 6.6942,-8.7781 9.2021,-9.7893 1.2245,-0.4937 3.2339,-0.5389 5.9059,-0.6173 2.6041,-0.076 4.0713,-0.5696 6.6836,-0.1427 2.0646,0.3373 2.3938,2.2689 2.3164,2.1566 v 3 m -936,-52 9,2.2847 14,2.1705 10,2.6744 7,1.0147 11,-1.1443 m 272,-5 c 3.4276,3.4397 7.8714,4.1075 8,15 m -337,-13 c -0.5183,2.7412 -1.554,8.8027 -2.0833,14 -0.5823,5.7171 -1.73,7.8129 -2.2223,10 -0.1534,0.6819 -1.2223,2.7242 0.6389,4.6667 2.2025,2.2985 4.0574,1.3092 4.6667,1.3333 2.0066,0.079 4.5452,0.5686 12,1 5.2764,0.3053 11.0885,3.5078 15,5.0833 2.0153,0.8117 2.8662,0.8525 5,0.9167 2.9576,0.089 6.7442,0.394 10,1.3889 2.8091,0.8583 13.9317,1.3459 17,2.0277 5.419,1.2042 10.4486,2.6862 16,2.5834 7.7205,-0.143 7.937,0.027 14,1.4722 3.7873,0.903 5.8201,0.5278 10,0.5278 6.2252,0 11.1578,-0.375 19,1.6944 4.2983,1.1343 6.383,2.0107 11,2.2778 5.9585,0.3448 6.0389,1.5129 7,-2.9722 m -32,-37 c 2.0542,2.0471 3.9076,4.2951 7.0015,6.4915 0.7937,0.5634 1.8813,1.3953 4.9985,2.4545 3.5137,1.1937 7.0274,2.0826 8,2.3796 4.5605,1.3926 11.6616,3.735 14,-4.3256 m 147,-6 h 9 l 17,1 m 321,0 c 3.17,1.0545 6.7084,2.9862 15,3 4.9008,0.01 10.2308,0.4455 12,0.8086 7.658,1.5717 9.6716,4.8716 14,9.1914 7.9988,7.9829 11.4713,11.4712 16,16 l 18,18 10,10 c 1.2966,1.2965 2.2703,2.2702 8,8 m -388,-62 v 8 m 401,-4 c -0.068,1.5854 -0.1562,3.0395 -0.4244,5.0246 -0.066,0.4903 -0.306,1.3466 -0.4861,3.9754 -0.1475,2.152 -0.088,4.4226 -0.09,5 -0.016,4.847 -0.5081,12.9342 -4.74,19.9753 l -1.3634,1.8642 c -0.9773,1.2823 -1.9444,2.1428 -2.8966,3.1605 m 259,-34 c 0.552,0.8999 1.6362,5.2297 3.9877,8.7754 1.8407,2.7756 5.8185,3.7657 8.0123,4.5934 11.0862,4.1829 16.3047,10.6149 21,11.6312 m -590,-24 c -0.7596,5.1397 -2.6615,7.8357 -5.2145,14 -2.9204,7.0513 -4.4457,14.078 -11.7863,19.25 -4.542,3.2002 -7.3787,3.8261 -12.9992,5.1203 -6.4288,1.4804 -11.0154,1.6971 -17,1.6258 -6.5947,-0.078 -16.8624,-0.9792 -23,-4.0895 -3.1859,-1.6144 -10.7142,-3.9981 -13.946,-5.8943 -5.4927,-3.2228 -6.1812,-6.7627 -11.0548,-8.2662 -7.6193,-2.3506 -9.952,-3.5735 -13.9984,-3.7014 -0.8054,-0.025 -2.8076,-0.6445 -5.7153,0.9823 -3.1733,1.7753 -5.5773,4.6757 -6.3001,5.0756 -2.6951,1.4909 -7.6285,0.27 -10.9854,-0.7546 -2.0632,-0.6298 -3.2946,-0.7029 -8,-1.4769 -13.8257,-2.274 -15.3619,-8.2625 -18,-10.8711 m 301,-11 -3,11 m -575,-5 c -2.4153,4.5258 -1.8598,12.7344 -1.9892,23 -0.083,6.5614 0.4592,16.374 1.9892,20 8.3195,-6.0542 7.455,-5.9331 21,-5.9993 11.821,-0.058 17.4357,1.8611 30,4.544 2.9415,0.6281 4.9291,0.4539 8,0.4553 5.1538,0 10.9413,-0.089 16,0.5756 6.1222,0.8038 8.7372,0.4099 16,0.4244 4.3726,0.01 6.1863,0.1462 10,1.4598 4.0898,1.4088 8.4418,1.5379 13,1.5402 3.0193,0 5.8309,-0.2416 9,0.8032 4.1962,1.3834 5.4536,2.3967 9,3.1813 6.275,1.3884 14.7716,1.7066 21,2.2161 3.0423,0.2488 6.63,-0.2111 10,-0.1999 7.6596,0.026 7.0822,0.3635 16,3.3327 4.6102,1.5349 6.8456,2.4242 11,2.6264 5.7865,0.2818 20.0627,-0.077 26,0.7693 6.8365,0.9746 7.7251,1.5226 12,2.696 3.7354,1.0254 9.099,1.1891 14,0.4267 4.5318,-0.7048 5.1859,-0.8656 8.3966,-5.8565 0.9774,-1.5192 1.4548,-3.3808 1.5255,-4.9953 0.132,-3.0142 -0.6669,-4.9907 -2.24,-6.946 -4.136,-5.1404 -4.1309,-4.7405 -10.6821,-6.939 -2.5917,-0.8698 -6.4112,-1.9197 -9,-2.7816 -5.4174,-1.8038 -17.3347,-5.2039 -20.9414,-4.1259 -1.3569,0.4056 -1.8066,1.1737 -2.4483,1.7948 -0.9226,0.893 -1.1275,1.9987 -1.6103,2.9977 m 454,-34 h 24 m -438,1 v 5 m 751,-4 c -2.3009,2.1274 -3.9575,2.3392 -15,7 l 1.7145,9 -1.3179,9.9807 -7.3966,5.0193 m -655,-30 v 7 m -234,-3 v 4 m 862,-1 c 4.7361,-1.1276 13.601,-0.9998 18,-1 7.8815,-5e-4 12.0201,-0.6457 15,0 m -886,1 v 3 m 164,-2 c -0.6835,3.682 -0.9996,6.0879 -1,13 -2e-4,2.7359 0.072,5.782 -0.04,8 -0.4299,8.484 -3.6526,9.5267 -5.9599,12 m 67,-30 c 3.4456,3.9237 5.7029,6.6903 8.0486,11 2.3474,4.3126 5.5126,8.8974 8.9514,9 h 1 m -337,-18 h 11 m 132,3 3,1 -2,6 m 2,-6 c 4.7615,0.5082 8.1247,-0.026 12,0.01 5.0618,0.04 7.8339,0.8408 13,2.3572 3.9258,1.1524 14.0468,2.038 18,2.858 8.4012,1.7427 10.5883,1.6638 20,1.7801 m -60,-6 v 6 m 53,-6 v 5 m 175,-4 v 7 m 30,-7 v 8 m 518,-8 2,3 m -86,1 c 2.5346,4.0004 3.8413,2.8201 5,3 m -5,-1 c -2.9341,2.2715 -6.1979,4.8758 -8.2847,8.0255 -3.111,4.6955 -6.675,9.1327 -8.9892,11.5463 -8.1328,8.482 -15.7732,11.4757 -20.7261,16.4282 -9.181,9.1804 -17.3188,17.3188 -25,25 -3.6202,3.6203 -6.8473,6.1878 -9.7585,10 -0.5694,0.7458 -3.5525,1.3858 -1.0726,8 3.5439,9.4521 8.2084,12.8986 8.7918,14 2.5064,4.7322 5.2574,6.9461 8.9498,12.0895 1.7661,2.4602 1.8563,5.3196 7.1041,7.3071 2.2537,0.8535 6.4996,0.6033 8.9854,0.6034 4.3834,3e-4 6.369,0 10,0 1.159,-5e-4 4.0736,0.2196 7,-0.2593 10.3795,-1.6984 9.8638,-2.3786 18,-2.7307 9.9962,-0.4325 14.6671,-8.6767 20,-14.01 5.1164,-5.1167 9.2562,-7.0858 9.686,-13 0.9504,-13.0806 5.9215,-27.7275 14.314,-28 m 103,-55 c 2.5693,4.1202 3.8241,7.7277 6,12 l 8,-6 m -665,1 v 3 m 661,0 h 4 m -8,2 c 0.5017,6.5158 2.5142,5.5085 4,6 m -992,-4 c 0,2.9713 -0.1911,6.7835 0.039,12 0.2223,5.0342 0.9699,12.0288 4.7608,15.6235 4.6949,4.452 6.6327,-1.1188 9.1998,-3.6281 0.6469,-0.6323 1.6519,-2.0199 5,-4.8472 1.7884,-1.5102 3.8301,-2.5318 5,-2.8333 3.1917,-0.8228 11.8827,0.066 16,1.9899 5.9615,2.7861 8.5957,3.9814 14,5.9715 4.0484,1.4908 5.3738,1.4519 9,3.1983 3.5711,1.7198 6.834,2.7262 11,3.794 5.7302,1.4686 14.4943,2.385 20,3.8209 9.3316,2.4338 11.2662,1.7848 22,4.9113 4.8828,1.4222 5.6648,2.1098 10,2.8789 2.6944,0.478 5.138,0.1422 8,0.1234 3.4778,-0.023 5.578,-0.1463 9,0.7068 16.8637,4.204 36.8706,1.9845 54,2.3148 5.9067,0.1139 8.7932,0.053 14,0.1143 2.4314,0.028 4.6042,10e-4 7,-0.3025 1.8946,-0.2403 4.0077,-0.5556 5.7222,-1.7747 4.8065,-3.4176 4.523,-5.7258 5.1482,-11.0618 0.2932,-2.5033 0.1281,-4.2414 0.1296,-5 0.01,-3.0796 0,-5.2642 0,-8 m 758,-16 -7.2329,23 -7.7857,8.4668 -11.4321,3.1358 -3.1195,5.3982 -4.1582,6.9051 -9.2716,6.0941 m -913,-46 v 4 m 220,-2 c 1.7892,1.9109 3.7738,4.0114 5.5641,7.0016 1.5373,2.5677 2.5943,5.1106 3.1311,7.9984 0.6268,3.3718 0.3642,5.2759 0.3017,9 -0.055,3.2459 0.035,5.4438 -1.7392,7.7215 -3.571,4.5851 -10.9823,4.8539 -15.2577,5.7608 -3.6937,0.7835 -8.1219,0.2537 -10.0124,2.8356 -1.8297,2.4992 -3.0439,9.1229 -4.9128,15.6821 -2.5965,9.1135 -2.0711,11.686 -2.0748,14 -0.013,8.0717 0,14.0966 0,21 2.8335,-0.526 4.7371,-0.9899 11,-1 h 11 c 3.8189,0 5.6682,0.3701 9,-0.1481 4.8304,-0.7514 6.159,-3.1098 8,-4.8712 4.1746,-3.9941 5.639,-5.3549 7.7215,-7.9807 0.6734,-0.849 1.5782,-1.0685 2.706,-5 0.4119,-1.4358 0.5488,-4.5667 0.5687,-6 0.018,-1.3309 0.8043,-13.6856 0.7468,-14 -1.3388,-7.3264 -5.5014,-9.8488 -14.5825,-16.3001 -1.3132,-0.9329 -2.1937,-1.8517 -3.1605,-2.6999 m 615,-24 c -0.2689,4.2516 -3.6226,11.2329 -4,20 m 5,-17 7,-1 m -621,5 c 8.7524,-1.4684 13.8073,-0.1772 18,0 m 641,-1 v 4 c 4.0438,0.1849 6.1459,1.4339 12,1.9067 11.4508,0.9248 24.5753,1.8329 28,4.0933 m -951,-7 c 0.5871,2.5683 1.5863,5.0164 1.9066,9 0.7282,9.0546 2.2803,18.1543 4.1073,20.9106 1.9416,2.929 5.6864,7.4669 8.1705,10.0316 2.6456,2.7314 9.4994,4.443 11.2708,5.9159 2.876,2.3912 3.1238,3.8167 6.0548,8.1419 1.3085,1.9309 3.3555,6.2302 4.7678,8 7.7946,9.7681 11.6911,15.5086 15.2901,21.9993 0.7733,1.3946 1.1943,2.6698 3.5617,4.6829 1.813,1.5415 6.3013,2.2994 8.8704,2.3171 3.3534,0.023 7.1671,-1.3146 15,1.0007 l -1,20 -2,25 m 818,-136 c 4.0042,1.8673 7.7829,1.9034 11.9329,11 2.2881,5.0157 -5.0612,21.3495 -10.3619,27.9452 -3.5013,4.3567 -9.3051,5.5139 -12.571,6.801 -8.1712,3.2203 -8.6468,4.3611 -12,5.9853 -6.1485,2.9782 -13.8234,11.9845 -20,14.1204 -2.3487,0.8122 -4.2151,1.0193 -7,1.0193 -0.4361,0 -1.5779,0.01 -3.9985,-0.5039 -4.3514,-0.9217 -6.7708,-3.1994 -7.0015,-3.3673 m 78,-63 -5,10 m -187,-2 c 5.1391,7.4784 7.58,10.836 8.5448,13.9954 0.451,1.477 -0.7958,2.7395 2.0579,4.9769 1.8041,1.4145 9.7002,1.0277 13.3973,1.0277 h 4.9985 7.0015 m -637,-16 v 4 m 98,-4 c 3.7816,3.7817 4.7975,4.7975 8,8 m -31,-5 v 6 m 10,-5 c 0.2541,3.7985 0.4326,6.4495 -2.1636,10.8712 -3.5827,6.102 -9.7265,10.7312 -11.1072,14.1288 -0.4359,1.0727 -0.6642,2.0686 -0.8851,3 -0.477,2.0115 -0.6788,3.624 -0.75,5 -0.341,6.5966 7.3786,13.493 12.9059,19 2.0266,2.0191 3.6716,4.0548 6,5.4939 1.3109,0.8101 1.5457,1.8979 9,-0.4939 m 54,-40 c 5.536,-4.697 12.379,-4.9873 17,-5 m -238,2 c -0.1047,8.8649 -8.2913,15.2913 -16,23 m 219,-17 h 15 m -167,7 c 0,10.9998 0.2021,21.9915 0,33 -0.1087,5.7873 -0.5604,15 -20.9954,15 m 700,-26 c -2.7485,2.7486 -4.8758,4.8758 -9,9 -4.5556,4.5556 -12.5381,11.4749 -15.3966,16 -4.1876,6.6292 -3.2633,15.7683 -3.6929,22 -0.3569,5.1787 -2.3551,11.4417 -2.9105,16 m 106,-62 c 3.6521,3.6522 6.6279,6.6278 12,12 3.5084,3.5084 8.3551,9.1035 13,11.196 1.4236,0.6413 2.5439,1.206 6,1.6196 2.0453,0.2448 6.2822,0.09 7.6821,-0.8433 4.9812,-3.3202 2.2934,-5.896 2.3179,-7.9723 m -85,-15 c 2.8371,5.3153 1.8733,6.2505 2.3087,8 0.9754,3.92 3.5598,7.5014 3.6682,11 0.1886,6.086 -0.5976,16.2061 -2.2493,23 -1.7719,7.2882 -0.9525,12.8597 -3.7276,25 m -558,-64 c 4.0831,4.0692 4.3571,4.9535 8,7.1428 1.9444,1.1685 5.0493,1.9173 7,2.6975 5.4841,2.1934 7.7667,2.5568 10,3.3025 4.0981,1.3683 5.7332,4.6091 15,3.6867 3.8878,-0.387 8.0487,-1.8039 16,-1.8295 8.3506,-0.027 19.1921,-2.0401 28,0.5486 5.4328,1.5968 5.6133,3.0785 11,3.4152 3.5274,0.2204 6.2109,0.5183 9,0.9059 3.187,0.4428 10.6038,0.9063 14,1.9305 3.5952,1.0842 5.5472,2.8321 9,4.5416 4.4257,2.1913 7.0081,2.3385 12,4.6984 5.6844,2.6872 13.1307,7.5195 16.9992,10.7939 5.6632,4.7934 11.1029,9.7956 11.0108,18.1659 -0.072,6.5855 -1.2406,10.466 -3.2199,17 -0.834,2.7531 -1.7424,3.6084 -2.7855,6 -0.724,1.6602 -0.9774,3.3078 -1.0409,5 -0.2155,5.7508 -0.6709,7.4182 -1.2446,9 -0.2204,0.6078 -3.0345,3.5001 -0.096,6.2307 2.1882,2.0337 5.5495,1.3794 6.3773,1.5502 4.4509,0.9182 8.3137,2.0155 13,0.2006 0.9878,-0.3826 2.7836,-1.2057 6,-2.3109 3.3577,-1.1539 6.0386,-1.9413 7,-2.1567 4.0333,-0.9033 5.8724,-1.1689 9,-1.2546 1.2529,-0.034 2.2579,0.3728 7,0.571 9.2911,0.3882 11.4771,1.5101 19,2.5903 4.584,0.6582 12.5283,1.5802 17,0.3958 9.2509,-2.4502 12.8039,-6.3507 15.1566,-9.8704 0.8754,-1.3096 1.2886,-4.9493 4.3534,-8.7716 1.7196,-2.1445 3.2957,-3.0511 5.4908,-4.554 4.0881,-2.799 9.6196,-7.2681 14.9992,-7.5833 3.7338,-0.2188 4.6244,-0.2312 8,-0.037 v 1 2 m -335,-69 c -3.3372,3.3372 -5.6537,6.0263 -9,8.8519 -1.7113,1.445 -3.9901,3.106 -10,3.1474 -7.641,0.053 -11.7103,-1.106 -18.3287,1.233 l -1.6755,0.7673 c 4.4456,4.4456 4.6938,4.6938 6.0046,6.0047 1.9234,1.9233 3.4042,3.4041 4.9954,4.9953 4.651,4.651 8.53,8.5301 14,14 4.028,4.028 9.7915,9.6946 11,14 m 345,-52 c -0.037,0.6855 1.2927,2.9993 -1.7407,6.6837 -1.0839,1.3165 -2.2043,1.6625 -2.3233,1.7129 -1.5338,0.6504 -2.6526,0.5058 -3.936,0.6034 m -272,-4 c -0.4915,5.4632 -2.6792,9.768 -4.3256,15 -0.6055,1.9239 -1.7241,3.6883 -2.49,10 -0.9625,7.9331 -1.3664,10.4355 -3.0386,12.8665 -0.3326,0.4836 -1.108,1.6798 -3.2399,2.8157 -2.3793,1.2675 -6.6452,1.423 -7.8866,1.9174 -6.6759,2.6588 -4.9276,6.5734 -5.0193,9.4004 m 353,-52 1,7 h -3 m 16,-5 1.6019,5.1073 6.3981,0.8927 m -70,-5 7,6 m -359,-4 c 4.2929,4.293 4.7246,4.7246 6.0046,6.0047 2.1547,2.1546 3.4759,3.4758 4.9954,4.9953 4.8182,4.8182 8.8468,8.8925 16,15.9993 1.7253,1.7141 2.1252,5.1567 10,7.4282 3.2527,0.9382 10.0838,1.3424 13,1.5725 m 93,-35 v 6 m -284,-5 -22,22 c -3.3412,3.3412 -5.0824,6.6342 -12,11.4861 -2.0518,1.4392 -8.2161,2.1784 -11.6998,5.0278 -2.4677,2.0183 -5.3438,6.6502 -8.3396,9.2222 -5.3117,4.5604 -9.4624,3.7425 -14.5054,9.3936 -2.5762,2.8869 -7.7268,8.7183 -8.3572,13.8703 -0.6578,5.3758 1.8426,10.3888 4.189,15 2.1434,4.2122 2.7604,6.4628 4.9329,8.0309 3.3324,2.4053 11.2697,10.8616 13.9198,13.9498 1.5914,1.8547 2.9288,3.605 6.8642,3.9607 6.6626,0.6021 6.445,-0.419 10.1659,3.9691 2.1863,2.5784 4.1186,2.6644 7.8302,3.3442 4.4756,0.8198 7.463,1.7063 12,3.2855 6.6838,2.3263 15.0091,2.4502 21,2.4598 4.493,0.01 6.5755,-0.071 11,1.6243 6.775,2.595 9.1976,2.3664 15,2.3757 3.8429,0.01 8.6971,-0.2718 13,1 l -1,1 v 1 1 m -6,-132 c 8.6249,4.6029 15.1669,2.2831 26,2.1389 9.8015,-0.1305 15.5047,-0.3949 24,-1.1389 6.613,-0.5791 19.5075,-1 27,-1 m 431,0 10,1 v 3 m 284,-4 c 8.7275,9.7909 4.5377,9.6318 11.1204,16.7145 6.1567,6.6245 9.599,9.0596 13.1242,15.3002 2.8568,5.0572 7.2152,8.245 12.1752,12.9498 3.7334,3.5414 4.3741,3.1425 6.1412,7.0895 1.6403,3.6639 2.4081,5.6948 5.1088,8.7724 2.3309,2.6563 4.066,3.782 5.3448,4.5602 4.0052,2.4373 7.2067,2.4862 9.9854,2.6134 m -820,-66 c 3.7817,3.7818 7.009,7.009 12,12 3.5319,3.5319 9.164,8.6394 11.6821,12 3.3595,4.4837 2.7136,7.5859 2.1883,12 -0.441,3.7047 -2.765,7.1065 -4.777,11 -0.572,1.1067 -0.7859,2.0446 -2.3974,5.9807 0.089,-0.2168 -8.0849,10.1977 -8.0185,10.0386 -1.4748,3.5332 -0.622,4.2045 -4.0926,7.4714 -5.5696,5.2428 -13.3994,5.5097 -19.5849,5.5093 -6.4388,-4e-4 -9.9492,-1.5946 -16,-0.662 -4.9765,0.767 -7.7587,1.636 -13,1.6613 -9.7791,0.047 -22.3168,7e-4 -32,7e-4 -4.2268,0 -6.7666,0.3455 -11,-0.7098 -7.6698,-1.9121 -20.1286,-1.6278 -28,-3.6906 -2.5724,-0.6742 -4.0121,-1.361 -6.7145,-3.2639 -3.9468,-2.7792 -6.9435,-6.4907 -8.2855,-11.3357 -2.5283,-9.1277 -5.1066,-9.074 -8,-12 m 116,-45 v 14 c 0,7.8354 1.9258,14.8894 0.3804,24 -0.6306,3.7175 -1.983,6.9275 -4.4159,15 -0.3728,1.2372 -2.3202,6.2085 -2.7801,10 -0.7493,6.1781 -0.1844,8.2458 -0.1844,10 m -99,-71 19,-1 h 19 m 612,0 2,9 h -10 m 10,0 c 6.7484,2.6093 11.2709,0.037 13,0 m -11,2 v 2 m -36,13 c 0.287,3.6365 0.7539,7.2249 1.4383,10.9985 0.2359,1.3006 -0.2016,2.0164 2.5617,7.0015 7.1893,-6.6466 13.1682,-4.0045 20,-4 m -394,-12 c 2.3843,2.5669 4.6267,5.734 8.0394,7.7215 1.4657,0.8536 3.6664,1.5842 7.9598,2.2824 4.8398,0.7871 5.8835,1.6828 9.1312,4.1859 3.5508,2.7367 5.1678,3.5638 8.3742,7.8997 1.1587,1.5668 4.2003,8.9096 5.7716,9.713 4.2813,2.1889 5.8152,0.2586 6.7238,0.1975 m 115,-23 13,-5 m 414,1 11,2.9152 6.1111,3.8441 0.8889,5.2407 v 0 m -286,-8 c 2.8541,1.7484 6.1401,2.1748 11,3.75 6.7973,2.2033 8.7652,5.6522 15,8.1566 2.5144,1.01 11.9209,2.1173 15,2.0965 2.9912,-0.02 4.287,0.2846 6.9807,-0.1512 3.4335,-0.5556 4.4908,-2.5646 6.0193,-5.8519 m 233,-5 h 11 m -334,7 12,-6 m 150,12 c 0.014,-0.5849 -1.4924,-3.9781 1.7423,-7.4112 3.1389,-3.3315 6.6782,-2.474 7.2577,-2.5888 m -19,4 c 2.3096,-0.3396 3.1694,-1.3172 11,-2 m -75,5 c 2.9437,2.9438 5.3561,5.5418 10,9.9599 2.7543,2.6204 6.7579,5.3369 8.7361,7.365 1.0701,1.0971 2.9225,2.8822 4.0401,7.6751 1.3408,5.7503 1.8901,8.0835 5.2786,10.3966 2.1209,1.4478 6.307,1.6018 9.9452,1.6034 11.6187,0.01 13.5803,-0.557 17,-2 l 1,10 m -74,-43 c 0.8217,10.324 2.4069,10.693 4.1759,16 0.6321,1.8963 1.8891,7.3495 4.1335,11.9599 3.3904,6.964 11.2691,11.3828 12.7801,12.5385 0.6271,0.4798 1.3963,0.9599 2.9143,1.1382 2.0477,0.2405 9.173,-2.5292 12.9962,-3.3303 5.976,-1.2521 7.3235,-2.8883 9,-4.3063 m 100,-31 c 1.3625,-0.1723 2.6074,-0.3655 4.0447,-0.5779 0.9061,-0.1339 1.6133,-0.2453 2.9568,-0.3974 5.337,-0.6042 17.5155,0.4602 20.5741,3.2539 0.5196,0.4745 2.3043,2.4785 4.4638,4.7222 3.1249,3.2468 3.9983,4.0366 4.9606,4.9992 3.4695,3.4708 6.4827,6.4827 10,10 -3.6489,2.6553 -6.1108,2.7669 -10,4.6836 -3.4111,1.6813 -4.1656,3.2254 -8,4.5888 -3.452,1.2275 -9.1406,0.955 -12,1.5362 -5.8553,1.1902 -8.2116,2.7716 -11,4.1914 0.4815,0.8675 1.3798,2.4214 2.2153,5.0247 2.7,8.4138 2.541,6.4977 5.4552,14.9753 0.9804,2.852 2.2025,7.3494 5.5394,12 1.7137,2.3885 4.191,5.0562 5.7462,7 4.2061,5.2575 3.9301,8.5518 4.0439,11 m -17,-88 1,6 m -636,63 c 3.8266,4.3791 7.1871,2 15,2 7.0052,0 9.0194,-0.2912 15,-1.4861 5.4732,-1.0935 19.3786,0.1369 25,-1.2739 7.1618,-1.7974 7.2816,-1.9744 14,-2.2793 8.626,-0.3916 10.5968,-1.1964 16,-4.6505 5.2258,-3.3407 11.3756,-4.0519 18,-4.3279 8.1222,-0.3385 9.3389,-5.3209 16,-4.2455 8.4741,1.3683 7.1877,5.0407 17,-1.2823 12.3651,-7.9681 13.4359,-15.3057 15.3665,-19.4382 0.5526,-1.183 0.2786,-3.3103 3.8225,-4.3072 1.9653,-0.5528 4.4545,0.3579 4.8118,0.4052 2.0081,0.2654 9.1227,0.8862 15.9992,0.8857 10.4006,-7e-4 11.1416,-2.633 18,-4.2453 6.4227,-1.5099 12.1505,-0.2067 20,0.821 6.327,0.8283 15.6555,-2.3061 25,3.4243 3.6467,-5.3066 4.5599,-6.4618 5.4653,-8 2.5274,-4.294 2.3224,-7.6306 6.0139,-11.8302 1.8825,-2.1418 2.2653,-4.6768 8.5208,-6.4807 1.4255,-0.4111 3.3782,-0.1592 5,0.045 7.157,0.9002 7.8204,1.8426 11,4.2662 m 480,-5 c 0.2031,1.2732 -0.7394,3.0037 2.3179,4.9776 2.6338,1.7005 8.9818,-0.247 13.6775,-0.9537 3.926,-0.5908 4.7421,-0.083 6.0046,-0.024 m -4,-4 v 3 m -449,-2 c -0.031,3.6767 -1.1557,7.1109 -0.6119,10.9985 0.187,1.3364 0.6212,1.9083 2.6119,7.0015 m 430,-14 c -1.2711,0.7795 -3.2514,1.9506 -6.0046,2.7686 -2.7378,0.8132 -4.6705,1.62 -6.9954,2.5215 -8.8096,3.4163 -13.8063,1.8598 -15.3966,3.9923 l -0.4553,1.615 c -0.2566,1.0632 -0.1147,2.0832 -0.1481,3.1026 m -567,-13 c 0,15.1803 -2.1537,15.0263 -4,18 m 609,-17 v 2 m -250,3 c 1.3168,-1.1136 2.4735,-2.3744 4.0447,-3.0169 3.4125,-1.3955 12.8616,-3.7989 20.9013,1.1064 6.5602,4.0027 7.0153,7.7864 9.3488,10.9059 0.8551,1.1432 1.0644,2.4266 3.834,4.4012 2.5491,1.8174 7.7278,2.1343 10.8712,2.4336 2.973,0.2832 5.3121,0.1695 8,0.1698 2.5947,4e-4 5.593,-0.1084 8,0.1845 7.3524,0.8944 10.3888,3.4857 13,4.8155 -1.6973,5.7422 -1.0071,6.5476 -0.9954,8 0.034,4.2279 1.7431,6.7685 3.74,13.9993 0.7332,2.6549 5.7152,11.2862 11.2408,15.5763 1.7295,1.3429 3.6322,3.8966 4.814,5.2948 3.6051,4.2652 5.8337,3.0527 8.2006,3.1296 m 112,-70 v 2 m -723,2 c 2.2078,1.2238 4.8403,3.08 11,2.8673 2.2979,-0.079 5.2024,-0.9201 6.9985,-1.0679 3.2777,-0.2697 4.7035,0.1212 7.0015,0.2006 m 646,-2 c -0.1369,1.7949 0.2093,3.5553 -1.6034,5.4406 -1.5781,1.6413 -4.2473,2.2173 -8.3966,2.5594 m 9,-2 c 3.2014,1.8201 4.3491,1.4673 6.0046,0.8565 3.3429,-1.2334 5.1206,-1.4652 13.9954,-1.8966 8.8237,-0.4289 19.8964,-3.9348 28,-4.9599 m -923,2 c 0.037,0.1123 -0.1037,2.0575 1.6026,3.017 2.7434,1.5426 4.8002,0.9872 8.3974,0.983 10.7416,-0.012 17.1621,-1.4458 21.9954,-2.1303 2.1951,-0.311 2.6002,-0.439 6.0046,-0.8697 m -74,8 10,-1.1659 8,-0.9266 17,-2.9075 m 343,3 7,5 m 516,-5 c 8.5416,8.6436 6.9394,9.8421 6,15 m -435,-11 c 1.1761,0.6277 1.7607,1.4607 5.0247,1.8758 5.7847,0.7357 21.6827,-1.6331 26.9753,-3.8758 m 87,0 c 1.3393,1.5459 2.5116,2.7532 3.1868,4.0448 0.4864,0.9304 0.9236,1.6126 1.2422,2.9568 1.6809,7.0922 -1.9079,16.2213 5.831,24.9089 2.5166,2.8251 4.9357,4.627 7.74,7.0702 3.9373,3.4305 6.9564,3.8273 10.2902,7.0332 2.8413,2.7323 4.7873,3.7735 8.7098,4.7538 5.3839,1.3456 8.2758,2.1382 13,4.2323 l -1,11 m -138,-65 9,12 m 274,-10 -2,2 m 42,4 c 9.1616,0.7989 9.2385,1.9711 15,1.9993 4.4779,0.022 17.4166,0.2371 20,1.0007 m -130,4 c -1.1924,2.8063 -2.0081,5.6033 -7,7.8302 -2.0446,0.9121 -4.5634,2.6277 -6.1659,4.1891 -5.4315,5.2922 -11.5821,12.4066 -13.2932,17.9954 -1.1704,3.8227 -1.4664,4.8916 -2.2515,6.9807 -0.1837,0.4889 -0.4056,1.9043 -1.9915,3.6868 -1.6655,1.8718 -3.5021,2.0395 -4.3133,2.1696 -2.5003,0.4014 -5.8023,0.1482 -11.9846,0.1482 -14.2328,0 -26.8093,-5.9769 -29.6821,0.1034 l -0.2592,1.757 -0.059,2.1394 m 280,-45 c 2.1683,4.0071 2.093,4.1647 7.0008,5.8812 3.4604,1.2104 4.7502,1.318 8.9992,3.1188 3.2871,1.3931 6.4218,2.3345 9.9992,4.0402 3.1592,1.5062 4.0485,2.0301 6.5764,4.26 3.0918,2.7273 6.6282,6.0443 10.4244,7.3248 12.5843,4.2448 17.6121,9.1358 21,12.3936 1.6998,1.6345 3.5318,3.5193 6,5.9807 0.5691,0.5675 1.8839,2.0655 4,3.8525 1.9792,1.6714 3.2423,2.3167 4,2.5448 3.2347,0.974 6.5631,0.8921 11,0.3141 5.5135,-0.7182 15.5458,-3.0827 19,-5.3102 4.788,-3.0876 4.1556,-4.8922 9.8387,-12.1721 3.4988,-4.4818 7.3451,-2.1319 10.8473,-4.9707 3.6813,-2.9839 2.9038,-5.746 3.314,-7.2577 m -132,-18 -5,2 m -342,0 h 9 m 422,2 v 12 l 9,-1 m -10,2 c -0.3866,1.6 -1.1637,5.8656 -1.5702,7.0016 -2.9208,8.1618 -4.4779,8.9511 -5.9344,10.9938 -1.0741,1.5065 -1.3454,1.8077 -5.4954,6.0046 m -790,-21 v 9.3288 1.6712 m -43,-7 v 4 m 25,-3 11,1 h 7 8 10 m 832,-1 6,3 m -841,-1 v 5 m 843,0 c -2.002,12.9749 -13.6019,11.2129 -20,12.9599 -2.5375,0.6928 -4.6788,1.853 -10,-1.9599 m -400,-8 h 12 m 48,4 c 5.0374,2.7394 3.8684,4.1071 8.0031,9 2.046,2.4214 2.9787,3.3096 4.1227,6 1.158,2.7234 1.9388,5.4145 3.9676,7.9993 4.7475,6.0486 10.2386,10.1134 18.9066,11.7414 5.4826,1.0298 6.6564,1.7736 10.9954,1.902 3.0222,0.09 4.3924,-1.7505 4.9915,-2.7414 2.7243,-4.5064 0.8537,-9.0166 0.013,-11.9013 m 252,-19 c -2.142,3.4494 -2.7289,6.341 -4.7538,10 -2.6098,4.7158 -4.6337,6.6776 -8.25,9.1961 -2.3396,1.6292 -6.784,2.7728 -8.9962,3.682 -5.2057,2.1396 -4.6808,5.4347 -16,7.7223 -6.3983,1.2931 -15.7839,2.9858 -19.7909,6.6782 -9.0245,8.3161 -3.8478,10.6935 -21.2091,10.7214 -14.4885,0.023 -19.4204,0.3194 -25,-0.8287 -2.227,-0.4583 -7.9095,0.7099 -12.8519,-2.1998 -2.9956,-1.7637 -2.6226,-3.1861 -2.8294,-3.9908 -0.7616,-2.9622 -0.1309,-5.5692 0.6813,-8.9807 m -174,-24 9,-5.9414 12,-1.0586 m 333,0 c 0.1185,0.1188 2.1661,2.0518 4.9352,5.0247 1.8865,2.0254 2.7811,3.192 3.4892,3.9167 1.8521,1.8953 8.2848,4.8542 16.5756,2.4206 7.7024,-2.261 10.9104,-3.1978 17,-3.3473 3.3081,-0.081 7.9252,0.018 11,-0.019 1.9412,-0.023 5.9197,-0.7704 9,-0.6966 3.1053,0.074 4.1794,0.916 5,1.2909 3.9556,1.8067 9.853,3.265 17,9.4096 m -73,-6 -8,3 m -314,9 c 2.0121,0.2377 3.8696,0.5945 6.0046,0.5448 1.1728,-0.027 2.3723,-0.2564 3.9954,-0.3789 11.3777,-0.8584 19.074,-0.4475 21.7979,3.9677 0.7824,1.2683 0.3533,12.6091 0.7437,13.8116 0.9848,3.0337 2.4303,3.9882 7.4584,4.9052 3.4086,0.6215 9.5717,3.0623 14.9413,0.1218 4.3749,-2.3956 3.5961,-4.3417 3.9106,-5.9729 0.059,-0.3073 0.138,-1.2919 0.1295,-2.9946 -0.015,-3.0464 -0.7252,-5.1379 -0.9814,-6.0047 2.1783,-0.6378 5.0729,-1.0689 9,-0.385 3.516,0.6123 5.8837,1.1373 6.9962,1.5324 4.2462,1.5078 5.6468,3.8827 7.3348,6.8341 0.4744,0.8294 0.3793,2.2429 2.5085,4.0055 3.0529,2.5271 9.8817,1.994 11.1605,2.0091 3.6295,0.043 10.5089,-0.017 12.9992,-1.5995 6.3204,-4.0169 6.2485,-6.7162 7.0008,-9.3966 m -81,-5 c 7.1215,0.3058 15.249,2 24,2 m 83,12 c 3.0402,-3.5091 2.1559,-12.6435 13,-12.9846 6.8824,-0.2163 11.4879,-0.017 15,-0.015 3.333,0 8.1925,0.2814 11,0.7338 6.0044,0.9676 7.4302,2.8901 10,5.2662 m -194,-4 c 2.5266,2.3501 4.7717,4.6483 10,5.382 1.9484,0.2734 5.1481,0.5018 9,1.6319 7.9503,2.3327 9.1453,2.2229 16,1.9861 m -27,-3 v 2 m 128,3 c -5.134,2.8458 -5.9283,2.7364 -11,2.9607 -3.664,0.162 -8.8448,0.2569 -13,-1.9607 m -25,0 -11,3.7284 -7,0.2709 -9,-1.9993 M 2036.641,1501.6002 c 0,-0.55 -0.9,-1 -2,-1 -1.1,0 -2,-0.45 -2,-1 0,-0.55 -0.6999,-1 -1.5554,-1 -0.8554,0 -4.2055,-2.7 -7.4446,-6 -3.4423,-3.5071 -6.7499,-6 -7.9607,-6 -3.8212,0 -17.0393,-14.3387 -17.0393,-18.4839 0,-2.5298 -0.4408,-3.5161 -1.5714,-3.5161 -2.0211,0 -4.4286,-2.4076 -4.4286,-4.4286 0,-0.8643 -0.45,-1.5714 -1,-1.5714 -0.55,0 -1,-2.25 -1,-5 0,-2.75 -0.45,-5 -1,-5 -0.55,0 -1,-1.3125 -1,-2.9167 0,-1.6042 -0.5625,-3.1792 -1.25,-3.5 -1,-0.4667 -1,-0.7 0,-1.1667 0.6875,-0.3208 1.25,-1.8958 1.25,-3.5 0,-1.6041 0.45,-2.9166 1,-2.9166 0.55,0 1,-0.9 1,-2 0,-1.1 0.45,-2 1,-2 0.55,0 1,-1.1455 1,-2.5455 0,-2.8064 4.0246,-7.4545 6.4545,-7.4545 0.85,0 1.5455,-0.45 1.5455,-1 0,-0.55 1.8,-1 4,-1 2.2,0 4,0.45 4,1 0,0.55 1.1571,1 2.5714,1 2.677,0 5.4286,2.0274 5.4286,4 0,1.6539 2.5975,4 4.4286,4 0.8643,0 1.5714,-0.45 1.5714,-1 0,-0.55 0.9,-1 2,-1 1.3333,0 2,-0.6667 2,-2 0,-1.1 0.45,-2 1,-2 0.55,0 1,-0.9 1,-2 0,-1.1 0.45,-2 1,-2 0.55,0 1,-0.9 1,-2 0,-1.3334 0.6667,-2 2,-2 1.1,0 2,-0.45 2,-1 0,-0.6 4,-1 10,-1 6,0 10,0.4 10,1 0,0.55 1.35,1 3,1 2.2093,0 3,0.4689 3,1.7792 0,0.9786 0.9,2.4279 2,3.2208 1.7319,1.2483 2,2.5886 2,10 0,7.4113 -0.2681,8.7517 -2,10 -1.1,0.7928 -2,2.2421 -2,3.2207 0,0.9786 -0.45,1.7793 -1,1.7793 -0.55,0 -1,1.35 -1,3 0,1.65 -0.45,3 -1,3 -0.55,0 -1,1.35 -1,3 0,2.0606 -0.4921,3 -1.5714,3 -2.0211,0 -4.4286,2.4075 -4.4286,4.4285 0,0.8643 -0.45,1.5715 -1,1.5715 -0.5556,0 -1,2.6666 -1,6 0,3.3333 0.4444,6 1,6 0.55,0 1,1.3125 1,2.9166 0,1.6042 0.5625,3.1792 1.25,3.5 1,0.4667 1,0.7 0,1.1667 -0.6875,0.3208 -1.25,1.4458 -1.25,2.5 0,1.0542 -0.45,1.9167 -1,1.9167 -0.5652,0 -1,2.8571 -1,6.5714 0,4.3619 -0.4803,7.0517 -1.4286,8 -1.6225,1.6226 -10.5714,1.9854 -10.5714,0.4286 z"
       id="path3" /></g></svg>
