<?xml version="1.0" encoding="UTF-8" standalone="no"?>
<!-- Created with Inkscape (http://www.inkscape.org/) -->

<svg
   width="324.37915mm"
   height="300.29172mm"
   viewBox="0 0 1226 1134.9608"
   version="1.1"
   id="svg1"
   xml:space="preserve"
   xmlns="http://www.w3.org/2000/svg"
   xmlns:svg="http://www.w3.org/2000/svg"><defs
     id="defs1" /><g
     id="layer1"
     transform="translate(-2761.4255,-190.80804)"><path
       style="fill:#1c1c1c;stroke:none"
       d="m 3371.4255,205.94925 v -4 c -25.9055,-8.57959 -22.0359,18.96167 -22,36 8.2857,4.74707 14.0114,13.49622 18,22 7.4562,1.81641 12.2839,5.2406 16,12 3.0089,1.28858 5.9883,2.8075 9.1109,3.8031 18.2253,5.81092 9.7545,-29.14184 13.1047,-37.78601 4.3649,-11.26233 22.3662,-31.39184 8.7743,-42.87671 -17.0936,-14.4436 -27.7538,12.41565 -42.9899,10.85962 m -218,42 c -5.9256,8.51172 -20.017,13.2627 -30,14 v 4 c -12.5688,4.49781 -35.5918,13.74366 -42,26 -6.1311,0.99304 -10.8314,2.35034 -14,8 -5.7938,1.89893 -9.3835,4.40381 -12,10 l -6,6 c -4.7433,2.27838 -6.691,4.93067 -8,10 h 6 c 2.3503,4.84766 6.4108,8.59735 12.2024,6.47547 5.8084,-2.12806 7.4986,-9.22028 11.4644,-13.39148 8.8261,-9.28321 24.2719,-13.4635 30.3332,-25.08399 l 16,-2 v -4 c 24.4384,-6.42053 43.6239,-27.1532 70,-28 l -12,32 -14,12 c -4.2282,17.05976 -20.4413,26.26856 -16,46 h 4 c 5.1277,10.57392 20.8723,10.57392 26,0 l 6,-2 h 1 1 c 4.1071,3.94721 9.2456,-1.84076 10,-6 h 24 c 6.665,-10.11737 27.2207,-11.46728 38,-8 h 1 1 c 22.4695,-11.90216 50.9851,-8 76,-8 -1.6575,9.25287 -7.0456,13.81818 -16,16 v 6 c -9.426,1.70703 -15.8687,7.21222 -23.9634,11.84986 -12.3865,7.09655 -30.0505,13.1922 -38.8949,24.95288 -7.1877,9.55774 -5.5824,27.36749 6.0824,33.16436 13.492,6.70496 34.859,0.96796 49.6048,2.42273 34.9105,3.44422 72.0144,9.18378 103.1711,25.61017 v 1 1 c -11.3935,5.84491 -23.5566,3.15204 -35.8538,4.2511 -11.1554,0.99701 -21.7839,4.76257 -33.2393,5.53491 -8.7546,0.59021 -21.8163,-2.74121 -26.9069,6.21399 -11.0671,5.84479 -8.6234,17.51203 -8,28 l 8,6 6,2 h 1 1 v -2 h 1 1 c 10.608,4.18762 23.1479,-1.37683 30,10 10.1978,0.44562 26.1582,5.12689 32,14 17.5259,2.07801 26.754,14.0802 42,20 l -6,78 -8,-2 v -4 h -4 c -1.8295,-9.45611 -9.2697,-17.96698 -18,-22 -2.7989,-5.00146 -6.6227,-6.56494 -12,-8 v -6 l -10,-2 v -4 l -18,-4 v -4 l -40,-8 c 2.5361,10.89765 6.6882,14.96039 18,16 v 4 l 42,16 v 4 l 12,12 c 9.2474,3.0647 20.5399,15.95386 26,24 h 4 l 9.1722,24.3595 1.2018,24.42578 7.3307,28.54358 8.2953,32.67114 h 4 c 3.9601,18.26776 17.6713,36.05121 36,42 l 8,8 8,16 h 6 c -15.0626,12.53034 -42.1614,4.11994 -60.4498,7.02576 -9.0454,1.43719 -19.0532,7.17102 -28.1625,5.86084 -8.1623,-1.17401 -15.061,-5.99445 -19.3877,-12.8866 l -12,-2 h -1 -1 v 36 c -17.5009,2.67627 -51.8229,-5.12866 -64,10 h -1 -1 c -7.8568,-5.89898 -10.163,-16.36682 0,-22 l -0.6195,-27.6463 -4.6696,-14.67413 14.5108,-10.98047 24.3807,-21.05774 14.3976,-13.64136 c 0.4909,-7.39727 1.6322,-13.55804 8,-18 l -2,-2 v -1 -1 c 3.631,-6.01446 4.944,-13.89618 6.9622,-20.58508 5.6931,-18.86951 10.4733,-32.21704 5.7851,-51.73413 -1.6274,-6.77472 -1.1419,-10.84735 -6.7473,-15.68079 h -1 -1 c -8.7462,15.26093 -7.5444,37.87891 -12.277,54.92206 -5.2508,18.90936 -17.2095,36.38013 -21.723,55.07794 l -22,16 -2,8 c -11.8088,3.81208 -19.0469,7.98987 -32,8 -2.8348,-9.01458 -5.6042,-20.44885 -16,-22 l -6,22 c 8.8935,2.83808 15.6407,9.89337 20,18 h 8 c 1.8243,10.7591 4.3133,22.6496 0.6821,33.41394 -1.9924,5.90613 -6.4213,10.71778 -8.6821,16.58606 -14.9855,2.0752 -28.8207,2.71833 -42.3972,-5.38812 -15.1123,-9.0235 -24.6458,-26.5058 -39.6028,-36.61188 5e-4,8.15973 -2.2073,19.33448 6,24 l -2,6 -6,-6 c -6.0372,-1.9234 -10.0738,-6.18963 -15.6537,-8.88501 -16.6718,-8.0534 -48.4511,-14.30859 -58.3463,6.88501 -7.8629,3.98999 -12.8566,11.33515 -14,20 l -10,12 h -1 -1 c -14.8853,-19.21539 -50.8997,-8.20575 -66,-30 l -16,-2 v -8 l -10,-2 v -4 l -16,-4 v -4 l -22,8 -8,14 -10,2 v 4 c -5.6536,1.09558 -9.2467,2.79651 -12,8 h -4 l -12,10 c -3.7095,6.8512 -8.2678,10.6211 -16,12 l 2,-16 c 8.2923,-2.28308 10.8104,-9.12024 16.8694,-14.41296 9.9655,-8.70496 28.9181,-15.81299 35.1306,-27.58704 h 6 c 6.2228,-10.40442 17.0777,-9.93066 18,-24 h -14 v 4 c -15.0365,6.56916 -28.0798,25.10034 -44,28 v 4 l -12,4 v 4 h -6 l 2,-2 v -1 -1 l -2,-8 h 6 l 2,-10 v -1 -1 h -2 v -1 -1 l 2,-4 c 12.2722,-6.76812 13.7667,-15.73913 30,-16 6.8188,-12.95404 7.7592,-25.12567 7.7592,-40 0,-8.39673 -2.4676,-15.7326 0.2408,-24 v -1 -1 c -7.2788,-15.03766 -6.4989,-33.60254 -8.3201,-49.81353 -0.7211,-6.41913 -4.2803,-11.58686 -3.6799,-18.18647 h 1 1 v 2 h 1 1 14 l 8,-16 -30,-2 c -4.7116,-8.28973 -16.5934,-6.15301 -24.7765,-8.47455 -5.0062,-1.42028 -8.6032,-5.29492 -13.2235,-7.52545 l -2,-12 h -4 v -4 h -4 l 0.8326,-39.5805 9.1674,-14.4195 h 6 c 6.841,-9.80584 21.3618,-10.07666 28,0 l 26,8 c 4.4098,-19.70495 -15.9344,-26.93499 -20.9204,-43.47119 -3.0436,-10.09424 0.1281,-22.80206 -1.1573,-33.46374 -1.0422,-8.64478 -6.4115,-15.64832 -7.4854,-24.2544 -0.7747,-6.20746 1.9636,-18.68225 -4.0023,-22.83264 -5.1023,-3.54968 -12.9036,-0.64319 -18.5308,-0.36456 -8.1051,0.4013 -15.9542,-2.45703 -23.9038,-3.61347 -6.6226,-12.17108 -13.3828,-1.03277 -12,8 l 34,16 v 4 h 4 l 10,40 v 1 1 c -2.6145,6.79749 -1.1628,13.62494 2,20 v 1 1 c -11.4843,7.82251 -23.9476,17.68573 -38,20 -0.5225,6.99652 -1.943,12.01154 -8,16 -5.1092,21.3645 -2.4334,41.22498 6.837,60.48523 4.8747,10.12775 9.0473,18.70954 21.163,19.51477 3.39,6.99225 8.7186,7.78308 16,8 l 2,8 h 6 l 7.674,60.14002 0.326,55.85998 h -14 l -2,8 h -4 l -2,8 c -4.7876,0.63867 -7.5813,1.69226 -10,6 h -4 c -1.5297,8.37 -5.8904,14.03833 -8.6546,21.74817 -4.1212,11.49512 -7.292,28.01636 -7.3454,40.25183 -11.2562,5.05866 -17.855,22.39722 -18,34 l -14,18 c -2.074,8.60981 -1.6946,16.99854 -10,22 -1.0001,5.57093 0.056,11.17951 -0.9441,16.68891 -1.131,6.23114 -5.2054,11.42315 -6.3399,17.70996 -1.8947,10.49884 -0.716,21.96887 -0.716,32.60113 0,20.90025 -1.5616,38.19255 8,56.99995 11.1366,6.7073 5.9238,17.8492 8.8777,28.4057 2.2937,8.1975 6.9394,12.3438 7.1223,21.5943 22.7341,8.8527 -15.3861,38.6592 8,50 -7.5576,6.6032 -18.2994,11.0103 -24.3862,19.0827 -6.4436,8.5454 -11.6983,24.7556 -21.0232,30.2247 -9.1075,5.3417 -18.4802,2.2769 -28.1278,3.7892 -10.5482,1.6535 -22.2339,7.4161 -32.4628,10.9034 v 2 l 74,4 c 0.2153,6.8997 0.7821,11.8418 8,14 4.6418,10.6195 12.6232,15.6634 24,16 2.9375,9.85 14.4242,8.0066 20,16 l 43.0885,3.5067 76.0107,-3.2735 42.7055,-0.5692 40.3263,-13.2503 17.869,-4.4137 h 1 1 c 12.1549,4.7931 30.3986,-2.0306 36,-14 h 8 v -4 l 42,-6 h 1 1 c 7.704,3.1205 14.9809,2.3804 20,10 18.6922,0 37.4307,1.1337 55.7447,-3.1969 7.4118,-1.7525 17.1136,-9.9343 24.2554,-9.937 5.481,0 10.7799,4.9187 17.034,5.0839 8.3076,0.2196 33.7251,-3.2995 32.9659,10.05 v 1 1 l 2,12 h 4 l 20,22 24.6047,10.417 59.3953,1.583 4,12 c 6.5699,4.4589 10.0628,12.4755 17.1974,16.2414 14.9607,7.8967 32.3702,8.0583 48.3199,11.802 12.2999,2.887 23.9856,7.7336 36.7512,9.4829 34.3874,4.7121 70.7045,1.372 105.0046,-2.9197 13.4024,-1.6769 28.1623,1.8939 41.2552,-1.4397 6.7606,-1.7213 11.3327,-7.7521 18.0462,-9.8817 10.1094,-3.2071 20.9051,-3.1801 31.1643,-5.7007 9.3217,-2.2902 17.0769,-8.6726 25.98,-11.9871 5.2896,-1.9691 11.1041,-1.2581 16.3959,-3.2129 10.4623,-3.8643 18.6427,-12.4223 29.8853,-14.3845 l -2,8 v 1 1 l 2,4 c 20.6544,-3e-4 40.4832,-5.3509 60,-12 3.3058,12.3975 11.8997,15.4248 24,16 v -14 c -26.3557,-10.759 -56.6495,-2.477 -84,-6 0.065,-5.8327 6.4818,-12.6041 0,-16 v 6 h -16 v -6 l 16,-2 v -1 -1 l -4,-10 c -12.9872,7.6095 -24.7595,13.9608 -40,14 2.5376,-13.0816 5.9302,-21.3417 -8,-28 h -1 -1 c -6.1799,2.8938 -10.1889,5.0789 -12,12 -4.3496,0.015 -7.806,-0.1848 -10,4 h -1 -1 c -5.9036,-7.2058 -16.7997,-1.0565 -20,-12 l -44,-14 c -2.6326,17.5598 12.483,17.8208 25.2421,23.4269 4.7345,2.0802 7.9865,6.3723 12.7579,8.5731 2.4944,5.7731 16.275,11.8692 13.4891,19.3172 -1.4918,3.9884 -6.8867,4.4904 -9.7376,7.1324 -3.1469,2.9161 -3.8036,7.6765 -7.6147,9.9922 -13.8617,8.4224 -38.3635,9.1161 -54.123,9.5723 -8.0121,0.2318 -16.944,10.5734 -22.0138,1.9859 -5.3986,3.7919 -9.5477,7.7593 -16,4 h -1 -1 c -12.5212,4.0993 -19.5081,-4.0508 -31.2059,-5.6494 -23.0637,-3.1521 -46.7464,-4.9563 -69.5431,-8.9324 -6.7037,-1.1692 -12.3464,-4.7031 -19.251,-5.4182 l -2,10 -18,-6 -6,-12 c 1.5507,-0.3012 3.1057,-0.5492 4.603,-1.0726 15.2678,-5.3368 -8.3186,-10.0359 -12.603,-10.9274 -0.1155,-3.807 -0.4869,-6.1582 -4,-8 v -1 -1 c 3.8912,-2.0272 5.4364,-5.7695 6,-10 l 8,-8 c 10.168,-0.919 16.9138,-6.9577 26.3535,-9.1872 10.0668,-2.3776 20.7201,-0.052 30.8221,0.5282 9.454,0.5429 17.0486,-2.9289 22.8244,6.659 l 18,8 10,16 h 6 c 1.7698,6.7551 5.2072,9.076 12,10 v -4 h 4 v -4 h -4 c -0.9004,-6.7583 -10.1031,-16.9278 -16,-20 v -1 -1 l 14,-2 c 3.6132,7.1221 10.7505,12.8383 18,16 l 6,6 c 1.516,3.4656 10.2872,17.4091 14.5305,9.6048 5.5783,-10.2596 -6.1897,-17.6839 -7.4034,-26.8593 -1.7208,-13.0085 13.9721,-15.0845 22.8729,-18.7455 v 4 l 26,-8 c 2.3165,-11.3943 19.622,-15.214 30,-14 h 1 1 c 8.1136,-2.6965 19.676,-5.8812 28.1086,-6.7564 7.7646,-0.806 16.0564,1.2185 22.4555,-4.842 5.4619,-5.1729 1.0843,-13.0816 -5.6789,-13.5965 -11.3594,-0.865 -23.179,3.9071 -32.8852,9.1949 h -1 -1 c -8.9775,-3.446 -15.4237,1.7859 -23.8519,4.1662 -6.8833,1.9439 -13.2617,1.2509 -20.1481,-0.1662 v -4 h -38 c -0.8807,-13.3005 -18.5561,-23.3789 -29.5532,-12.3287 -8.9939,9.0374 6.5492,15.4634 13.5532,16.3287 v -4 l 14,2 v 2 c -4.5038,2.3681 -6.3937,5.2321 -8,10 -8.4693,0 -18.6079,1.5352 -26.8749,-0.3486 -4.8326,-1.1012 -7.9587,-5.1295 -13.1847,-5.5647 -23.5405,-1.9602 -43.5798,-2.996 -66.3761,-9.3452 -5.003,-1.3933 -10.4274,0.2459 -15.3408,-1.3296 -5.2342,-1.6783 -8.2178,-6.1966 -12.2235,-9.4119 v -1 -1 l 6,-6 v -1 -1 c -8.8387,-12.5602 -29.4608,-22.3845 -38,-4 l -21.55,-8.6131 -30.45,-25.3869 v -2 l 12,-2 16,-14 c 9.2614,-4.0393 26.9881,-28.0061 34,-10 8.2319,4.6828 11.8775,9.688 22,10 3.5218,6.0022 9.646,6.6225 16,8 v 8 c 22.4442,0 44.387,4.4807 63.7584,16.6797 5.7287,3.6076 8.2976,10.0422 14.2416,13.3203 7.1628,14.8206 24.0579,-1.9331 30,-10 h 1 1 l 18,2 c 3.2041,7.3304 8.6696,12.7959 16,16 v 6 l 18,-8 v -4 l 30,-12 v -4 l 36,-10 c 0.1879,7.6247 0.7147,14.1332 8,18 v 4 l 24,18 c 7.1208,14.2959 17.1187,25.0868 34,20 v -1 -1 l -10,-14 c -4.4963,-3.1932 -5.516,-6.6358 -6,-12 -9.3157,-4.9419 -16.9711,-11.0372 -18,-22 -8.0706,-5.5193 -17.3738,-17.397 -22,-26 l -6,-2 h -1 -1 l -8,-2 v -1 -1 c 6.9101,-10.4419 9.4086,-20.9684 22,-26 1.0897,-9.0387 6.24,-15.279 8.667,-23.7285 1.2899,-4.4908 0.5543,-10.8005 3.698,-14.5345 5.7814,-6.867 19.0583,-0.3561 21.635,6.263 l -8,8 24,-8 c 3.948,-5.6936 9.6555,-7.7746 16,-10 5.0558,-10.2129 16.0867,-30.7803 12,-41.99995 v -1 -1 h 2 v -1 -1 h -2 v -1 -1 l 2,-2 c -5.7081,-4.0755 -5.8876,-9.40027 -6,-16 12.0657,0.22107 41.0811,15.04511 36,-8 h -4 c -2.7394,-8.61242 -7.5393,-16.23462 -16,-20 -4.5427,-9.10669 -13.9561,-19.50573 -24,-22 -2.2783,-4.74322 -4.9308,-6.69104 -10,-8 -3.1317,-5.90515 -7.5997,-7.32568 -14,-8 l -26,-22 -14,-4 v -1 -1 l 14,-4 c 8.5858,-11.94635 27.2412,-15.44238 34,-30 l 16,-6 v -4 c 8.1505,-3.32238 17.0317,-8.81347 25.9692,-4.14929 5.3368,2.78504 8.7597,8.83991 14.0308,12.14929 h 1 1 l 18.5574,-22.79608 23.4426,-13.20392 8,-10 8,-6 c 2.5723,-10.59619 10.0242,-17.69055 15.9712,-26.40686 7.7759,-11.39679 17.6262,-31.9732 18.0288,-45.59314 17.3397,-10.01562 16,-39.18457 16,-56 h 4 l 2,-4 v -1 -1 c -4.7727,-14.40368 -3.5879,-35.96753 -3.6252,-51.15704 -0.013,-5.27649 2.4574,-9.34082 1.6252,-14.84296 h -4 c 0,-26.90686 -5.0146,-53.45685 -14.2458,-78.79809 -2.9058,-7.97663 0.706,-18.39276 -7.7542,-23.20191 -3.0413,-13.15967 -10.5662,-24.16827 -17.9182,-35.138 -3.418,-5.09979 -4.3142,-9.80633 -10.0818,-12.862 v -6 l -16,-10 c -0.3993,-13.47766 -7.8787,-19.41436 -20,-24 -4.1267,-8.07837 -16.7274,-18.58471 -24.7838,-22.73016 -7.4517,-3.83429 -16.2617,-6.12457 -21.2162,-13.26984 -23.5884,-5.64721 -44.662,-18.07733 -68.2235,-23.65136 -7.588,-1.79511 -15.9978,0.46966 -23.7169,-0.52362 -5.0352,-0.64795 -8.3411,-4.88355 -13.1847,-5.63715 -7.2814,-1.13287 -13.888,1.46393 -20.8749,1.46393 -7.8908,0 -17.176,0.67883 -24.9762,0.24786 -8.4777,-0.46844 -14.615,-3.86175 -21.0238,4.10034 h -1 -1 v -2 h -1 -1 v 2 h -1 -1 l -11.0034,-0.0138 -28.9966,0.0138 v 4 l -43.4415,10.99329 -30.4304,9.05646 -42.1281,27.95025 c -3.5604,18.48328 -29.0567,25.44458 -34,44 h -4 v 4 h -4 v 6 c -10.5294,6.05622 -22.9225,32.26404 -24,44 -6.2263,3.53717 -5.3132,9.22888 -7.581,15.28937 -2.5096,6.70679 -7.0865,11.42786 -8.419,18.71063 -6.4832,-2.40948 -12.0392,-3.97491 -16,-10 l -34,-8 -4,-10 c -5.3642,-0.48413 -8.8066,-1.50354 -12,-6 -12.6581,0 -26.3962,1.88336 -38,-4 v -1 -1 c 4.1848,-2.19403 3.985,-5.65051 4,-10 9.746,0 28.3837,3.87995 34,-6 18.7955,4.388 40.6685,-3.88452 60,-4 l 6,-10 v -1 -1 l -6,-12 -8,-6 -8,-2 c -3.5218,-6.00207 -9.6462,-6.62249 -16,-8 v -4 c -18.6815,-4.47003 -37.8878,-10.05584 -57.1712,-11.69824 -19.8349,-1.68933 -44.383,-0.5022 -62.8288,-8.30176 v -1 -1 l 8,-4 v -4 l 40,-20 c 5.5136,-8.513 16.7734,-12.66424 26,-16 l 10,-18 v -1 -1 l -10,-18 c -28.2068,-4.60772 -56.3284,-14.21631 -84,0 h -1 -1 l -20.9968,-1.99572 -23.6354,2.58776 -8.4929,5.05854 -30.8749,2.34942 c 3.1051,-11.60632 9.1927,-27.74206 20,-34 l 8,-20 c 15.4325,-7.48401 6.8461,-28.41967 -6.7178,-32.64892 -14.312,-4.46253 -33.4611,5.17248 -47.2822,8.64892 m -120,28 -16,10 -8,6 -8,18 c -13.0173,3.58252 -12.5445,17.09876 -22,24 v 8 h 6 v 6 c 15.0787,-0.45086 15.7119,-9.52093 20,-22 h 4 l 2,-8 6,-8 16,-10 c 0.4841,-5.36438 1.5034,-8.80664 6,-12 2.2068,-5.47851 4.8493,-9.02246 10,-12 l -2,-8 c -5.8924,1.36963 -10.8185,2.49658 -14,8 m -68,16 c -3.3013,5.32679 -8.2532,9.96497 -10.7641,15.7063 -4.4745,10.23084 -5.3681,21.26209 -8.2937,31.82569 -1.8347,6.62457 -6.3172,11.41967 -6.7639,18.56048 -0.7862,12.56818 7.329,27.04492 22.1688,22.76666 5.7896,-1.66912 7.1098,-6.43786 5.4611,-11.7821 -5.3359,-17.29584 -3.4531,-34.10547 -1.5015,-51.94885 1.0059,-9.19641 4.5171,-15.74683 1.6933,-25.12818 h -2 m -64,88 -4,-8 h -1 -1 l -4,16 10,4 12,14 h 1 1 v -2 h 1 1 v 2 h 1 1 6 1 1 c 6.0504,-10.55761 6.463,-30.69439 2,-42 v -1 -1 l 2,-2 c -3.7767,-0.61023 -9.0162,-2.21185 -12.5056,0.0891 -4.1315,2.72437 -3.1564,9.13428 -4.9145,13.19983 -2.289,5.29285 -7.4089,6.2226 -12.5799,6.71106 m 980,48 6,14 c 13.1697,5.78711 22.9545,23.21167 29.8761,35.17444 4.2906,7.41571 10.0907,14.28064 12.8258,22.54541 1.8975,5.73377 0.645,11.97705 2.6454,17.68201 4.0271,11.48547 10.4809,22.00055 13.9913,33.99231 3.6896,12.60364 4.0697,27.50317 4.6614,40.60583 h -10 c -0.051,-23.67004 -14.3182,-43.10028 -18,-66 -7.2853,-3.86688 -7.8123,-10.37524 -8,-18 l -20,-16 -2,-8 c -6.9003,-2.98144 -12.3572,-8.27545 -19.1453,-11.51489 -8.0876,-3.85962 -16.56,-3.5036 -20.8547,-12.48511 l -8,-8 c -6.0176,0.24811 -10.354,0.88648 -14,6 11.5251,6.35724 17.496,22.3631 23.6951,33.26288 4.7132,8.28729 7.5136,17.31842 -5.6951,14.73712 -1.8137,-6.53656 -3.2848,-11.41705 -10,-14 -8.2119,-15.55792 -22.8779,-34.71753 -38,-44 -7.2443,-12.26184 -10.7025,4.23096 -12,10 5.6194,0.82679 8.35,2.43842 10,8 h 4 l 4,6 v 1 1 l -2,2 10,2 v 1 1 l -4,4 h -1 -1 l -4,-8 h -6 c -5.3827,-15.18738 -24.3717,-26.87494 -40,-24 v 6 c 7.4321,4.09949 18.1539,16.41846 22,24 l 8,2 2,8 h 6 v 4 l -14,2 -26,-32 c -5.884,-3.07788 -8.136,-7.82885 -10,-14 -4.2614,-1.79419 -9.7468,-7.14929 -14.5787,-6.23102 -9.5105,1.80738 -4.4811,16.61652 0.5787,20.23102 l 2,10 h 6 l 10,22 24,20 v 1 1 c -9.9772,2.84741 -21.0153,-2.96313 -26,-12 h -6 l -10,-16 c -12.2496,-5.27478 -21.9967,-14.6817 -32,0 h -1 -1 l -4,-8 -8,-8 -14,-10 -2,-8 h -6 c 0.6937,15.86627 12.5809,25.93592 18,40 l 20,10 14,10 v 1 1 l -16,6 c -2.9028,6.6366 -7.3633,11.09717 -14,14 -1.6726,10.74793 -5.7873,21.00495 -5.8651,32.01166 -0.027,3.77655 -0.03,10.36267 4.4972,11.7561 3.7503,1.15442 7.0088,-2.13128 7.2446,-5.67962 1.1181,-16.82215 2.3133,-34.82813 18.8425,-44.88227 7.0606,-4.29473 16.3522,-3.25775 24.2715,-3.19079 32.1461,0.27185 55.0652,23.77368 62.1632,54.45898 2.5753,11.13349 0.8461,24.14777 0.8461,35.52594 4.7209,1.37946 6.6205,3.27918 8,8 l -4,-2 v 4 h -4 l -2,28 -8,2 v 1 1 10 l -8,2 v 6 l -8,8 c -13.5807,0.59497 -19.8969,10.35242 -31.7517,14.64868 -19.7097,7.14295 -46.0416,-5.87304 -54.2483,-24.64868 -10.2593,6.58869 -0.1015,15.76728 8,18 -1.8376,6.55005 -5.5098,8.73603 -12,10 1.8389,13.92188 7.108,21.67768 4,36 h -4 c -1.8085,12.25257 -6.6261,16.02173 -18,20 v 4 l -40,-8 -10,-16 h -6 c 0,-10.93615 -0.525,-25.68182 4.9306,-35.58539 2.4205,-4.39386 16.0201,-10.76782 15.9586,-14.38824 -0.092,-5.4043 -11.392,-3.39728 -14.1592,-2.39905 -9.3197,3.362 -15.374,10.75763 -16.73,20.37268 -18.0038,-6.5907 -46.7828,-23.9143 -38,-48 v -1 -1 c -12.3824,-7.0169 -8.0417,-26.76165 -7.9952,-38.99658 0.026,-6.77161 -0.5088,-13.30621 5.9952,-17.00342 1.7838,-7.99548 3.0571,-14.16504 0,-22 h -1 -1 l -4,18 h -4 c -5.0145,23.3692 -7.9355,48.96808 -3.2217,72.65625 1.7587,8.83795 6.6602,16.7442 9.2217,25.34375 h 4 l 6,12 c 5.3773,1.43506 9.2012,2.9986 12,8 14.5588,3.36859 15.9795,9.9054 16,24 h 6 c 3.988,20.72736 25.3132,28.97687 42.6444,34.57392 5.9543,1.92291 10.7207,5.31738 17.2591,4.98138 9.9538,-0.51147 17.9521,-7.0199 28.0965,-7.5553 l 2,-8 h 4 l 6,-16 h 4 l 4,-10 v -1 -1 c -3.6409,-11.28485 10.7437,-9.98925 18,-10 3.808,-17.55517 13.0297,-14.5169 27.2023,-21.6933 10.1609,-5.14501 17.4084,-11.04449 28.7977,-14.3067 v -4 l 16,-10 11.4719,-39.22497 2.5281,-30.77503 v -1 -1 c -7.3573,-6.02752 -3.1392,-19.59717 -4.1742,-27.94061 -0.7998,-6.44739 -5.2772,-9.82874 -7.2338,-15.42718 -1.4749,-4.2204 0.5064,-9.15778 -1.542,-13.23011 -2.5399,-5.04974 -6.7442,-4.81006 -7.05,-11.4021 l 8,8 c 15.0319,3.71179 25.7651,17.71967 38,26 l 2,8 h 4 c 1.8176,7.61866 0.1875,16.56623 2.592,23.7757 1.2057,3.61511 4.8952,5.42901 6.4826,8.78192 1.6643,3.51514 0.3098,7.59186 1.5174,11.21808 1.5496,4.65314 6.105,7.30359 7.0928,12.42401 2.1076,10.92517 0.4131,22.81781 2.8167,33.60394 1.93,8.66138 5.1419,31.93433 -2.5015,38.19635 v 1 1 c 3.9385,9.97681 1.7313,21.75074 0,32 h 4 c 4.1465,6.54084 14.5082,7.45374 17.5591,13.26697 2.5635,4.88458 -3.8832,14.09613 -5.5591,18.73303 -7.595,2.94495 -7.2921,9.06794 -11.1995,15.27301 -4.5256,7.18708 -14.5759,16.46698 -22.8005,18.72699 v 4 l -12,4 c -2.368,4.50397 -5.2321,6.3938 -10,8 v 4 c -12.3274,7.55115 -23.6066,16.36182 -38,20 -4.1443,7.42005 -12.6938,8.83344 -20,12 h -1 -1 l -34.7941,0.47339 -17.2059,1.52661 h -1 -1 c -9.3693,12.06281 -28.3347,8 -42,8 -6.6937,-11.10693 -17.8649,-4.71362 -28.4747,-6.96435 -7.6322,-1.61902 -16.3379,-2.13477 -23.6734,-4.59546 -16.4594,-5.5213 -31.2857,-15.25336 -47.8519,-20.44019 -5.7071,-9.96069 -19.3433,-19.76483 -28.5749,-26.578 -6.1936,-4.57098 -12.0499,-5.90662 -15.4251,-13.422 -12.4296,-7.06567 -0.6983,-23.18591 -20,-24 l -6,-16 h -4 c -3.134,-29.169 -19.1754,-54.64233 -20,-84 h -4 c 0,-8.38244 -1.3983,-18.27173 0.8777,-26.40564 1.3332,-4.76489 5.3774,-8.01275 6.4583,-12.92816 1.871,-8.50897 -0.4883,-16.22796 8.664,-20.6662 0.1158,-9.58716 3.8381,-14.89184 6.6949,-23.58172 3.5521,-10.80463 6.2704,-23.02368 11.7252,-33.10144 5.0387,-9.3089 12.5675,-16.34839 13.5799,-27.31684 7.841,-5.12951 13.4426,-16.78845 17.9951,-24.89117 3.6475,-6.49207 5.3507,-12.92816 14.0049,-11.10883 v 1 1 6 1 1 h -2 v 1 1 h 2 v 1 1 h -2 v 1 1 l 4,6 h 1 1 c 3.2533,-4.04297 8.8342,-6.38769 11.0746,-11.36779 3.3652,-7.48035 -0.3895,-20.57996 10.9254,-22.63221 v -4 h 4 v -18 c -8.2391,-1.70819 -24.6614,-8.57281 -32.3472,-6.23132 -14.7187,4.48413 -22.0614,21.19952 -37.6528,22.23132 -1.9457,12.07587 -7.0358,15.41638 -18.8922,16.17804 -2.9505,0.18952 -7.6174,1.2912 -10.1358,-0.81189 -4.3369,-3.62195 2.2074,-8.00226 5.028,-9.36615 1.1742,-9.02502 6.6959,-21.29516 16,-24 v -6 l 16,-10 8,-14 12,-2 v -4 c 8.5394,-2.12103 10.7933,-7.47821 17.022,-12.768 8.2536,-7.0094 20.5938,-16.10352 30.978,-19.232 4.3177,-9.02954 14.0326,-10.39959 23.1122,-11.8471 14.1745,-2.25977 28.8498,-3.24616 42.8878,-6.1529 2.3799,-7.95404 8.605,-7.93359 16.0078,-7.98889 11.8461,-0.0885 23.9786,0.78729 35.7702,-0.49756 43.7871,-4.77118 92.92,9.32648 130.4201,31.72693 5.5884,3.3382 9.3513,8.8902 14.8812,12.37903 4.8012,3.02905 10.7332,3.72565 15.3482,6.93817 7.196,5.00922 10.7225,10.62384 19.5725,13.44232 m -868,36 c -10.3547,5.68592 -14.3116,10.99579 -4,20 h 1 1 v -2 h 1 1 c 3.587,3.44751 15.3522,-0.89105 20,-2 v -4 c 5.7821,-6.1e-4 12.634,0.90412 18.2088,-0.88672 6.0076,-1.92987 2.6667,-7.00512 -1.7721,-8.27179 -11.3075,-3.2268 -23.3645,0.78717 -34.4367,-2.84149 h -2 m 572,4 c -2.3973,14.19232 -2.0637,26.18183 2,40 h 8 v 4 h 10 l -3.3506,-22.2832 -2.6494,-23.7168 -14,2 m 48,24 14,8 c 2.5227,9.45917 20.8778,26.10877 31.7689,20.40723 12.758,-6.67877 -9.4262,-12.35425 -13.7689,-12.40723 -2.2341,-5.0003 -4.9996,-7.76581 -10,-10 l -6,-6 c -2.9979,-10.29278 -14.2896,-11.53729 -16,0 m 183,-8 3,4 h -4 l 1,-4 m -763,20 v -1 c -5.1886,-6.06476 -9.9224,-3.76776 -16.8749,-5.34863 -5.865,-1.33362 -17.668,-8.21417 -18.8987,3.44586 -1.3073,12.38733 29.8039,7.1629 35.7736,2.90277 m 414,4 c 1.8775,-12.97918 11.0686,-3.26782 0,0 m 108,40 h -4 c -2.9078,10.62506 -11.0186,20.7981 -8,32 h 1 1 l 4,-14 c 13.1595,-6.15851 13.7274,-23.28503 28,-30 v -4 l 24.0845,-7.46716 27.9155,5.46716 c 1.9355,7.79438 6.6975,12.80561 14,16 l 2,16 c 17.9782,-8.7138 -3.639,-36.26709 -16,-40 v -6 c -28.857,-4.87433 -61.0278,1.99524 -74,32 m 214,-16 v 6 l -6,-6 h 6 m 91,16 h 1 l 4,20 c 7.7898,4.1341 8.0601,10.80896 4,18 h -1 -1 l -4,-16 h -4 l -6,-12 v -1 -1 l 7,-8 m -181,110 14,-2 c 3.2258,-8.42883 10.6661,-19.98047 8.2402,-29.33276 -3.1115,-11.99573 -19.2161,-26.18622 -29.9728,-13.26721 -4.8825,5.86389 -4.8231,15.2135 -3.9244,22.40136 1.0669,8.53211 8.5336,14.36622 11.657,22.19861 m -64,-46 -4,14 h -4 l -4,24 v 1 1 l 10,6 v 6 h 16 l 6,-6 2,-32 -20,-14 h -2 m 76,14 -2,8 c -3.513,-1.84179 -3.8845,-4.19299 -4,-8 h 6 m -67,8 5,2 -2,6 h -4 l 1,-8 m -443,64 v 4 h 2 v -4 h -2 m -10,60 h 10 v 4 c 10.477,-4.43011 20.8117,-4 32,-4 v -4 c 8.9529,-2.36194 15.2133,-6.49621 10,-16 h -1 -1 c -17.0526,12.9748 -33.101,13.44849 -44,-6 v -1 -1 c 2.9212,-7.33661 3.3849,-16.27575 2,-24 -16.6115,4.96588 -8.8235,39.39472 -8,52 m 530,-44 -4,6 h -1 -1 l -4,-4 v -1 l 10,-1 m 194,60 v 8 h -6 l 6,-8 m -16,18 -6,8 c -2.2783,4.74335 -4.9307,6.69098 -10,8 l -10,14 h -1 -1 -4 -1 -1 l -10,-2 v -1 -1 l 22,-18 8,-8 10,-8 c 10.0808,-1.5133 16.6633,4.70691 4,8 m -702,50 c 1.5186,10.21265 -5.7873,17.51856 -16,16 v -4 l -2,2 h -1 -1 l -12,-6 h -1 -1 c -2.0271,3.89118 -5.7696,5.4364 -10,6 v 4 c 13.0201,5.62494 36.9712,14.51526 38,30 -8.0417,1.94599 -19.1583,4.5174 -24,-4 h -16 l 8,22 8,2 v 14 h -32 l -2,-22 h -2 c -7.6634,13.35138 -27.4129,15.45056 -36,28 -25.4831,6.2085 -51.5479,15.58057 -78.5446,9.19336 -11.1322,-2.63379 -21.4799,-9.93652 -31.4554,-15.19336 v -16 c 8.4943,-2.62957 14.5949,-7.74939 18,-16 l 16.1048,-5.54065 18.226,4.78339 32.3803,0.11041 47.2889,-21.35314 3.4346,-26.17315 12.5654,-19.82685 c 13.965,-0.85992 30.6271,-4.7528 43.8644,2.06781 7.6402,3.93665 12.4482,11.79853 20.1356,15.93219 m -212,-18 v 14 c -7.0723,3.30262 -13.7599,7.28589 -18,14 l -16,6 v 4 h -4 l -8,8 v 4 h -4 v 4 l -6,6 -20,6 -2,-8 v -1 -1 l 10,-10 h 4 c 4.3734,-9.36371 13.9457,-10.93176 21.6684,-16.66345 14.5859,-10.82556 22.2298,-28.10937 42.3316,-29.33655 m 548,6 c 4.4083,8.15833 19.0048,14.97266 18.5264,24.91443 -0.2496,5.18842 -4.6397,10.31299 -6.5264,15.08557 -18.4361,11.07984 -5.4254,43.40967 -30,46 -1.6591,-4.38708 -3.6129,-6.34082 -8,-8 l -8,-8 c -1.9436,-5.37988 -4.7823,-7.81164 -10,-10 v -4 h -14 l 8,8 8,14 c 4.7209,1.37946 6.6205,3.27906 8,8 l 16,8 v 8 c -14.4266,-0.0655 -35.5322,-10.0683 -42,-24 h -14 c -4.893,-6.99292 -11.4465,-7.48547 -16,0 h 6 c 3.7614,10.58875 13.8419,15.20679 24,18 -5.3524,10.08362 -16.0256,6.53443 -25.2925,9.55695 -5.5864,1.82208 -12.9667,6.55163 -17.7539,0.47699 -6.621,-8.40161 -0.6628,-29.64099 -2.4345,-40.33185 -2.2258,-13.43121 -6.7462,-26.80841 -9.8785,-40.07526 -1.2137,-5.14038 -5.0398,-11.34155 -2.722,-16.6322 4.7313,-10.80017 21.7367,-8.99151 31.0814,-8.99475 12.9651,-0.005 26.9893,0.90222 39.8267,-0.41345 10.0441,-1.02942 19.9646,-5.04114 30.1822,-4.6341 5.8756,0.23407 11.1617,4.03882 16.9911,5.04767 m -324,10 -4,-10 c 6.4311,0.19507 11.3779,6.13208 4,10 m 430,0 v 1 1 c 9.8927,6.23267 21.0549,11.87781 32.9949,11.82215 5.5263,-0.0258 10.6162,-2.16822 16.0609,-2.40424 11.7408,-0.50885 18.6491,5.57355 24.9442,-7.41791 v -1 c -10.7375,-12.55066 -36.7768,-1.95141 -50.9729,-3.08654 -8.057,-0.64429 -15.1513,-3.83124 -23.0271,0.0865 m -638,6 v 12 c -4.3167,1.11139 -6.3028,4.20288 -9.7454,6.77698 -6.5798,4.92004 -24.0889,12.33081 -23.7168,22.21918 0.1988,5.28058 7.2764,6.80816 9.4622,11.00384 l -16,10 c -8.1732,17.69245 -21.4494,16.09839 -38,16 l -6,-16 h 6 v -6 l 12,-12 50,-36 c 3.5036,-6.60229 8.9527,-7.62488 16,-8 m 94,22 -12,2 v 4 c -14.8685,3.55579 -31.0481,2.52558 -46,0 -2.3968,-6.08441 -0.2216,-15.65478 4,-6 h 26 l -6,-12 c 11.9066,-1.84112 27.5414,0.31995 34,12 m 238,16 h -62 l -8,-22 c 16.1188,0.0507 31.6389,4.43933 47.9037,3.63867 25.1824,-1.23968 51.6431,-7.18914 76.9363,-4.87976 8.2081,0.74952 10.5638,11.04175 6.0923,17.10535 -3.5256,4.78076 -11.3053,0.78748 -16.0376,0.38342 -11.591,-0.9898 -37.3852,-4.75988 -44.8947,5.75232 m -447,-22 c 10.3936,9.76953 8.0826,15.81775 10.1519,28.58155 1.9404,11.96899 4.8961,21.14282 2.8481,33.41845 -4.7877,-0.63867 -7.5812,-1.69226 -10,-6 l -22,-2 10,-38 c 6.4471,-3.88031 7.5457,-9.00378 9,-16 m 365,14 c 1.6934,9.68598 -3.1885,17.0199 -6,26 h -4 l -4,14 h -14 l -2,-8 c -3.0681,-0.4563 -6.1725,-0.88598 -8.2199,-3.49084 -2.982,-3.79389 -2.4806,-9.00983 -3.047,-13.50708 -1.0524,-8.35517 -8.3225,-20.65906 1.6623,-26.75733 5.8127,-3.55004 11.5179,0.95948 16.5886,3.58033 7.1348,3.68762 15.4277,5.56836 23.016,8.17492 m 323,-12 3,4 h -4 l 1,-4 m 25,6 v 4 c 8.2529,1.79004 14.6042,2.64655 16,12 l -2,-2 h -1 -1 c -7.8972,3.1073 -15.8684,0.87354 -24,0 l -10,-10 v -1 -1 l 2,-4 20,2 m 155,12 h 1 l 10,18 c 4.7681,1.60627 7.6318,3.49597 10,8 8.6421,2.08649 20.0503,7.73328 24,16 10.4861,0.68561 17.7927,6.37464 22,16 h 8 v 8 1 1 l 2,4 c -11.8505,2.1308 -26.184,1.73462 -37.4252,5.28882 -9.998,3.16126 -25.9404,13.44324 -36.279,11.9057 -5.7307,-0.85223 -9.5821,-6.26153 -14.2958,-9.19452 v -4 c -16.8771,-2.4032 -21.9668,-21.11194 -26.8841,-34.63525 -3.1746,-8.73059 -7.297,-17.96277 2.8841,-23.36475 2.5188,-17.55969 22.7946,-11.93597 35,-18 m -78,4 h 1 l 6,2 v 2 h -10 l 3,-4 m 19,2 v 2 h -6 v -2 h 6 m -292,54 v 1 1 l 8,12 22,6 v -4 c 20.4294,0 36.7535,-10 57,-10 3.0867,0 24.0232,0.69037 17,8 v 1 1 h 2 v 1 1 c -6.5627,13.49219 -7.9907,27.70618 -12.5297,41.66569 -5.4532,16.7711 -13.4562,30.3045 -13.4703,48.3343 l -8,8 h -6 l -20,32 -6,6 -26,18 h -1 -1 l -2,-6 h -14 v 16 h 4 c 2.2818,9.3725 15.0504,16.5479 15.7015,25.0446 0.3775,4.9259 -8.0014,5.0663 -11.1152,6.2912 -10.2316,4.025 -12.3801,13.8562 -24.5863,14.6642 -2.4187,4.3079 -5.2123,5.3614 -10,6 l -2,8 c -7.1904,3.5686 -14.1698,8.2056 -22.6076,6.9387 -16.0402,-2.4082 -29.6755,-19.0672 -44.1525,-4.4257 -2.2049,2.2299 -3.7596,4.7476 -5.2399,7.487 l -8,6 h -1 -1 c -3.3641,-2.5588 -8.7199,-5.3446 -9.9696,-9.683 -2.4506,-8.5074 8.9271,-26.0902 11.9696,-34.317 -5.0013,-2.7989 -6.565,-6.6227 -8,-12 h -4 v -4 c -5.7939,-1.8987 -9.3835,-4.4038 -12,-10 l -37.4683,-14.9339 -28.5317,-3.0661 v -4 l -50,-2 v -8 l -8,-8 c -8.0531,-3.7546 -2.6536,-13.0821 -2,-20 6.6528,-2.807 14.3272,-12.0557 5.8166,-18.1171 -7.9421,-5.6565 -19.2868,-6.0229 -27.8166,-11.8829 v -1 -1 c 1.8658,-1.0339 3.7811,-2.025 5.5397,-3.2385 13.2729,-9.1589 -7.4235,-17.53 -10.2995,-26.4596 -3.4652,-10.759 -1.3937,-24.12753 2.7598,-34.30185 l 50,16 v 4 c 9.3316,0.40625 10.2774,4.19648 18,-2 v -1 -1 c -1.8548,-4.77234 -0.477,-7.68884 4,-10 l 2,8 14,2 v 4 c 20.7365,4.31153 41.0612,4.89954 62,2 l 12,-16 h 4 c 3.1609,-13.90954 12.3652,-25.28314 10,-40 -6.4857,-3.42486 -8.2853,-9.22253 -10,-16 l -12,-8 c -3.3453,-15.17212 14.8341,-19.20178 27.3529,-21.37292 19.2736,-3.34265 41.1032,-0.62708 60.6471,-0.62708 10.6369,0 22.4277,-1.46344 32.3461,3.1156 13.9508,6.44068 16.964,31.4206 11.6539,44.8844 m -174,-16 -2,8 c -10.7017,1.47583 -19.886,-0.55212 -30,-4 5.5834,-9.82202 22.8227,-6.22101 32,-4 m 46,26 v 1 1 c -7.6748,5.76374 -3.9632,14.20685 -9.8269,20.91333 -2.4024,2.74768 -7.0982,6.04175 -10.1731,3.08667 h -1 -1 c -9.045,4.03833 -19.2078,5.04505 -28,0 h -1 -1 v 2 h -1 -1 l -20,-8 -10,-10 c -1.2483,-4.15332 -6.3556,-5.54797 -7.2094,-9.27276 -0.8237,-3.59381 3.0679,-4.78498 5.2094,-2.72724 h 1 1 l 24.9729,-0.0865 9.0271,0.0865 h 1 1 l 10,-4 c 1.9595,-3.58172 4.7296,-5.63635 7.4166,-8.60315 2.8134,-3.10614 4.1529,-7.53515 7.5032,-10.1488 10.9365,-8.53198 18.0906,19.51141 23.0802,24.75195 m -194,2 v -1 -1 l 22,-12 c 4.625,-9.67968 24.1047,-16.71631 23.3495,-0.10772 -0.3372,7.41839 -7.168,7.53289 -12.6358,9.70587 -11.9401,4.74511 -19.5286,11.7904 -32.7137,4.40185 m -146,-6 26,8 4,-8 h 1 1 l 4,2 v 4 l 22.6683,3.32502 13.208,-5.6308 21.5239,5.43591 28.4045,1.20593 30.1953,7.66394 10,8 c -0.1211,3.87238 0.2745,10.20655 -4.041,12.10816 -5.1815,2.28314 -12.0378,-2.67176 -16.7913,-4.29676 -9.5378,-3.26068 -21.1399,-5.20471 -31.1677,-3.8114 v -4 l -39.7721,-2.40423 -20.2279,-1.59577 h -1 -1 c -10.6373,-7.63977 -33.4321,-9.59466 -46,-6 h -1 -1 c -7.6306,-1.22436 -14.6641,-4.46423 -22.1805,-5.57196 -19.5587,-2.8825 -38.4591,-3.59936 -55.8195,-14.42804 v -1 -1 l 4,-8 c 16.8785,-3.02612 30.8822,5.38159 47.0286,5.9278 9.8397,0.33282 21.897,-2.39179 26.9714,8.0722 m 46,-12 v 1 1 h -12 v -1 -1 l 2,-4 10,4 m 200,4 v 4 h -4 l 2,-4 h 2 m -44,22 4,-12 c 6.2174,-0.89026 14.2601,5.49335 7.1957,11.26758 -2.8326,2.31525 -7.9047,1.02173 -11.1957,0.73242 m 574,-4 v 4 c 24.8744,7.48975 42.806,27.60181 70,28 0.1058,-8.35547 1.3154,-17.8789 12,-14 h 1 1 c 6.4275,-2.53729 20.0616,-4.45215 24.8057,2.04322 2.8342,3.88049 2.0537,8.96106 3.6723,13.27764 1.3107,3.4953 4.1801,6.5091 3.865,10.46409 -0.6496,8.1549 -5.9798,18.1862 -8.343,26.215 -10.2919,-2.131 -20.4608,-1.0126 -30.755,-2.4274 -13.0537,-1.794 -24.6986,-10.9649 -33.245,4.4274 h -4 c 4.5038,14.8834 -4.136,21.5081 -10,34 -10.6539,-1.9323 -9.5845,-17.2729 -10.4017,-24.9116 -0.6436,-6.0158 -5.7369,-10.0594 0.4017,-15.0884 v -1 -1 l -18,-2 -10,20 h -4 c -3.1381,8.0541 -7.3445,11.4024 -16,12 l -4.5587,-20.9992 4.5587,-23.0008 h 4 c 0.5371,-8.21583 8.4506,-14.59144 8.3036,-21.95026 -0.2742,-13.73047 -18.5053,-3.90833 -22.3036,1.95031 l -24,6 2.0784,-19.85681 13.9216,-16.14319 h 46 m -776,16 v 4 l 43.8027,2.33289 14.1973,3.66711 h 1 1 v 2 h 1 1 c 8.1311,-4.52087 14.7312,0.0439 23.0183,1.86554 10.2904,2.2619 20.5049,2.13446 30.9817,2.13446 v 4 l 4,-2 h 1 1 l 28,6 2,11.99995 c -20.7628,-0.01 -40.7735,-3.5419 -61.1315,-5.6879 -13.1621,-1.3876 -26.452,-0.6511 -39.6073,-2.7629 -5.4517,-0.8751 -9.9888,-4.25935 -15.4564,-5.08955 -20.141,-3.05847 -41.3378,-3.22132 -61.6744,-4.6864 -8.8015,-0.63404 -17.384,-3.107 -26.201,-3.60517 -6.3242,-0.35736 -14.0593,1.03083 -19.9991,-1.59881 -5.3318,-2.36035 -5.6838,-7.73999 -3.9303,-12.56922 v -1 c -0.4443,-5.44464 2.8921,-8.4049 8.4407,-7.44226 10.652,1.84802 20.9322,6.3725 31.8008,7.8935 11.6514,1.63055 24.0124,0.54876 35.7585,0.54876 m 134,47.99995 4,10 c -16.3478,7.3949 -32.3066,6 -50,6 -17.3856,0 -36.4673,0.1645 -53.615,-2.6933 -8.4108,-1.4017 -15.9101,-5.6091 -24.0731,-7.8103 -14.3969,-3.882 -29.6777,-5.9197 -44.3119,-9.4964 -7.5093,-10.4262 -22.7157,-8.4012 -34,-8 v 8 c -12.179,-6.6302 -1.987,-20.09052 8.9411,-19.71894 7.7216,0.26257 14.39,4.90724 22.1489,5.50324 13.5249,1.039 27.2541,-0.8859 40.7506,0.4881 15.0342,1.5306 30.1126,5.7261 45.3116,7.372 9.0868,0.984 19.6842,-0.3541 28.4228,1.5234 5.8354,1.2536 10.8832,4.662 16.9106,5.7757 13.12,2.4242 26.4551,-0.1412 39.5144,3.0565 m -102,22 v 4 c 14.7899,1.3768 30.1803,3.9081 45.0034,3.991 11.6284,0.065 26.0108,-2.3277 36.9966,2.009 h 1 1 v -2 h 1 1 l 2,6 -6,8 -8,2 c -6.1668,10.9857 -23.2393,8.211 -33.9658,7.943 -17.2307,-0.4306 -37.0486,-0.043 -53.9999,-3.1524 -5.7543,-1.0557 -10.9267,-4.1572 -16.702,-5.3608 -10.5529,-2.1994 -19.9573,-1.2661 -29.3323,-7.4298 h -1 -1 l -4,2 v -4 c -10.7047,-10e-4 -21.9094,1.9869 -26,-10 h -4 c -3.8308,-9.384 -3.999,-17.9705 -4,-28 16.8887,0.204 31.0222,9.6233 46.7054,14.457 17.8188,5.4918 35.0928,6.4685 53.2946,9.543 m 128,-18 2,4 v 1 1 l -12,10 h -1 -1 v -16 h 12 m -44,48 v -6 c 7.6162,-3.6062 12.3939,-8.3837 16,-16 8.321,4.526 4.4155,15.4098 -2.4723,19.8357 -3.9132,2.5144 -9.0776,2.1251 -13.5277,2.1643 m 60,-14 -2,6 v 1 1 c 3.0756,3.2008 -0.6334,5.5784 -4.0637,5.9092 -7.3065,0.7048 -17.2807,1.4016 -23.9363,-1.9092 v -1 c 7.807,-12.5406 15.7316,-14.4116 30,-11 m 346,54 h -1 -1 v -2 h -1 -1 c -9.6359,17.067 15.9564,26.7458 27.077,15.6847 3.412,-3.3938 2.8673,-9.2818 2.923,-13.6847 -9.2312,-2.7139 -17.1342,-5.083 -26,0 m -190,62 -8,4 h -1 -1 c -4.7936,-1.3151 -7.3474,-0.1574 -10,4 l -38.5906,8.7689 -24.2402,-0.4013 -23.1692,5.6324 c 7.9426,-13.661 1.4816,-17.4217 -4,-30 l -6,-8 c -12.3924,-2.1966 -23.5425,-6.0559 -18,-20 h 4 v -4 c 9.5724,-4.7386 19.8712,-9.1382 30.4361,-11.2169 23.0661,-4.5383 51.8493,4.2172 72.3332,13.4952 8.5308,3.8641 19.7874,8.628 24.7264,17.0933 3.495,5.9905 2.5016,13.9685 2.5043,20.6284 m 250,-52 c -7.2333,8.7871 -5.0383,11.9202 -2,22 5.8023,-0.07 28.1541,-4.2809 19.4624,-15.1343 -3.1457,-3.9281 -11.0158,-4.7025 -15.4624,-6.8657 h -2 m -420,18 v -1 c 1.2776,-1.6648 2.52,-3.3756 3.8984,-4.9599 8.8995,-10.2288 10.7697,8.0258 -3.8984,5.9599 m 608,24 h 4 c 5.5756,16.9719 32.1512,13.0331 26.2206,-5.0873 -2.6848,-8.203 -22.8797,-11.9226 -28.8181,-5.7755 -2.782,2.8797 -1.8479,7.3103 -1.4025,10.8628 m -282,-12 v 2 h -2 v -2 h 2 m 132,24 c 8.8754,16.3081 21.7811,-6.4111 22,-16 -6.584,-1.6304 -14.4485,-3.2611 -20.8521,-0.078 -7.0739,3.5165 -8.3485,12.3371 -1.1479,16.0779 m -422,-8 10,8 c 2.1078,9.5437 -0.5794,14.9054 -10,18 v 28 l -8,6 c -7.3547,-4.7669 -15.9615,-8.7544 -22,0 l -21.3941,3.3352 -16.8015,6.3283 -39.711,0.5614 -56.1606,2.7314 -37.2846,-8.1598 -46.6482,-4.7964 c -4.4795,-6.2713 -10.8696,-5.9551 -18,-6 l -6,-8 c -2.9117,-6.9549 -13.3969,-11.2082 -14.2919,-18.2767 -0.5607,-4.429 4.8184,-13.4109 10.1253,-10.9859 4.8113,2.1987 8.1832,8.6761 10.1666,13.2626 l 41.0973,7.772 92.9027,-1.772 v -4 l 28,-4 v -4 h -4 v -4 h -16 c 1.8418,-3.513 4.193,-3.8845 8,-4 v -8 l 28.8706,-10.2367 18.8145,-0.6494 17.3271,-4.907 50.9878,7.7931 m -170,20 c -11.4394,2.7357 -23.3012,2.0845 -34.9907,1.985 -7.7629,-0.066 -15.3108,-1.6393 -23.0434,-1.9012 -8.9763,-0.3039 -17.5615,0.4687 -25.4047,-4.7283 -6.1878,-4.1001 -5.8458,-12.668 1.4283,-15.7885 4.3735,-1.8761 9.6198,-0.2401 14.1424,0.1331 6.7562,0.5576 13.7802,-0.3712 20.4416,1.0572 7.1376,1.5304 12.6103,5.4469 20.2646,4.7492 7.8746,-0.7179 17.6225,-7.7487 25.0944,-2.3219 5.1221,3.7201 2.6165,11.5803 2.0675,16.8154 m 46,-18 v 1 1 l -8,10 c -10.9831,5.4895 -17.5702,8.0734 -30,6 l 6,-12 c 11.1322,-5.0931 19.483,-9.7888 32,-6 m 383,4 h 1 c 17.7595,9.5356 44.5391,-12.1099 56,14 11.7629,3.9339 30.7001,21.9009 34,34 h -8 l -8,8 -2,8 h -6 c -5.7072,22.9798 -22.1754,10.9585 -37.2917,8.6544 -10.8468,-1.6532 -21.8025,-0.8123 -32.7083,-2.6544 -6.4655,-9.0396 -39.7156,-27.4125 -16,-40 v -20 l 10,-2 9,-8 m -133,8 2,6 -12,4 -2,-4 v -1 l 12,-5 m 246,20 v 2 c -9.1202,2.3104 -13.3098,1.3052 -22,-2 v -12 l 22,12 m 26,-8 v 1 1 c -5.9604,1.8191 -10.7781,1.9223 -14,-4 l 14,2 m 10,102 v 1 1 l -6,4 h -1 -1 l -12,-4 v -2 h 20 m 154,8 v 2 c -7.0366,1.6828 -14.4768,2.6469 -21.7068,1.6405 -1.9393,-0.2699 -6.5008,-1.1919 -5.7959,-4.1249 1.8171,-7.561 22.8422,-0.3536 27.5027,0.4844 m -108,0 v 2 h -10 v -1 l 10,-1 m -16,0 v 2 l -12,2 h -1 -1 l -2,-4 z"
       id="path5" /></g></svg>
