<svg width="78" height="90" viewBox="0 0 78 90" fill="none" xmlns="http://www.w3.org/2000/svg">
<path d="M48 88C49.1 88 50 88.45 50 89C50 90.5568 58.9489 90.194 60.5714 88.5714C61.5197 87.6231 62.0001 84.9333 62.0001 80.5714C62.0001 76.8571 62.4349 74 63.0001 74C63.5501 74 64.0001 73.1375 64.0001 72.0833C64.0001 71.0291 64.5626 69.9041 65.2501 69.5833C66.2501 69.1166 66.2501 68.8833 65.2501 68.4166C64.5626 68.0958 64.0001 66.5208 64.0001 64.9166C64.0001 63.3125 63.5501 62 63.0001 62C62.4445 62 62.0001 59.3333 62.0001 56C62.0001 52.6666 62.4445 50 63.0001 50C63.5501 50 64.0001 49.2928 64.0001 48.4285C64.0001 46.4075 66.4075 44 68.4286 44C69.5079 44 70.0001 43.0606 70.0001 41C70.0001 39.35 70.4501 38 71.0001 38C71.5501 38 72.0001 36.65 72.0001 35C72.0001 33.35 72.4501 32 73.0001 32C73.5501 32 74.0001 31.1993 74.0001 30.2207C74.0001 29.2421 74.9001 27.7928 76.0001 27C77.732 25.7517 78.0001 24.4113 78.0001 17C78.0001 9.5886 77.732 8.2483 76.0001 7C74.9001 6.2071 74.0001 4.75777 74.0001 3.77917C74.0001 2.46887 73.2094 2 71.0001 2C69.3501 2 68.0001 1.55 68.0001 1C68.0001 0.4 64 0 58 0C52 0 48 0.4 48 1C48 1.55 47.1 2 46 2C44.6667 2 44 2.6666 44 4C44 5.1 43.55 6 43 6C42.45 6 42 6.9 42 8C42 9.1 41.55 10 41 10C40.45 10 40 10.9 40 12C40 13.3333 39.3333 14 38 14C36.9 14 36 14.45 36 15C36 15.55 35.2929 16 34.4286 16C32.5975 16 30 13.6539 30 12C30 10.0274 27.2484 8 24.5714 8C23.1571 8 22 7.55 22 7C22 6.45 20.2 6 18 6C15.8 6 14 6.45 14 7C14 7.55 13.3045 8 12.4545 8C10.0246 8 6 12.6481 6 15.4545C6 16.8545 5.55 18 5 18C4.45 18 4 18.9 4 20C4 21.1 3.55 22 3 22C2.45 22 2 23.3125 2 24.9166C2 26.5208 1.4375 28.0958 0.75 28.4166C-0.25 28.8833 -0.25 29.1166 0.75 29.5833C1.4375 29.9041 2 31.4791 2 33.0833C2 34.6875 2.45 36 3 36C3.55 36 4 38.25 4 41C4 43.75 4.45 46 5 46C5.55 46 6 46.7071 6 47.5714C6 49.5924 8.40749 52 10.4286 52C11.5592 52 12 52.9863 12 55.5161C12 59.6613 25.2181 74 29.0393 74C30.2501 74 33.5577 76.4929 37 80C40.2391 83.3 43.5892 86 44.4446 86C45.3001 86 46 86.45 46 87C46 87.55 46.9 88 48 88Z" fill="#FF0000"/>
</svg>
