<svg width="1226" height="1075" viewBox="0 0 1226 1075" fill="none" xmlns="http://www.w3.org/2000/svg">
<path d="M434.058 1V7M434.058 7C430.926 7.0003 428.093 6.85835 423.058 7.57935C415.839 8.61305 407.379 8.71033 400.058 12.3132C391.414 16.5671 383.073 23.3926 373.058 26.0555C365.876 27.9652 359.836 33.1616 353.058 36.6688C347.077 39.7635 341.457 42.8081 337.058 44.9028C334.128 46.298 332.828 47.3586 330.058 49.3086C327.501 51.1081 325.574 52.6316 323.058 54.4089C320.614 56.135 318.642 57.1395 316.058 58.618C310.932 61.5509 304.526 65.6899 300.772 70.1843C298.663 72.7103 296.899 75.2629 295.831 77.9985C294.067 82.5151 295.046 84.1574 295.058 85M434.058 7C440.43 17.1692 441.535 14.9172 444.058 15M439.058 15C438.368 15.9482 437.482 16.7726 436.887 18.1605C434.491 23.7528 433.983 33.6297 426.13 42.2855C423.641 45.0283 422.322 48.1918 420.87 51.9813C419.659 55.1398 418.481 55.458 416.356 57.7098C414.546 59.629 414.452 61.5412 413.478 64.0007C412.491 66.4956 411.177 67.6616 410.052 70C408.805 72.5904 408.335 76.9474 407.808 79C406.488 84.1406 405.597 84.4237 404.916 87C404.817 87.3738 403.845 89.532 405.126 91.8125C407.04 95.2207 409.547 94.1258 411.059 94.1111C415.768 94.0651 422.606 91.055 431.058 91.0007C436.88 90.9637 439.22 92.1654 445.058 90.4514C449.159 89.2474 451.413 87.8087 455.058 86.2909C457.208 85.3955 458.705 84.4938 461.058 83.7994C463.901 82.9601 465.854 83.1464 469.058 82.9111C471.868 82.7048 474.095 82.2499 477.058 81.8735C483.331 81.0764 488.362 82 495.058 82V89M284.058 27C281.466 29.9834 278.181 32.6479 272.022 38.7145C270.03 40.6772 268.059 42.7783 266.803 45C264.192 49.6194 261.087 52.5692 255.073 57.7407C250.405 61.7552 248.148 65.3751 244.964 69.9105C243.154 72.4892 241.248 74.0188 239.339 76.0895C233.926 81.962 230.777 94.0317 230.058 98M283.058 29L286.058 31M205.058 50C205.034 52.7011 205.432 55.7831 202.054 61C199.944 64.259 198.348 67.8656 198.094 72C197.82 76.4659 196.806 80.0295 195.536 85C194.773 87.9881 194.351 90.0945 194.147 93C193.909 96.3941 194.164 100.203 193.968 103C193.553 108.93 189.592 115.197 192.397 122.999C193.801 126.903 195.132 128.118 196.282 128.887C199.671 131.154 202.27 131.41 205.058 132M522.058 69C522.098 70.2142 519.606 73.1199 524.376 75.5354C528.276 77.5104 539.984 76.0034 544.058 75.9985C547.634 75.9985 550.251 75.3363 554.058 75.9294C558.335 76.596 563.533 78.636 569.058 78.9648C574.167 79.2689 576.888 79.8497 578.058 79.9996V76.9996M536.058 72.9996V74.9996M500.058 74.9996V79.9996C508.391 78.7745 513.984 79.475 522.058 74.9996M525.058 76.9996V80.9996M282.058 79.9996H294.058M496.058 80.9996H499.058M578.058 80.9996L582.058 93.9996H597.058M404.058 91.9996C397.474 100.586 401.053 102.641 401.058 105M221.058 94.9996L230.058 93.9996M419.058 93.9996L424.058 104M581.058 94.9996C578.931 101.158 573.665 104.647 567.147 108.473C564.639 109.946 562.982 111.698 560.019 113.244C555.689 115.502 554.359 116.217 550.058 119.37C544.348 123.556 536.15 127.44 530.058 129.992C523.113 132.901 515.05 139.321 509.076 144.21C506.046 146.69 503.295 149.728 503.052 154C502.864 157.331 504.563 163.152 505.796 164.941C508.782 169.275 512.613 169.996 523.058 170C528.005 170 533.956 169.906 539.058 170.575C542.255 170.995 544.111 170.905 547.058 171.039C551.601 171.245 562.306 172.99 567.058 173C572.021 173.01 573.5 172.901 578.058 174.575C580.833 175.595 582.358 175.849 585.058 175.999C587.814 176.152 589.507 176.324 592.058 176.804C595.952 177.536 603.721 179.143 606.058 179.73C607.344 180.054 609.397 180.571 612.058 181C617.514 181.879 617.373 181.782 623.058 184.148C628.42 186.379 630.452 187.562 634.058 188.385C638.273 189.346 639.648 189.339 643.058 191.456C647.009 193.908 648.354 193.64 652.718 197.568C659.673 203.827 658.953 208.701 659.058 212H671.058M385.058 98.9996L400.058 95.9996M913.058 97.9996C913.058 101.046 910.593 103.986 914.086 108.396C915.36 110.004 926.958 109.827 932.058 107M932.058 107C927.414 101.982 927.42 100.356 927.058 97.9996M932.058 107H950.058M908.058 98.9996C908.058 101.221 907.752 103.193 908.204 105.943C908.364 106.911 907.38 108.447 912.058 110M951.058 99.9996C951.102 101.331 949.457 103.467 952.661 105.973C954.637 107.519 959.127 106.888 962.058 107.089C967.954 107.493 973.714 108.613 975.715 104.609L976.058 103M975.058 107C977.114 108.139 979.073 109.052 982.059 109.557C991.391 111.138 1002.23 110.206 1009.06 112.328C1012.91 113.524 1015.25 115.315 1019.06 115.981C1026.01 117.197 1030.99 117.186 1037.06 119.915C1043.26 122.702 1046.56 125.205 1054.06 126.764C1061.24 128.256 1061.71 129.913 1069.06 133.679C1074.21 136.323 1077.92 138.675 1082.05 140.765C1087.96 143.746 1087.7 145.208 1094.06 148.909C1102.29 153.701 1103.17 153.872 1110.05 158.419C1114.05 161.058 1115.24 162.754 1118.19 165.585C1121.64 168.896 1123.04 169.777 1127.07 172.259C1130.86 174.587 1132.1 175.983 1135.02 179.004C1139.89 184.045 1139.8 186.19 1143.9 191.791C1146.5 195.342 1148.46 196.226 1151.23 199.922C1156.27 206.657 1163.64 211.533 1165.84 219C1166.91 222.629 1167.58 224.058 1170.08 226.575C1172.3 228.82 1174.05 230.311 1175.2 233.004C1176.86 236.864 1177.32 239.429 1179.84 243C1182.71 247.063 1182.69 251.45 1183.5 255.996C1183.99 258.729 1184.61 260.227 1186.26 262.424C1188.72 265.687 1189.52 266.036 1190.53 270C1191.6 274.187 1191.01 276.664 1192.46 282C1193.78 286.861 1195.63 287.558 1196.95 292C1197.64 294.334 1197.82 297.426 1198.17 300C1199.08 306.627 1200.43 312.272 1201.17 319C1201.6 322.97 1203.23 324.623 1204.35 329C1205.62 333.966 1205.06 341.241 1205.06 345C1205.06 349.757 1205.15 350.183 1205.2 354C1205.24 357.041 1205.14 360.17 1204.46 362C1201.69 369.359 1199.75 368.298 1197.06 371C1194.15 373.915 1189.28 378.778 1186.06 382L1176.06 392C1188.78 395.76 1190.94 391.341 1197.06 394.318C1206.14 398.74 1214 415.166 1225.06 416M703.058 243C704.861 244.801 706.567 246.57 709.062 248.911C709.656 249.468 710.75 250.469 713.058 252.254C715.181 253.896 716.631 254.968 717.058 255.324C718.846 256.82 719.951 257.936 721.058 259.014C725.801 263.634 730.533 262.953 733.36 273C733.947 275.085 732.367 279.33 729.924 281.825C727.544 284.257 725.981 285.495 722.058 287.214C719.694 288.251 717.434 288.722 715.062 289.795C711.032 291.619 710.132 293.068 709.058 294C705.312 290.254 699.385 285.015 696.376 281C693.628 277.332 691.553 273.118 696.309 257C698.234 250.475 697.161 248.877 701.192 244.424C703.658 241.7 704.573 240.926 705.823 236.999C707.308 232.33 708.561 231.301 711.385 227C713.082 224.415 715.108 219.503 716.727 217C718.359 214.475 719.682 212.629 721.344 210.018C725.073 204.163 729.349 199.596 733.363 195.039C739.184 188.431 748.853 177.617 756.057 173.414C763.683 168.965 765.162 167.084 770.968 162.254C774.278 159.501 775.032 158.089 778.097 155.017C780.623 152.486 782.776 150.643 786.058 149.129C791.318 146.701 793.205 145.559 797.058 142.088C799.804 139.615 801.922 138.001 805.058 135.939C812.753 130.88 817.791 128.423 829.058 125.745C831.293 125.214 839.27 124.118 841.058 123.455C843.866 122.414 844.676 121.211 848.058 120.027C852.294 118.545 855.964 119.113 860.058 118.575C864.16 118.036 871.728 117.383 875.058 115.236C878.321 113.131 880.23 111.265 882.058 110.602C888.085 108.419 897.263 110 907.058 110M160.058 119L161.058 124M161.058 124L169.058 118M161.058 124C161.534 130.033 162.229 137.448 161.294 141C160.951 142.304 159.765 145.647 158.491 148C156.652 151.393 155.606 152.431 155.246 153C153.304 156.073 153.144 158.36 153.058 161M188.058 118H190.058M135.058 130C135.058 131.919 133.343 134.101 136.086 138.866C138.786 143.556 144.314 143.42 147.058 144.47C148.823 145.146 151.614 146.509 158.058 148M196.058 130V132M158.058 151L165.058 161M157.058 153V161M493.058 155H502.058M112.058 174L116.658 175.429L123.062 179.713L130.058 183.616L139.058 186.085L151.058 188.535L156.039 189.382L160.029 187.047L161.058 184M158.058 191C158.755 192.256 159.35 192.996 159.971 195.044C160.34 196.262 160.706 197.602 161.053 199C164.148 211.469 161.343 214.501 166.019 225C168.529 230.637 169.257 237.578 169.107 243C169.022 246.081 168.73 249.7 169.031 253C169.337 256.345 170.02 260.135 170.058 264C170.116 269.999 170.481 271.262 172.058 275C167.875 277.597 165.052 278.358 157.058 280.478C154.866 281.059 151.906 282.334 148.058 283.588C142.867 285.28 134.964 290.628 131.383 294.301C128.715 297.037 127.654 298.753 125.996 303C124.114 307.819 123.487 307.782 121.822 313C120.815 316.152 121.063 318.109 121.058 321C121.048 323.606 120.995 325.665 121.097 328C121.247 331.438 121.865 336.441 122.346 340C122.894 344.058 123.701 347.558 125.036 351C126.348 354.383 127.948 356.134 129.736 359C131.779 362.273 132.882 364.839 134.676 368C135.689 369.784 136.568 371.224 138.02 372.945C140.468 375.846 141.524 376.606 145.072 377.785C148.314 378.862 149.935 379.538 152.057 380.62C155.723 382.489 160.197 382.521 164.017 383.148C166.384 383.536 167.399 385.689 170.806 388.311C174.032 390.794 178.146 388.972 180.057 389.118C184.479 389.455 191.33 390.125 196.057 388.651C201.639 386.911 203.484 385.857 206.057 385M1035.06 202C1034.55 208.361 1031.68 211.083 1029.06 213M972.057 205C972.087 206.253 971.908 207.398 972.286 209.044C974.186 217.318 983.024 224.214 992.019 235.014C996.639 240.562 998.208 245.318 1004.06 250.324C1008.12 253.795 1012.94 261.051 1017.15 263.2C1024.7 267.053 1025.82 268.109 1028.06 269.7C1033.25 273.391 1042.48 271.711 1047.06 275C1042.97 279.088 1039.15 282.844 1035.06 287C1033.87 288.212 1033.14 288.233 1029.07 294C1027.83 295.744 1026.61 297.6 1026.42 298C1025.45 299.949 1024.11 303.241 1028.19 307.714C1032.28 312.203 1032.78 313.541 1033.64 319C1034.3 323.255 1034.49 324.355 1037.06 328C1040.86 333.385 1042.02 336.674 1042.06 343C1042.08 346.93 1042 353.674 1042.07 356.999C1042.09 358.009 1042.08 361.108 1043.09 362.396C1045.67 365.691 1047.79 363.958 1049.06 364M1029.06 205H1033.06M1036.06 210C1039.67 211.042 1041.06 213.126 1043.08 215.745C1044.88 218.087 1046.62 219.151 1048.97 222.038C1051.53 225.17 1055.8 228.486 1057.06 231.104C1058.47 234.064 1054.24 238.532 1052.77 240.285C1051.48 241.829 1050.93 242.643 1050.61 243.039C1048.86 245.199 1047.19 246.598 1046.11 249C1043.65 254.458 1051.34 259.556 1054.75 264C1057.64 267.764 1058.16 270.394 1060.06 273C1053.42 276.545 1049.97 275 1047.06 275M659.062 212C657.506 213.186 656.202 214.347 654.037 215.131C647.495 217.499 630.992 216.234 623.062 217.29C620.794 217.592 618.625 218.192 616.062 218.739C610.303 219.967 609.967 219.913 605.062 220.729C600.197 221.538 598.502 222.682 594.062 223.509C591.176 224.047 588.519 223.99 586.062 223.999C578.152 224.027 571.991 222.928 567.205 224.318C564.889 224.99 560.07 231.303 558.897 235C557.417 239.66 559.909 240.946 560.81 243C563.227 248.506 563.105 252.167 563.062 255M1000.06 212C1004.06 212.129 1007.79 214.986 1018.06 222.709C1026.82 229.295 1037.13 239.553 1042.61 246.879C1043.59 248.181 1044.46 249.244 1045.06 250M1071.06 213C1074.64 212.313 1077.11 212.666 1082.35 218.915C1085.27 222.409 1088.65 226.194 1091.25 228.91C1098.48 236.485 1101.99 236.958 1108.93 244.169C1112.97 248.374 1115.8 258.341 1116.67 262C1117.85 266.942 1118.83 268.531 1120.05 272C1120.14 272.269 1121.2 274.631 1121.57 276.999C1121.86 278.92 1121.66 279.602 1121.52 279.945C1120.95 281.306 1121.35 282.413 1117.05 284.106C1115.06 284.893 1109.83 284.997 1107.06 285C1102.78 285 1100.14 284.892 1097.06 285.838C1093.92 286.805 1092.92 287.499 1092.07 287.869C1089.39 289.027 1087.8 289.918 1086.06 291C1088.92 296.235 1089.57 297.222 1090.19 299C1091.22 301.969 1091.35 305.377 1092.23 308C1092.7 309.395 1093.21 309.99 1094.22 314C1094.49 315.072 1098.44 329.237 1099.05 332C1099.81 335.454 1100.48 340.408 1101.54 342.83C1102.9 345.959 1103.89 346.053 1105.72 349.039C1107.14 351.343 1107.88 355.477 1108.94 357.984C1110.61 361.938 1112.53 362.715 1115.07 363.906C1118.02 365.292 1123.11 367.691 1125.06 369.259C1131.78 374.653 1133.72 375.251 1137.91 380.018C1138.49 380.668 1139.34 381.204 1140.52 383.985C1141.28 385.78 1141.75 387.355 1142.66 388.575C1144.98 391.669 1146.59 392.565 1148.06 394.014C1151.19 397.084 1153.49 400.312 1157.06 402.472C1157.31 402.619 1159.42 403.851 1162.06 403.182C1165.64 402.274 1166.42 401.258 1167.06 400.867C1170.69 398.66 1173.4 395.651 1176.06 393M787.062 214L788.062 231M788.062 231L796.062 227.514L807.062 226M788.062 231C785.942 232.316 784.58 233.316 779.062 234.963C777.2 235.52 775.054 235.861 773.063 236.532C770.695 237.331 769.349 238.202 767.348 240.119C763.183 244.108 761.609 245.342 759.17 249.039C757.316 251.849 755.587 256.101 752.93 258.909C746.487 265.718 736.712 268.971 734.062 271M594.062 217V223M907.062 218C908.038 225.293 918.163 237.705 926.156 245.96C928.747 248.635 932.278 251.218 935.062 252.851C938.262 254.728 939.592 255.289 941.062 255.797C945.772 257.422 949.796 256.067 953.062 256V242M615.062 220V223M253.062 222C253.072 223.849 252.883 225.609 253.38 227.856C253.492 228.361 253.337 229.443 255.38 230.382C258.409 231.772 265.795 229.044 267.062 228.689C269.787 227.924 272.227 227.882 277.062 227.975C280.388 228.039 285.164 228.037 288.058 228.424C291.75 228.918 292.728 228.942 294.062 229M272.062 223V227M1051.06 226L1047.02 229.875L1044.06 232.426L1041.09 235.064L1036.06 240M833.062 228C831.231 232.541 830.13 235.655 831.488 246C831.872 248.92 832.005 252.266 833.095 254.871C835.557 260.761 839.935 260.464 842.062 261M242.062 230L250.062 232L249.062 239M253.062 230L251.062 232M254.062 231V238M787.062 232C791.53 236.616 793.959 238.687 794.043 248C794.07 250.968 793.226 254.93 792.225 258C789.708 265.718 789.197 268.263 789.062 271M1059.06 235C1061.76 237.379 1063.69 240.635 1064.19 243.004C1066.97 256.205 1064.88 257.18 1057.06 265M548.062 236H556.062M170.062 239H176.062M877.062 242C880.294 247.218 884.648 249.715 889.342 255.259C891.098 257.333 892.346 259.967 895.237 262.674C898.342 265.582 899.303 266.103 903.062 267.815C908.422 270.256 910.264 271.55 916.391 272.856L918.062 273M875.062 245H876.062M564.062 250C568.91 251.49 580.412 252.762 590.062 253.014C593.41 253.102 596.244 252.812 600.353 256.31C602.639 258.257 603.574 259.255 606.08 259.776C610.282 260.65 611.971 261.076 615.232 263.869C617.07 265.443 619.33 267.18 623.062 268.156C629.221 269.765 629.042 269.188 636.062 272.865C638.375 274.077 639.669 274.758 642.062 275.558C645.148 276.589 647.16 276.941 650.062 278.749C652.299 280.142 654.868 281.996 658.062 283.695C666.14 287.991 673.102 290.18 676.062 291.51C683.576 294.885 686.986 300.913 692.062 306C694.74 308.683 700.618 310.287 699.427 319C698.655 324.647 697.142 326.472 696.388 331C695.995 333.359 696.246 336.847 695.914 339C695.082 344.403 693.107 344.815 691.901 347C691.257 348.168 690.468 349.431 690.156 353C689.882 356.139 689.997 370.853 688.878 374C687.327 378.36 686.065 383.16 685.947 388C685.686 398.681 686.062 397.083 686.062 411C686.062 413.915 687.673 428.274 688.317 431C689.206 434.765 691.764 445.114 691.004 450C690.375 454.039 688.489 454.487 687.042 455.999C683.071 460.149 678.408 462.936 673.062 463M163.062 251H168.062M265.062 256C267.409 260.017 269.798 259.936 274.062 259.996C277.199 260.04 281.558 259.996 284.061 259.996H291.062M786.062 255.996H792.062M953.062 255.996C956.565 258.833 959.798 260.034 962.954 263.129C965.753 265.874 966.728 269.284 968.336 271.807C971.627 276.969 977.215 277.214 984.062 278.671C986.063 279.097 988.99 279.402 991.062 280.259C994.074 281.504 995.79 283.067 1000.06 284.232C1005.68 285.765 1007.76 286.867 1012.06 286.082C1014.49 285.64 1016.17 284.108 1018.06 282.551C1021.85 279.442 1022.91 278.132 1024.04 277.017C1026 275.074 1027.46 273.601 1029.06 271.996M259.062 258.996H264.062M839.062 260.996V262.996M784.062 261.996H790.062M784.062 265.996H789.062M968.062 272.996C965.868 275.189 964.006 277.725 960.062 280.482C958.729 281.414 956.759 281.633 951.062 283.495C944.683 285.58 938.296 293.16 934.21 297.996C931.473 301.235 930.024 308.201 928.392 311.996C926.525 316.335 926.331 317.251 925.642 321.996C924.667 328.71 925.328 332.543 925.147 337.325L925.062 338.996M1060.06 273.996C1063.74 279.357 1063.15 279.614 1067.35 283.691C1070.31 286.557 1073.53 287.758 1077.06 288.723C1079.96 289.515 1082.53 290.13 1085.06 290.996M803.062 334.996L803.119 333.325C803.638 329.062 803.724 326.635 806.981 321.281C809.013 317.94 810.991 315.296 813.112 310.996C815.58 305.994 818.575 301.286 822.272 296.997C824.22 294.735 825.663 293.366 828.047 291.452C832.885 287.567 838.83 284.29 844.062 281.683C850.556 278.448 848.507 276.161 857.062 276C865.263 275.846 872.036 275.212 879.973 278.142C883.553 279.464 885.985 281.814 888.976 283.861C891.711 285.732 892.83 286.818 895.797 290.166C899.653 294.515 899.791 296.304 903.097 300.42C907.892 306.39 907.058 310.634 906.062 315.996M173.062 276.996L191.061 292.311L198.062 294.996M1124.06 281.996C1132.2 284.704 1134.93 285.126 1137.26 290.015C1139.46 294.628 1141.42 300.527 1144.39 305.996C1147.74 312.189 1148.32 311.555 1150.19 316.996C1151.21 319.962 1151.06 322.313 1151.06 325.996C1151.06 328.638 1150.92 332.134 1151.39 334.996C1152.12 339.508 1152.59 340.109 1153.29 342.996C1155.07 350.326 1156.42 359.62 1155 363.996C1153.26 369.412 1151.27 370.783 1140.06 381.996M1014.06 287.996C1014.88 289.426 1015.32 294.263 1023.06 298.996M709.062 293.996L706.529 299.021L704.312 301.996L701.901 305.994L699.062 312.996M671.062 304.996H689.062M555.062 314.996C558.321 316.553 564.567 318.858 579.348 325.13C583.788 327.015 588.735 328.167 593.062 330.5C597.784 333.046 599.946 333.153 605.062 336.45C611.672 340.709 614.854 342.707 620.062 346.461C624.296 349.513 628.275 353.102 632.486 356.791C634.688 358.719 635.563 359.261 637.49 361.205C639.764 363.499 641.528 365.379 643.581 367.996C647.067 372.44 649.281 376.498 655.062 380.331C662.171 385.044 664.061 385.073 666.062 386.416C671.763 390.24 673.601 391.385 685.062 389.996M927.062 334.996L932.062 336.996M797.062 339.996C797.034 340.909 797.18 342.163 796.484 346.997C795.709 352.39 790.335 359.298 789.29 364.996C788.116 371.402 788.087 380.818 787.946 386.996C787.839 391.706 788.083 394.166 788.061 398.996C788.047 402.166 787.591 410.409 787.936 412.996C788.46 416.917 788.727 418.184 791.062 421.996L799.062 417.996M797.062 346.996H800.062M1206.06 354.996H1224.06M1043.06 363.996C1043.07 366.824 1043.22 370.05 1043.96 371.996C1044.77 374.12 1047.45 376.349 1047.65 380.996C1047.9 386.771 1044.53 387.809 1042.9 392.996C1041.85 396.366 1042.15 399.127 1042.02 401.996C1041.84 405.876 1040.03 411.554 1037.64 414.996C1034.06 420.13 1035 423.615 1031.29 428.957C1026.68 435.611 1017.62 445.151 1010.06 447.963C1006.5 449.288 999.868 451.048 997.062 453.26C995.063 454.837 993.601 456.168 991.062 457.823C988.153 459.719 985.894 461.317 983.062 462.7C976.123 466.09 969.852 463.399 965.38 465.599C962.239 467.145 963.558 469.583 962.76 472.996C962.273 475.074 961.661 476.281 960.338 477.848C957.145 481.629 953.758 481.221 950.062 480.231C943.626 478.508 942.131 476.02 938.062 471.996C942.058 467.026 944.262 465.181 948.063 465.015C948.887 464.979 950.284 464.918 954.062 465.015C956.503 465.075 960.948 465.733 963.062 466M1043.06 384L1045.06 388M785.062 389H787.062M193.062 390L197.062 395M615.062 390C615.179 391.485 615.427 392.143 615.892 397.002C616.16 399.8 615.999 404.854 616.077 408C616.185 412.409 618.713 415.286 616.169 422C612.831 430.807 610.719 442.391 608.933 452C608.302 455.395 606.785 456.8 605.361 460C604.257 462.48 604.333 464.223 603.737 467C602.252 473.926 598.282 481.453 595.504 488C593.961 491.635 591.463 493.71 589.305 497C586.868 500.716 584.401 503.799 581.271 506.71C578.324 509.451 577.594 511.998 574.929 514.997C571.891 518.417 569.532 519.947 566.062 522.17C562.242 524.618 559.322 527.809 555.062 530.617C552.435 532.349 548.668 534.474 546.063 535.795C542.021 537.846 540.969 537.591 539.68 541.055C539.036 542.788 540.27 549.955 541.062 553C542.603 558.925 543.874 561.211 544.732 567C545.354 571.193 542.978 574.93 541.936 578C541.002 580.755 541.178 583.942 540.447 588C539.805 591.559 537.661 598.688 537.058 601C536.578 602.836 536.522 604.885 533.784 607.433C530.953 610.067 528.586 610.862 528.09 611.544C526.546 613.669 527.119 615.28 527.062 617M174.062 391C174.062 392.397 173.909 393.575 174.077 400C174.16 403.165 176.137 411.289 177.059 415C179.128 423.337 178.411 436.806 181.062 445C182.367 449.032 183.01 452.027 183.059 456C183.105 459.747 182.94 463.203 184.062 467M184.062 467L193.062 466M184.062 467C184.062 475.467 183.919 479.198 184.112 487C184.298 494.543 184.062 497.477 184.062 504C184.062 506.692 184.105 512.124 185.088 513.942C187.459 518.326 189.49 517.554 191.062 518M185.062 391V397M1159.06 405C1158.67 407.014 1158.17 408.745 1157.5 413C1157.11 415.471 1156.99 419.036 1156.51 421C1155.45 425.301 1154.45 425.398 1154.12 430C1153.95 432.378 1153.89 436.452 1153.19 439C1152.18 442.658 1151.55 443.934 1150.81 447C1150.04 450.203 1149.72 454.007 1148.46 456C1143.96 463.102 1138.16 466.9 1134.06 471C1129.84 475.22 1125.47 480.579 1121.06 479.338C1114.3 477.434 1108.28 466.267 1100.06 466M1028.06 418L1034.06 420M791.062 422C791.4 426.241 792.372 431.164 794.008 435C796.28 440.329 796.205 444.463 800.237 449.961C803.053 453.8 805.863 456.217 809.487 459.7C812.126 462.237 813.854 463.163 817.062 465.156C819.898 466.917 828.816 470.975 831.062 471.732C833.412 472.524 837.164 473.287 839.035 476.278C840.555 478.708 840.042 481.589 840.063 484C840.155 494.414 843.281 498.28 850.487 508.058C852.746 511.123 853.489 512.244 856.013 514.981C858.469 517.645 859.77 519.055 863.102 520.178C867.69 521.723 871.983 522.784 878.062 524C886.332 525.655 891.668 530.794 899.062 530.09C906.57 529.375 909.854 525.894 916.062 523.24C920.172 521.483 922.272 519.858 924.683 515.986C929.592 508.101 933.467 498.936 937.062 493M937.062 493L945.062 496M937.062 493C937.062 481.012 937.69 478.716 938.062 474M924.062 437C923.846 439.581 923.713 441.665 928.083 445.947C930.414 448.231 933.754 450.303 935.508 452.26C940.716 458.068 939.763 459.902 942.062 465M1103.06 441H1152.06M850.062 471H844.062M844.062 471C844.104 465.872 843.458 462.928 847.351 458.425C855.21 449.335 865.188 449 870.062 449M844.062 471L840.062 475M691.062 452C693.317 456.002 696.2 461.497 697.36 465C698.368 468.042 698.05 469.725 698.062 473C698.073 475.908 697.853 478.368 699.05 480.715C701.052 484.642 703.17 490.893 706.241 497C708.787 502.065 710.082 501.089 712.036 505C713.117 507.164 712.952 511.472 714.63 514.961C715.905 517.609 717.156 518.614 718.907 521.156C720.368 523.275 722.658 526.122 724.498 527.885C726.989 530.272 728.056 531.304 730.603 534.985C733.746 539.529 738.005 540.234 741.008 542.572C747.856 547.906 742.061 546.902 747.572 557C751.193 563.637 750.545 564.115 753.376 568.776C755.108 571.628 757.156 572.17 761.062 572.835C764.039 573.341 765.589 573.57 768.062 575.274C771.509 577.65 772.885 578.537 775.893 580.8C778.424 582.704 780.809 585.607 783.077 587.561C786.786 590.757 791.452 593.388 794.803 597.094C799.762 602.578 799.678 606.643 805.236 609.683C808.371 611.397 810.962 611.078 813.062 611.436C815.968 611.93 820.844 613.547 824.062 616C822.532 617.548 821.026 619.021 819.297 621.021C818.917 621.461 818.214 622.587 816.353 624.831C813.877 627.815 811.348 629.815 811.058 630.09C806.686 634.232 803.635 637.428 800.062 641L800.098 629L801.878 622L802.062 610M441.062 456V457M1150.06 457C1150.51 460.559 1151.07 461.836 1151.95 464.002C1152.12 464.408 1152.68 465.877 1153.84 468C1156.72 473.265 1157.26 474.488 1157.29 477C1157.34 481.17 1156.17 487.915 1155.22 491C1153.8 495.647 1153.13 497.527 1151.55 501C1149.53 505.457 1144.5 507.535 1138.58 516C1137.2 517.967 1136.51 523.042 1134.46 525.545C1131.35 529.357 1128.95 530.037 1125.81 533.997C1123.84 536.48 1120.11 538.814 1117.62 540.97C1113.73 544.348 1111.55 551.594 1106.97 555.867C1104.23 558.425 1102.16 558.308 1098.19 560.934C1093.29 564.177 1090.39 569.032 1088.39 572.169C1087.38 573.746 1086.78 576.181 1083.87 578.012C1080.78 579.96 1076.69 579.955 1074.06 581.549C1070.16 583.918 1066.14 588.078 1061.97 590.73C1059.21 592.489 1057.1 594.258 1054.06 596.545C1049.24 600.169 1047.7 600.476 1043.06 603.804C1040.71 605.494 1038.5 607.009 1036.06 608.385C1033.1 610.061 1031.65 610.993 1028.64 613.99C1025.44 617.172 1023.33 618.133 1019.06 619.615C1010.54 622.579 1001.39 626.007 996.062 627V619M435.062 466C434.832 467.29 433.829 479.272 433.625 481C433.327 483.525 433.072 485.224 433.109 488C433.244 498.148 432.636 504.764 444.062 510M444.062 510L441.062 517M444.062 510C445.052 510.184 445.981 510.404 447.223 510.582C448.053 510.7 448.811 510.843 450.067 510.911C458.008 511.344 461.295 511.521 466.638 508.025C468.898 506.546 476.623 503.796 480.062 503M925.062 467L938.062 472M435.062 469H438.062M602.062 472L611.062 480M1119.06 480L1102.06 496M431.062 481H433.062M481.062 496C481.085 496.804 479.631 499.03 483.062 502M427.062 497H432.062M1152.06 503C1157.67 508.604 1163.92 513.313 1165.42 518C1166.55 521.544 1164.34 526.664 1162 537C1160.98 541.529 1155.61 546.244 1151.02 551.004C1148.21 553.928 1146.49 555.814 1143.64 558.982C1136.58 566.812 1134.09 564.408 1125.1 573.094C1119.09 578.906 1118.77 582.596 1115.81 585.317C1115.43 585.66 1113.18 586.858 1112.09 588.495C1110.27 591.236 1111.12 592.177 1111.08 593C1110.98 595.272 1111.06 597.047 1111.06 599M512.062 513C512.291 515.147 512.1 521.064 511.048 522.946C508.734 527.085 505.503 527.433 504.062 528M183.062 515C181.595 519.301 179.719 522.093 175.062 522.853C172.516 523.269 170.341 522.888 168.062 524.028C164.368 525.876 161.875 529.35 158.638 532.986C154.865 537.225 152.844 537.323 149.091 543.015C146.966 546.238 147.043 549.527 145.974 552.986C144.963 556.256 141.853 558.557 140.465 562.04C138.648 566.598 139.216 569.011 139.214 574C139.214 579.573 138.93 581.52 139.214 583.941C139.257 584.309 139.14 585.874 140.669 586.879C142.986 588.401 145.445 586.65 146.066 586.416C149.257 585.211 152.258 584.659 158.065 579.95C162.498 576.356 165.624 576.078 170.065 572.762C173.521 570.182 175.164 569.035 178.976 565.68C182.799 562.316 186.939 559.412 191.065 556.707C195.046 554.097 197.391 553.782 201.641 549.781C208.548 543.279 212.087 541.177 219.065 538M511.065 524C513.857 526.853 517.723 532.186 520.39 534.582C526.178 539.781 529.655 539.993 539.065 540M1135.07 526L1143.03 534L1147.49 539L1150.13 541.976L1155.07 547M147.065 554H155.065M441.065 558C442.008 562.063 442.515 566.113 448.141 573C452.868 578.787 456.772 582.895 459.485 589C462.133 594.96 460.429 596.128 463.869 602.892C464.828 604.776 466.593 606.046 469.084 607.072C472.167 608.341 473.64 609.232 477.065 610.986C480.114 612.547 485.3 614.28 487.065 613.959C491.954 613.07 491.864 610.792 496.065 610.149C503.043 609.08 513.362 610.373 520.064 609.911C522.46 609.746 524.665 609.304 527.065 609M225.065 562C224.857 562.895 225.193 566.45 223.617 569.722C222.686 571.656 220.123 572.409 219.057 572.675C215.316 573.608 207.101 578.171 202.066 581.795C198.502 584.361 190.401 590.334 187.155 592.8C184.238 595.016 179.369 601.795 176.026 604.25C169.984 608.689 162.932 612.974 158.065 617.035C152.997 621.265 150.199 621.556 148.105 622.604C147.62 622.847 146.117 623.609 144.623 625.264C140.774 629.531 141.305 631.186 141.105 635C140.882 639.272 142.197 641.322 138.065 644M623.065 564C623.556 567.182 625.087 569.118 628.896 574.986C631.276 578.651 635.218 584.977 639.065 590M639.065 590C644.793 585.156 647.652 585.875 653.065 584.801C654.967 584.423 657.647 583.768 662.065 583.132C665.812 582.591 668.946 582.024 671.065 581.601C674.162 580.983 683.716 580.228 688.065 579.715C695.16 578.877 700.541 578.008 707.065 578C712.823 577.99 718.44 578.865 725.065 578.166C729.892 577.657 733.509 577.408 739.065 576.907C747.785 576.122 750.957 571.845 753.065 570M639.065 590C639.065 592.656 639.439 595.698 638.917 598.996C638.654 600.658 637.613 602.892 635.917 604.161C630.797 607.99 632.139 607.2 624.065 608.558C608.4 611.192 578.127 605.991 565.065 614M226.065 572C236.347 574.686 235.232 581.904 240.195 586.557C244.126 590.242 246.377 589.574 251.046 593.314C252.578 594.541 256.131 601.86 261.085 602.892C263.591 603.414 265.27 603.472 266.065 603.616C269.424 604.227 270.606 604.678 274.065 605.526C277.781 606.437 283.102 607.383 287.065 606.545C293.222 605.243 295.807 605.113 302.065 605.22C303.946 605.252 306.16 605.746 310.065 605.965C315.476 606.268 322.54 607.291 327.065 609.839C330.296 611.659 333.498 614.114 336.065 615.541C338.318 616.793 341.561 621.464 346.725 617.417C353.56 612.061 352.595 605.851 353.994 599C354.875 594.686 358.732 591.158 361.61 587.831C364.947 583.974 365.508 581.651 368.776 578.433C372.145 575.116 376.609 574.411 381.065 573.054C385.562 571.686 391.174 571.944 396.065 572.004C398.79 572.038 401.431 572.286 404.065 573.171C408.115 574.532 409.572 575.198 414.065 575.849C416.866 576.255 418.948 576.735 421.065 578.318C426.621 582.474 432.166 587.806 437.065 593L444.067 586.284L447.041 583.74L452.065 579M140.065 574H149.065M1086.07 578C1087.2 578.981 1089.75 582.419 1096.06 582.903C1098.26 583.072 1100.46 582.673 1102.07 582V579M1108.07 579V586M1108.07 586L1103.07 584M1108.07 586L1111.07 589M239.065 586C236.486 588.58 234.185 590.929 231.065 593.996C229.852 595.189 228.725 596.549 225.065 599.291C223.814 600.228 222.361 601.179 221.065 602.22C218.787 604.051 216.835 605.622 214.065 607.745C211.012 610.086 208.364 612.384 205.065 614.541C201.591 616.813 200.27 618.076 196.065 621.914C191.731 625.87 189.809 626.475 186.105 629.459C184.23 630.968 172.252 641.988 170.065 643.87C164.678 648.506 159.409 652.37 156.065 653.822C155.216 654.191 152.193 656.263 149.07 655.764C143.375 654.853 142.718 652.19 142.065 645M138.065 588C136.722 591.437 135.583 595.457 135.007 602C134.729 605.148 133.213 607.404 131.007 608.49C124.067 611.907 121.209 607.978 119.119 616.044C117.942 620.59 117.04 621.996 114.355 625.286C111.376 628.936 111.846 629.025 110.976 633C110.083 637.082 108.736 638.248 106.169 642C103.263 646.249 103.429 647.262 101.697 652C100.594 655.016 99.7823 656.7 99.1588 659C97.2963 665.871 98.6389 669.608 97.837 674C97.6876 674.819 97.3177 677.491 94.837 679.714C92.1328 682.137 90.7616 681.253 90.0646 681.112C86.5065 680.388 84.1861 679.101 81.0654 679M565.065 614L567.065 619M565.065 614C557.964 615.319 555.841 615.986 548.065 614.674C540.037 613.32 537.757 609.612 535.065 607M438.065 592C445.868 601.965 444.244 603.868 448.085 606.397C450.21 607.797 454.401 608.162 457.064 607.813C461.564 607.224 462.407 606.017 464.065 605M878.065 598C880.739 598.055 883.327 597.678 890.065 599.456C895.989 601.018 907.549 605.327 916.065 602.715C920.642 601.311 921.779 601.027 926.065 601.001C929.979 600.977 937.954 602.11 941.065 602.128C948.306 602.17 948.911 600.301 951.065 600M638.065 603C641.253 606.676 644.707 610.448 645.937 618C646.244 619.89 646.633 623.237 646.896 626C647.423 631.536 647.155 635.382 647.177 637.997C647.177 638.507 647.476 640.897 646.292 642.656C644.461 645.377 643.036 645.218 642.06 645.561C639.647 646.412 635.647 645.759 627.065 645C624.269 644.753 620.086 643.91 617.065 643.44C607.783 641.993 591.285 641.976 582.065 643.189C574.629 644.167 575.005 645.955 568.065 646C562.529 646.036 541.192 645.977 536.065 646.001C531.402 646.024 528.944 646.43 525.065 647.2C520.972 648.012 514.779 648.829 511.065 649.285C506.459 649.851 504.09 649.992 501.065 650C500.638 644.635 499.149 634.682 494.051 624C493.41 622.658 492.967 621.837 492.516 621.005C491.82 619.72 491.319 618.993 490.751 618.161C489.849 616.837 488.954 616.016 488.065 615M943.065 603V605M256.065 604C256.065 613.164 259.549 623.479 252.007 628.012C250.168 629.117 248.124 629.354 246.065 630.054C241.789 631.508 239.209 633.438 235.065 636.286C232.633 637.958 229.486 640.724 228.178 643.015C222.685 652.638 228.073 648.563 220.146 659C215.92 664.563 213.863 673.947 210.932 676.442C208.779 678.275 203.95 679.618 201.369 682.278C198.41 685.327 198.031 688.655 196.615 690.83C196.222 691.434 194.882 692.752 194.244 694.286C193.075 697.1 193.884 698.47 193.919 699.004C194.09 701.64 194.365 704.059 195.065 707M134.065 607C136.422 610.794 136.022 617.432 144.065 624M289.065 608C290.604 615.792 295.566 620.187 303.065 622M403.065 608C403.091 610.218 402.13 612.628 404.669 615.491C407.858 619.087 412.947 618.009 415.007 616.747L416.744 615.123C417.726 614.159 418.316 613.057 419.065 612M448.065 608C446.37 609.696 443.481 612.159 440.525 616C438.188 619.037 436.379 623.941 432.937 624.817C429.34 625.733 427.872 624.765 425.065 624.191C421.685 623.5 416.876 621.509 413.065 619M350.065 614H357.065M393.065 615L402.065 616M824.065 616C829.002 617.059 830.468 618.155 835.065 618.911C839.044 619.566 841.63 620.666 845.065 622.62C847.414 623.956 849.406 624.661 852.065 624.907C856.449 625.312 858.671 625.46 860.011 626.179C862.791 627.67 864.41 630.724 866.325 633.001C874.974 643.289 874.511 645.917 883.065 656C887.747 651.318 892.325 645.859 900.065 639.133C901.98 637.469 903.108 635.049 913.065 635.001C917.246 634.981 919.767 635.032 923.065 635.54C926.079 636.005 927.32 636.041 930.065 636.021C935.459 635.981 938.8 635.996 940.061 636.318C940.814 636.51 944.283 637.028 945.332 641.019C946.155 644.147 944.781 647.098 942.556 652C940.633 656.237 938.344 657.693 937.061 659C932.952 663.187 930.556 665.509 928.065 668C925.588 670.477 924.057 673.614 918.065 677.397C913.428 680.324 906.08 679 901.065 679C894.241 679 889.045 680.152 880.065 679.691C875.351 679.448 873.067 678.494 869.065 679.467C859.897 681.696 851.582 684.116 846.065 686.776C834.991 692.114 833.906 697.159 830.065 701C825.013 695.947 816.232 687.201 811.066 682C805.557 676.452 803.324 673.796 801.324 666C799.511 658.933 796.39 648 800.065 642M342.065 620C341.224 621.26 341.116 624.19 335.877 628.451C333.477 630.403 330.459 631.579 328.065 633.214C324.698 635.514 321.357 637.648 317.065 638.75C313.319 639.712 310.905 639.755 307.065 640.166C300.556 640.863 293.669 641.011 287.065 641C283.775 640.99 281.902 641.172 279.065 640.316C272.125 638.221 269.254 635.967 265.065 633.74C263.043 632.665 262.14 631.802 261.09 630.891C259.289 629.33 257.779 627.708 256.065 626M947.065 620C947.323 621.669 947.577 623.353 948.669 625.025C949.325 626.029 950.177 627.051 951.124 627.966C952.038 628.849 952.808 629.769 954.066 630.512L956.065 631.548C960.997 632.674 965.216 631.57 972.065 630.2C975.604 629.492 979.506 628.526 983.065 628.171C988.724 627.605 989.448 628 995.065 628C997.431 630.536 999.103 632.351 1000.19 635.002C1000.61 636.02 1000.39 637.596 1002.23 640.982C1004.89 645.86 1008.75 647.447 1011.15 649.329C1013.02 650.8 1014.98 652.34 1017.07 653.999C1020.79 656.953 1024.32 658.258 1028.07 660.822C1033.17 664.311 1036.14 665.306 1040.49 668.955C1043.33 671.336 1052.9 675.66 1055.35 677.684C1057.39 679.368 1058.87 680.269 1060.98 682.208C1071.6 692.006 1077.12 695.961 1079.07 706H1068.07M895.065 624C893.28 630.362 884.059 638.007 878.065 644M436.065 627L436.47 629.159C437.626 636.341 436.872 642.782 439.065 650M439.065 650L447.065 648M439.065 650C438.499 658.8 435.992 659.881 433.936 661.852C433.245 662.514 432.44 663.821 429.065 664.685C423.527 666.104 419.684 663.235 419.065 662.782C416.655 661.015 415.788 659.323 410.065 657.576C402.748 655.341 398.525 648.437 393.065 647M955.065 632C952.64 634.214 951.072 635.582 946.065 639M925.065 637V645V648V653V669M208.065 644L227.065 643M851.065 642V684M647.065 643C650.239 646.682 651.886 647.949 653.207 653C654.853 659.293 654.915 668.595 655.052 675C655.13 678.688 655.086 679.778 655.064 683C655.049 685.206 654.865 688.346 654.037 690C649.34 699.394 645.548 699.022 642.065 700M721.065 644C717.883 646.086 716.679 645.201 715.065 645M722.065 647C726.217 649.432 726.331 650.932 730.026 654C732.864 656.356 733.524 658.454 736.359 660.714C741.083 664.481 742.918 667.353 746.956 670.683C749.074 672.43 750.898 675.281 753.194 676.455C758.295 679.064 759.95 680.04 761.065 681.058C766.496 686.018 769.662 689.596 773.065 693L800.065 720C802.922 722.857 805.654 725.588 809.065 729C810.291 730.226 810.977 730.891 814.065 734C815.876 735.824 817.333 737.278 817.917 738C819.462 739.911 821.525 744.785 821.007 751C820.548 756.501 818.579 756.737 818.093 761C817.337 767.64 818.569 778.404 817.78 785C817.511 787.243 818.688 791.137 814.632 795.852C812.813 797.966 811.326 798.317 811.05 798.411C808.66 799.225 806.949 799.243 805.065 799.764C797.294 801.913 786.93 813.13 778.065 815.205C770.593 816.954 763.735 817.964 756.065 820.894C752.885 822.109 749.028 826.342 746.065 827.393C742.39 828.697 736.734 827.072 732.065 828.746C726.287 830.819 722.837 831.886 713.065 835.634C710.36 836.672 706.831 837.941 703.065 841.187C700.923 843.034 699.403 844.601 697.155 846.714C693.646 850.012 690.674 853.276 686.78 856.78C684.807 858.555 681.967 860.5 680.065 861.941C676.223 864.851 675.724 864.603 671.105 868.093C668.93 869.736 659.859 875.007 658.07 875.692C655.293 876.756 652.415 877.008 652.543 882.005C652.593 883.961 653.526 886.131 654.768 887.83C657.683 891.818 663.023 894.37 665.059 899C666.848 903.068 664.621 903.931 663.838 905C663.379 905.625 662.1 906.975 659.49 910C658.074 911.64 657.142 912.739 656.915 913C655.494 914.634 654.502 915.603 653.684 916.995L652.817 918.941C652.805 919.559 651.897 920.827 653.688 921.972C657.027 924.106 665.608 923.709 669.057 922.397C671.115 921.613 673.201 921.232 673.702 916.995C673.951 914.892 672.875 912.475 672.712 912C671.504 908.485 669.182 905.374 667.065 903M501.058 650.001C499.251 653.119 497.736 659.273 496.87 663C496.347 665.248 495.786 666.813 493.829 668.416C487.976 673.21 486.446 671.738 483.059 676.026C481.119 678.481 479.048 680.321 477.472 683.171C475.25 687.186 474.21 689.609 472.458 691.982C471.186 693.705 468.477 696.441 467.322 697.711C463.519 701.888 465.117 703.196 465.058 705.001M883.058 656.001C883.058 666.153 881.942 672.047 876.058 678.001M148.058 657.001V669.001C148.058 676.554 146.539 676.514 149.09 682.947C150.09 685.468 151.58 686.43 152.202 686.852C153.955 688.043 159.252 688.848 166.058 689.015C181.686 689.399 184.081 693.994 193.058 694.001M688.058 659.001C688.815 660.487 689.471 661.621 691.603 664.157C693.04 665.866 695.128 668.179 697.151 669.201C699.26 670.265 701.341 670.461 704.772 672.57C708.361 674.776 711.228 675.749 714.794 678.755C721.52 684.424 720.15 688.203 723.058 692.001C722.013 692.906 721.081 693.919 719.897 694.647C719.041 695.173 718.311 695.68 717.053 696.126C707.177 699.634 701.357 698.36 690.058 702.285C684.556 704.197 680.424 705.724 675.058 705.961C671.01 706.14 669.257 706.199 667.058 705.986C661.786 705.477 657.366 696.305 654.058 691M371.058 660C370.416 664.938 369.743 666.728 367.339 670.286C366.641 671.32 366.026 673.288 364.139 675.723C361.887 678.628 358.384 678.89 356.058 679.403C350.133 680.709 339.022 689.978 333.039 692.566C325.768 695.711 308.399 701.399 312.61 710.982C313.105 712.106 313.753 712.957 314.476 713.723C315.811 715.136 317.272 715.952 320.059 716.981C325.444 718.969 329.177 719.663 331.058 720.318C334.21 721.416 340.736 724.462 346.058 723.65C347.839 723.378 351.881 721.411 354.058 720.675C355.915 720.048 359.044 719.419 360.968 718.49C367.972 715.111 367.672 713.814 370.999 707C373.36 702.165 373.979 698.554 374.545 697C374.709 696.55 375.61 694.909 375.266 693C374.241 687.315 371.632 687.05 365.887 679.159L364.058 677M683.058 663L687.058 662M432.058 664L444.058 672.111L453.058 673.764L463.058 676.985L469.058 677.863L477.058 683M421.058 667C421.058 671.914 421.639 676.783 420.03 680C418.664 682.732 416.189 685.79 411.058 688.741C407.046 691.048 404.398 693.097 403.661 695.019C402.647 697.665 402.654 707.065 403.201 710.995C403.786 715.193 405.214 715.827 406.058 717M406.058 717C410.058 713 411.904 711.055 415.058 708.039C415.42 707.694 417.829 705.531 421.058 702.716C425.691 698.676 424.05 696.893 431.058 696.553C432.706 696.473 435.48 697.109 437.058 697.387C445.153 698.814 457.077 699 465.058 699M406.058 717L406.057 724M496.058 668C497.893 669.84 499.879 671.795 504.442 676.83C507.696 680.421 511.876 685.81 513.728 689C516.581 693.913 519.134 700.909 523.058 706L531.058 704M212.058 677C213.075 678.017 213.974 678.934 215.218 680.157L217.083 681.985C223.293 687.807 225.808 693.032 227.901 695.852C228.181 696.23 229.148 697.917 232.076 698.682C240.415 700.86 238.445 699.02 248.058 701.523C250.952 702.276 253.178 702.78 255.058 703.344C258.248 704.3 264.115 704.917 268.058 705.015C276.942 705.236 289.026 706 298.058 706H310.058M918.058 678C930.1 690.042 936.144 693.531 941.058 697.845C943.645 700.116 945.277 701.71 953.018 706.255C956.999 708.593 964.311 716.097 969.058 719.575C972.407 722.03 976.502 723.195 979.968 725.301C982.599 726.899 986.383 731.045 990.059 732.725C994.149 734.596 1001.52 736.294 1004.06 736.67C1004.99 736.808 1006.78 737.258 1008.95 736.393C1012.76 734.877 1015.64 727.615 1018.15 726.604C1019.38 726.11 1021.39 726.065 1024.06 725.986C1026.66 725.91 1028.13 725.417 1030.74 725.844C1032.81 726.181 1033.14 728.112 1033.06 728V731M97.0579 679L106.058 681.285L120.058 683.455L130.058 686.13L137.058 687.144L148.058 686M420.058 681C423.485 684.44 427.929 685.108 428.058 696M91.0579 683C90.5396 685.741 89.5039 691.803 88.9746 697C88.3923 702.717 87.2446 704.813 86.7523 707C86.5989 707.682 85.53 709.724 87.3912 711.667C89.5937 713.965 91.4486 712.976 92.0579 713C94.0645 713.079 96.6031 713.569 104.058 714C109.334 714.305 115.146 717.508 119.058 719.083C121.073 719.895 121.924 719.936 124.058 720C127.015 720.089 130.802 720.394 134.058 721.389C136.867 722.247 147.99 722.735 151.058 723.417C156.477 724.621 161.506 726.103 167.058 726C174.778 725.857 174.995 726.027 181.058 727.472C184.845 728.375 186.878 728 191.058 728C197.283 728 202.216 727.625 210.058 729.695C214.356 730.829 216.441 731.705 221.058 731.972C227.016 732.317 227.097 733.485 228.058 729M196.058 692C198.112 694.047 199.966 696.295 203.059 698.492C203.853 699.055 204.941 699.887 208.058 700.946C211.572 702.14 215.085 703.029 216.058 703.326C220.618 704.718 227.719 707.061 230.058 699M377.058 693H386.058L403.058 694M724.058 694C727.228 695.055 730.766 696.986 739.058 697C743.959 697.01 749.289 697.446 751.058 697.809C758.716 699.38 760.73 702.68 765.058 707C773.057 714.983 776.529 718.471 781.058 723L799.058 741L809.058 751C810.355 752.297 811.328 753.27 817.058 759M429.058 697V705M830.058 701C829.99 702.586 829.902 704.04 829.633 706.025C829.567 706.515 829.327 707.371 829.147 710C829 712.152 829.059 714.423 829.057 715C829.041 719.847 828.549 727.934 824.318 734.975L822.954 736.84C821.977 738.122 821.01 738.982 820.057 740M1079.06 706C1079.61 706.9 1080.69 711.23 1083.05 714.776C1084.89 717.551 1088.86 718.541 1091.06 719.369C1102.14 723.552 1107.36 729.984 1112.06 731M522.057 707C521.298 712.14 519.396 714.836 516.843 721C513.922 728.051 512.397 735.078 505.057 740.25C500.515 743.45 497.678 744.076 492.057 745.37C485.629 746.851 481.042 747.068 475.057 746.996C468.463 746.918 458.195 746.017 452.057 742.907C448.871 741.292 441.343 738.909 438.111 737.013C432.619 733.79 431.93 730.25 427.057 728.746C419.437 726.396 417.105 725.173 413.058 725.045C412.253 725.02 410.251 724.4 407.343 726.027C404.17 727.803 401.766 730.703 401.043 731.103C398.348 732.594 393.414 731.373 390.057 730.348C387.994 729.718 386.763 729.645 382.057 728.871C368.232 726.597 366.695 720.609 364.057 718M665.057 707L662.057 718M87.0574 713C84.6421 717.526 85.1976 725.735 85.0682 736C84.9852 742.562 85.5274 752.374 87.0574 756C95.3769 749.946 94.5124 750.067 108.057 750.001C119.878 749.943 125.493 751.862 138.057 754.545C140.999 755.173 142.986 754.999 146.057 755C151.211 755 156.999 754.911 162.057 755.576C168.18 756.38 170.795 755.986 178.057 756C182.43 756.01 184.244 756.146 188.057 757.46C192.147 758.869 196.499 758.998 201.057 759C204.077 759 206.888 758.759 210.057 759.803C214.254 761.187 215.511 762.2 219.057 762.985C225.332 764.373 233.829 764.691 240.057 765.201C243.1 765.45 246.687 764.99 250.057 765.001C257.717 765.027 257.14 765.364 266.057 768.334C270.668 769.869 272.903 770.758 277.057 770.96C282.844 771.242 297.12 770.883 303.057 771.729C309.894 772.704 310.782 773.252 315.057 774.425C318.793 775.451 324.156 775.614 329.057 774.852C333.589 774.147 334.243 773.986 337.454 768.995C338.431 767.476 338.909 765.615 338.979 764C339.111 760.986 338.313 759.009 336.74 757.054C332.604 751.914 332.609 752.314 326.057 750.115C323.466 749.245 319.646 748.196 317.057 747.334C311.64 745.53 299.723 742.13 296.116 743.208C294.759 743.613 294.309 744.381 293.668 745.003C292.745 745.896 292.54 747.001 292.057 748M746.057 714H770.057M332.057 715V720M1083.06 716C1080.76 718.128 1079.1 718.339 1068.06 723L1069.77 732L1068.45 741.981L1061.06 747M172.057 721V725M1034.06 724C1038.79 722.873 1047.66 723 1052.06 723C1059.94 723 1064.08 722.354 1067.06 723M181.057 724V727M345.057 725C344.374 728.682 344.058 731.088 344.057 738C344.057 740.736 344.129 743.782 344.017 746C343.588 754.484 340.365 755.527 338.057 758M405.057 728C408.503 731.924 410.76 734.69 413.106 739C415.453 743.313 418.619 747.898 422.057 748H423.057M86.0575 730H97.0575M229.057 733L232.057 734M232.057 734L230.057 740M232.057 734C236.819 734.508 240.182 733.974 244.057 734.01C249.119 734.05 251.891 734.851 257.057 736.367C260.983 737.52 271.104 738.405 275.057 739.225C283.459 740.968 285.646 740.889 295.057 741.005M235.057 735.005V741.005M288.057 735.005V740.005M463.057 736.005V743.005M493.057 736.005V744.005M1011.06 736.005L1013.06 739.005M927.057 740.005C929.592 744.006 930.899 742.826 932.057 743.005M927.057 742.005C924.123 744.277 920.86 746.881 918.773 750.031C915.662 754.726 912.098 759.164 909.784 761.577C901.651 770.059 894.01 773.053 889.057 778.005C879.876 787.186 871.739 795.324 864.057 803.005C860.437 806.626 857.21 809.193 854.299 813.005C853.73 813.751 850.747 814.391 853.226 821.005C856.77 830.458 861.435 833.904 862.018 835.005C864.525 839.738 867.275 841.952 870.968 847.095C872.734 849.555 872.824 852.414 878.072 854.402C880.326 855.255 884.572 855.005 887.057 855.005C891.441 855.006 893.426 855.005 897.057 855.005C898.216 855.005 901.131 855.225 904.057 854.746C914.437 853.048 913.921 852.368 922.057 852.016C932.054 851.583 936.725 843.339 942.057 838.005C947.174 832.889 951.314 830.92 951.744 825.005C952.694 811.925 957.665 797.278 966.057 797.005M1069.06 742.005C1071.63 746.126 1072.88 749.733 1075.06 754.005M1075.06 754.005L1083.06 748.005M1075.06 754.005C1075.56 760.521 1077.57 759.514 1079.06 760.005M418.057 749.005V752.005M1079.06 752.005H1083.06M87.0575 756.005C87.0575 758.977 86.8665 762.789 87.0966 768.005C87.3189 773.04 88.0664 780.034 91.8573 783.629C96.5522 788.081 98.49 782.51 101.057 780.001C101.704 779.369 102.709 777.981 106.057 775.154C107.846 773.643 109.887 772.622 111.057 772.32C114.249 771.498 122.94 772.386 127.057 774.31C133.019 777.096 135.653 778.292 141.057 780.282C145.106 781.773 146.431 781.734 150.057 783.48C153.628 785.2 156.891 786.206 161.057 787.274C166.787 788.743 175.551 789.659 181.057 791.095C190.389 793.529 192.323 792.88 203.057 796.006C207.94 797.428 208.722 798.116 213.057 798.885C215.752 799.363 218.195 799.027 221.057 799.009C224.535 798.986 226.635 798.862 230.057 799.715C246.921 803.919 266.928 801.7 284.057 802.03C289.964 802.144 292.85 802.083 298.057 802.144C300.489 802.172 302.661 802.145 305.057 801.842C306.952 801.602 309.065 801.286 310.779 800.067C315.586 796.65 315.302 794.341 315.927 789.005C316.221 786.502 316.056 784.764 316.057 784.005C316.067 780.926 316.057 778.741 316.057 776.005M1074.06 760.005L1066.82 783.005L1059.04 791.472L1047.61 794.608L1044.49 800.006L1040.33 806.911L1031.06 813.005M118.057 767.005V771.005M338.057 769.005C339.846 770.916 341.831 773.017 343.621 776.007C345.159 778.575 346.216 781.118 346.752 784.005C347.379 787.377 347.116 789.281 347.054 793.005C346.999 796.251 347.089 798.449 345.315 800.727C341.744 805.312 334.333 805.581 330.057 806.488C326.363 807.271 321.935 806.741 320.045 809.323C318.215 811.823 317.001 818.446 315.132 825.005C312.535 834.119 313.061 836.691 313.057 839.005C313.044 847.077 313.057 853.102 313.057 860.005C315.891 859.479 317.794 859.016 324.057 859.005H335.057C338.876 859.005 340.725 859.375 344.057 858.857C348.888 858.106 350.216 855.748 352.057 853.986C356.232 849.992 357.696 848.631 359.779 846.005C360.452 845.156 361.357 844.937 362.485 841.005C362.897 839.57 363.033 836.439 363.053 835.005C363.071 833.675 363.858 821.32 363.8 821.005C362.461 813.679 358.299 811.157 349.218 804.705C347.904 803.773 347.024 802.854 346.057 802.005M961.057 778.005C960.788 782.257 957.434 789.238 957.057 798.005M962.057 781.005L969.057 780.005M348.057 785.005C356.81 783.537 361.864 784.828 366.057 785.005M1007.06 784.005V788.005M1007.06 788.005C1011.1 788.19 1013.2 789.439 1019.06 789.912C1030.51 790.837 1043.63 791.745 1047.06 794.005M1007.06 788.005L1002.06 798.005M96.0571 787.005C96.6442 789.574 97.6434 792.022 97.9637 796.005C98.6919 805.06 100.244 814.16 102.071 816.916C104.013 819.845 107.757 824.383 110.241 826.948C112.887 829.679 119.741 831.391 121.512 832.864C124.388 835.255 124.636 836.68 127.567 841.005C128.876 842.936 130.923 847.236 132.335 849.005C140.129 858.774 144.026 864.514 147.625 871.005C148.398 872.399 148.819 873.675 151.187 875.688C153 877.229 157.488 877.987 160.057 878.005C163.411 878.028 167.224 876.69 175.057 879.005L174.057 899.005L172.057 924.005M990.057 788.005C994.061 789.873 997.84 789.909 1001.99 799.005C1004.28 804.021 996.929 820.355 991.628 826.951C988.127 831.308 982.323 832.464 979.057 833.752C970.886 836.972 970.41 838.113 967.057 839.737C960.909 842.715 953.234 851.721 947.057 853.857C944.708 854.669 942.842 854.877 940.057 854.877C939.621 854.877 938.479 854.887 936.059 854.373C931.707 853.451 929.288 851.173 929.057 851.005M815.057 796.005C820.196 803.484 822.637 806.841 823.602 810.001C824.053 811.478 822.806 812.741 825.66 814.978C827.464 816.392 835.36 816.005 839.057 816.005H844.056H851.057M214.057 800.005V804.005M312.057 800.005C315.839 803.787 316.855 804.803 320.057 808.005M289.057 803.005V809.005M299.057 804.005C299.311 807.804 299.49 810.455 296.894 814.877C293.311 820.979 287.167 825.608 285.786 829.005C285.35 830.078 285.122 831.074 284.901 832.005C284.424 834.017 284.222 835.629 284.151 837.005C283.81 843.602 291.53 850.498 297.057 856.005C299.084 858.025 300.729 860.06 303.057 861.499C304.368 862.309 304.603 863.397 312.057 861.005M366.057 821.005C371.593 816.308 378.436 816.018 383.057 816.005M145.057 818.005C144.952 826.87 136.766 833.297 129.057 841.005M348.057 824.005H363.057M196.057 831.005C196.057 842.005 196.259 852.997 196.057 864.005C195.948 869.793 195.497 879.005 175.062 879.005M875.062 853.005C872.313 855.754 870.186 857.881 866.062 862.005C861.506 866.561 853.524 873.48 850.665 878.005C846.478 884.635 847.402 893.774 846.972 900.005C846.615 905.184 844.617 911.447 844.062 916.005M950.062 854.005C953.714 857.658 956.69 860.633 962.062 866.005C965.57 869.514 970.417 875.109 975.062 877.202C976.485 877.843 977.606 878.408 981.062 878.821C983.107 879.066 987.344 878.911 988.744 877.978C993.725 874.658 991.037 872.082 991.062 870.005M906.062 855.005C908.899 860.321 907.935 861.256 908.37 863.005C909.346 866.925 911.93 870.507 912.039 874.005C912.227 880.091 911.441 890.212 909.789 897.005C908.017 904.294 908.837 909.865 906.062 922.005M348.062 858.005C352.145 862.075 352.419 862.959 356.062 865.148C358.006 866.317 361.111 867.066 363.062 867.846C368.546 870.039 370.828 870.403 373.062 871.148C377.16 872.517 378.795 875.757 388.062 874.835C391.949 874.448 396.11 873.031 404.062 873.005C412.412 872.978 423.254 870.965 432.062 873.554C437.494 875.151 437.675 876.633 443.062 876.969C446.589 877.19 449.273 877.488 452.062 877.875C455.249 878.318 462.665 878.782 466.062 879.806C469.657 880.89 471.609 882.638 475.062 884.347C479.487 886.539 482.07 886.686 487.062 889.046C492.746 891.733 500.192 896.565 504.061 899.839C509.724 904.633 515.164 909.635 515.072 918.005C515 924.591 513.831 928.471 511.852 935.005C511.018 937.759 510.109 938.614 509.066 941.005C508.342 942.666 508.089 944.313 508.025 946.005C507.81 951.756 507.354 953.424 506.781 955.005C506.56 955.613 503.746 958.506 506.685 961.236C508.873 963.27 512.234 962.616 513.062 962.786C517.513 963.705 521.376 964.802 526.062 962.987C527.05 962.604 528.846 961.781 532.062 960.676C535.42 959.522 538.101 958.735 539.062 958.519C543.095 957.616 544.935 957.35 548.062 957.265C549.315 957.231 550.32 957.638 555.062 957.836C564.353 958.224 566.539 959.346 574.062 960.426C578.646 961.084 586.59 962.006 591.062 960.822C600.313 958.372 603.866 954.471 606.219 950.952C607.094 949.642 607.507 946.002 610.572 942.18C612.292 940.035 613.868 939.129 616.063 937.626C620.151 934.827 625.683 930.358 631.062 930.043C634.796 929.824 635.687 929.811 639.062 930.005V931.005V933.005M304.062 864.005C300.725 867.343 298.408 870.032 295.062 872.858C293.351 874.303 291.072 875.964 285.062 876.005C277.421 876.058 273.352 874.899 266.733 877.238L265.058 878.005M265.058 878.005C269.503 882.451 269.752 882.699 271.062 884.01C272.986 885.933 274.467 887.414 276.058 889.005C280.709 893.656 284.588 897.535 290.058 903.005C294.086 907.033 299.849 912.7 301.058 917.005M265.058 878.005C257.565 878.005 244.671 878.426 238.058 879.005C229.563 879.749 223.859 880.014 214.058 880.144C203.225 880.288 196.683 882.608 188.058 878.005M646.058 865.005C646.021 865.691 647.351 868.004 644.317 871.689C643.233 873.005 642.113 873.351 641.994 873.402C640.46 874.052 639.341 873.908 638.058 874.005M366.058 870.005C365.566 875.468 363.379 879.773 361.732 885.005C361.127 886.929 360.008 888.694 359.242 895.005C358.28 902.938 357.876 905.441 356.204 907.872C355.871 908.355 355.096 909.551 352.964 910.687C350.584 911.955 346.319 912.11 345.077 912.605C338.401 915.264 340.15 919.178 340.058 922.005M693.058 870.005L694.058 877.005H691.058M707.058 872.005L708.66 877.112L715.058 878.005M645.058 873.005L652.058 879.005M293.058 875.005C297.351 879.298 297.783 879.73 299.062 881.01C301.217 883.164 302.538 884.486 304.058 886.005C308.876 890.823 312.905 894.898 320.058 902.005C321.783 903.719 322.183 907.161 330.058 909.433C333.311 910.371 340.142 910.775 343.058 911.005M436.058 876.005V882.005M152.058 877.005L130.058 899.005C126.717 902.346 124.975 905.639 118.058 910.491C116.006 911.931 109.842 912.67 106.358 915.519C103.89 917.537 101.014 922.169 98.0186 924.741C92.7069 929.302 88.5561 928.484 83.5131 934.135C80.9369 937.022 75.7863 942.853 75.1559 948.005C74.4981 953.381 76.9984 958.394 79.3448 963.005C81.4882 967.217 82.1053 969.468 84.2778 971.036C87.6102 973.441 95.5475 981.898 98.1976 984.986C99.789 986.841 101.126 988.591 105.062 988.947C111.724 989.549 111.507 988.528 115.228 992.916C117.414 995.494 119.346 995.58 123.058 996.26C127.533 997.08 130.521 997.966 135.058 999.545C141.742 1001.87 150.067 1002 156.058 1002.01C160.551 1002.02 162.633 1001.93 167.058 1003.63C173.833 1006.22 176.255 1006 182.058 1006.01C185.901 1006.02 190.755 1005.73 195.058 1007.01M195.058 1007.01L194.058 1008.01V1009.01V1010.01M195.058 1007.01L206.058 1008.01H213.058H221.058H231.058M696.058 878.005L706.058 879.005V882.005M990.058 878.005C998.785 887.796 994.596 887.637 1001.18 894.72C1007.34 901.344 1010.78 903.779 1014.3 910.02C1017.16 915.077 1021.52 918.265 1026.48 922.97C1030.21 926.511 1030.85 926.112 1032.62 930.059C1034.26 933.723 1035.03 935.754 1037.73 938.832C1040.06 941.488 1041.79 942.614 1043.07 943.392C1047.08 945.829 1050.28 945.878 1053.06 946.005M233.058 880.005C236.84 883.787 240.067 887.014 245.058 892.005C248.59 895.537 254.222 900.645 256.74 904.005C260.099 908.489 259.454 911.591 258.928 916.005C258.487 919.71 256.163 923.112 254.151 927.005C253.579 928.112 253.365 929.05 251.754 932.986C251.843 932.769 243.669 943.184 243.735 943.025C242.261 946.558 243.113 947.229 239.643 950.496C234.073 955.739 226.243 956.006 220.058 956.005C213.619 956.005 210.109 954.411 204.058 955.343C199.081 956.11 196.299 956.979 191.058 957.005C181.279 957.052 168.741 957.005 159.058 957.005C154.831 957.005 152.291 957.351 148.058 956.295C140.388 954.383 127.929 954.668 120.058 952.605C117.485 951.931 116.046 951.244 113.343 949.341C109.397 946.562 106.4 942.85 105.058 938.005C102.53 928.878 99.9513 928.931 97.0579 926.005M213.058 881.005V895.005C213.058 902.841 214.984 909.895 213.438 919.005C212.808 922.723 211.455 925.933 209.022 934.005C208.65 935.242 206.702 940.214 206.242 944.005C205.493 950.183 206.058 952.251 206.058 954.005M107.058 883.005L126.058 882.005H145.058M757.058 882.005L759.058 891.005M759.058 891.005H749.058M759.058 891.005C765.806 893.615 770.329 891.042 772.058 891.005M761.058 893.005V895.005M725.058 908.005C725.345 911.642 725.812 915.23 726.496 919.004C726.732 920.304 726.295 921.02 729.058 926.005C736.247 919.359 742.226 922.001 749.058 922.005M355.058 910.005C357.442 912.572 359.685 915.739 363.097 917.727C364.563 918.58 366.764 919.311 371.057 920.009C375.897 920.796 376.941 921.692 380.188 924.195C383.739 926.932 385.356 927.759 388.562 932.095C389.721 933.661 392.763 941.004 394.334 941.808C398.615 943.997 400.149 942.066 401.058 942.005M516.058 919.005L529.058 914.005M943.058 915.005L954.058 917.92L960.169 921.765L961.058 927.005M675.058 919.005C677.912 920.754 681.198 921.18 686.058 922.755C692.855 924.959 694.823 928.407 701.058 930.912C703.572 931.922 712.979 933.029 716.058 933.008C719.049 932.988 720.345 933.293 723.039 932.857C726.472 932.301 727.529 930.293 729.058 927.005M962.058 922.005H973.058M639.058 929.005L651.058 923.005M801.058 935.005C801.072 934.42 799.565 931.027 802.8 927.594C805.939 924.262 809.478 925.12 810.058 925.005M791.058 929.005C793.368 928.666 794.227 927.688 802.058 927.005M727.058 932.005C730.002 934.949 732.414 937.547 737.058 941.965C739.812 944.585 743.816 947.302 745.794 949.33C746.864 950.427 748.717 952.212 749.834 957.005C751.175 962.756 751.724 965.089 755.113 967.402C757.234 968.85 761.42 969.004 765.058 969.005C776.677 969.015 778.638 968.448 782.058 967.005L783.058 977.005M709.058 934.005C709.88 944.329 711.465 944.698 713.234 950.005C713.866 951.902 715.123 957.355 717.367 961.965C720.758 968.929 728.636 973.348 730.147 974.504C730.774 974.983 731.544 975.463 733.062 975.642C735.109 975.882 742.235 973.113 746.058 972.311C752.034 971.059 753.381 969.423 755.058 968.005M855.058 937.005C856.42 936.833 857.665 936.64 859.103 936.427C860.009 936.293 860.716 936.182 862.059 936.03C867.396 935.426 879.575 936.49 882.633 939.284C883.153 939.758 884.938 941.762 887.097 944.006C890.222 947.253 891.096 948.043 892.058 949.005C895.527 952.476 898.541 955.488 902.058 959.005M902.058 959.005C898.409 961.661 895.947 961.772 892.058 963.689C888.647 965.37 887.892 966.914 884.058 968.277C880.606 969.505 874.917 969.233 872.058 969.814C866.203 971.004 863.846 972.585 861.058 974.005C861.539 974.873 862.438 976.427 863.273 979.03C865.973 987.444 865.814 985.528 868.728 994.005C869.709 996.857 870.931 1001.35 874.268 1006.01C875.981 1008.39 878.459 1011.06 880.014 1013.01C884.22 1018.26 883.944 1021.56 884.058 1024.01M902.058 959.005C906.207 958.663 908.876 958.087 910.454 956.446C912.267 954.561 911.921 952.8 912.058 951.005M867.058 936.005L868.058 942.005M232.058 1005.01C235.884 1009.38 239.245 1007.01 247.058 1007.01C254.063 1007.01 256.077 1006.71 262.058 1005.52C267.531 1004.43 281.436 1005.66 287.058 1004.25C294.22 1002.45 294.339 1002.27 301.058 1001.97C309.684 1001.57 311.655 1000.77 317.058 997.315C322.284 993.975 328.433 993.263 335.058 992.987C343.18 992.649 344.397 987.667 351.058 988.742C359.532 990.11 358.246 993.783 368.058 987.46C380.423 979.491 381.494 972.154 383.424 968.021C383.977 966.838 383.703 964.711 387.247 963.714C389.212 963.161 391.701 964.072 392.059 964.12C394.067 964.385 401.181 965.006 408.058 965.005C418.458 965.005 419.199 962.372 426.058 960.76C432.481 959.25 438.208 960.553 446.058 961.581C452.385 962.409 461.713 959.275 471.058 965.005C474.705 959.699 475.618 958.543 476.523 957.005C479.051 952.711 478.846 949.375 482.537 945.175C484.42 943.033 484.802 940.498 491.058 938.694C492.483 938.283 494.436 938.535 496.058 938.739C503.215 939.64 503.878 940.582 507.058 943.005M987.058 938.005C987.261 939.279 986.319 941.009 989.376 942.983C992.01 944.684 998.358 942.736 1003.05 942.029C1006.98 941.439 1007.8 941.946 1009.06 942.005M1005.06 938.005V941.005M556.058 939.005C556.027 942.682 554.902 946.116 555.446 950.004C555.633 951.34 556.067 951.912 558.058 957.005M988.058 943.005C986.787 943.785 984.807 944.956 982.053 945.774C979.316 946.587 977.383 947.394 975.058 948.296C966.248 951.712 961.252 950.155 959.661 952.288L959.206 953.903C958.949 954.966 959.091 955.986 959.058 957.005M392.058 944.005C392.058 959.186 389.904 959.032 388.058 962.005M997.058 945.005V947.005M747.058 950.005C748.375 948.892 749.531 947.631 751.103 946.988C754.515 945.593 763.964 943.19 772.004 948.095C778.564 952.098 779.019 955.881 781.353 959.001C782.208 960.144 782.417 961.427 785.187 963.402C787.736 965.219 792.915 965.536 796.058 965.836C799.031 966.119 801.37 966.005 804.058 966.005C806.653 966.006 809.651 965.897 812.058 966.19C819.41 967.084 822.447 969.676 825.058 971.005M825.058 971.005C823.361 976.748 824.051 977.553 824.062 979.005C824.096 983.233 825.806 985.774 827.803 993.005C828.536 995.66 833.518 1004.29 839.043 1008.58C840.773 1009.92 842.675 1012.48 843.857 1013.88C847.462 1018.14 849.691 1016.93 852.058 1017.01M825.058 971.005C834.22 971.804 834.296 972.977 840.058 973.005C844.536 973.027 857.475 973.242 860.058 974.005M964.058 947.005V949.005M241.058 951.005C243.266 952.229 245.898 954.085 252.058 953.873C254.356 953.794 257.26 952.953 259.056 952.805C262.334 952.535 263.76 952.926 266.058 953.005M911.058 957.005C914.259 958.826 915.407 958.473 917.062 957.862C920.405 956.629 922.183 956.397 931.058 955.965C939.882 955.536 950.954 952.031 959.058 951.005M36.0579 953.005C36.0949 953.118 35.9542 955.063 37.6605 956.022C40.4039 957.565 42.4607 957.01 46.0579 957.005C56.7995 956.993 63.22 955.56 68.0533 954.875C70.2484 954.564 70.6535 954.436 74.0579 954.005M0.0578613 962.005L10.0579 960.839L18.0579 959.913L35.0579 957.005M378.058 960.005L385.058 965.005M901.058 960.005C909.6 968.649 907.997 969.848 907.058 975.005M472.058 964.005C473.234 964.633 473.819 965.466 477.083 965.881C482.867 966.617 498.765 964.248 504.058 962.005M591.058 962.005C592.397 963.551 593.57 964.759 594.245 966.05C594.731 966.981 595.168 967.663 595.487 969.007C597.168 976.099 593.579 985.228 601.318 993.916C603.834 996.741 606.254 998.543 609.058 1000.99C612.995 1004.42 616.014 1004.81 619.348 1008.02C622.189 1010.75 624.135 1011.79 628.058 1012.77C633.442 1014.12 636.334 1014.91 641.058 1017.01M641.058 1017.01L640.058 1028.01M641.058 1017.01L653.058 1017.01M502.058 963.005L511.058 975.005M785.058 965.005L783.058 967.005M730.058 978.005C728.866 980.812 728.05 983.609 723.058 985.836C721.013 986.748 718.494 988.463 716.892 990.025C711.46 995.317 705.31 1002.43 703.599 1008.02C702.428 1011.84 702.132 1012.91 701.347 1015C701.164 1015.49 700.942 1016.91 699.356 1018.69C697.69 1020.56 695.854 1020.73 695.043 1020.86C692.542 1021.26 689.24 1021.01 683.058 1021.01C668.825 1021.01 656.249 1015.03 653.376 1021.11L653.117 1022.87L653.058 1025.01M933.057 980.005C935.226 984.012 935.151 984.17 940.058 985.886C943.519 987.097 944.808 987.204 949.057 989.005C952.345 990.398 955.479 991.34 959.057 993.045C962.216 994.551 963.105 995.075 965.633 997.305C968.725 1000.03 972.261 1003.35 976.057 1004.63C988.642 1008.88 993.67 1013.77 997.057 1017.02C998.757 1018.66 1000.59 1020.54 1003.06 1023M1003.06 1023C1003.63 1023.57 1004.94 1025.07 1007.06 1026.86C1009.04 1028.53 1010.3 1029.17 1011.06 1029.4C1014.29 1030.38 1017.62 1030.29 1022.06 1029.72C1027.57 1029 1037.6 1026.63 1041.06 1024.41C1045.85 1021.32 1045.21 1019.51 1050.9 1012.23C1054.4 1007.75 1058.24 1010.1 1061.74 1007.26C1065.42 1004.28 1064.65 1001.52 1065.06 1000.01M1003.06 1023C1007.21 1018.81 1007.48 1018.51 1008.55 1017C1010.01 1014.96 1011.57 1014.17 1014.49 1006.01C1014.89 1004.87 1015.67 1000.61 1016.06 999.005M933.057 982.005L928.057 984.005M586.058 984.005H595.058M1017.06 986.005V998.005L1026.06 997.005M213.058 1002.01V1011.33V1013.01M170.058 1006.01V1010.01M1063.06 1007.01L1069.06 1010.01M228.058 1009.01V1014.01M1071.06 1014.01C1069.06 1026.98 1057.46 1025.22 1051.06 1026.96C1048.52 1027.66 1046.38 1028.82 1041.06 1025.01M701.057 1021.01C706.095 1023.74 704.926 1025.11 709.061 1030.01C711.107 1032.43 712.039 1033.31 713.183 1036.01C714.341 1038.73 715.122 1041.42 717.151 1044C721.899 1050.05 727.389 1054.12 736.057 1055.75C741.54 1056.78 742.714 1057.52 747.053 1057.65C750.075 1057.74 751.445 1055.9 752.045 1054.91C754.769 1050.4 752.898 1045.89 752.057 1043.01M1004.06 1024.01C1001.92 1027.45 1001.33 1030.35 999.304 1034.01C996.694 1038.72 994.67 1040.68 991.054 1043.2C988.714 1044.83 984.27 1045.97 982.057 1046.88C976.852 1049.02 977.377 1052.32 966.057 1054.61C959.659 1055.9 950.273 1057.59 946.266 1061.28C937.242 1069.6 942.419 1071.98 925.057 1072.01C910.569 1072.03 905.637 1072.32 900.057 1071.18C897.83 1070.72 892.148 1071.89 887.206 1068.98C884.21 1067.21 884.583 1065.79 884.376 1064.99C883.614 1062.02 884.245 1059.42 885.057 1056.01M711.057 1032.01L720.057 1026.06L732.057 1025.01M1065.06 1025.01C1065.18 1025.12 1067.22 1027.06 1069.99 1030.03C1071.88 1032.06 1072.77 1033.22 1073.48 1033.95C1075.33 1035.84 1081.77 1038.8 1090.06 1036.37C1097.76 1034.11 1100.97 1033.17 1107.06 1033.02C1110.37 1032.94 1114.98 1033.04 1118.06 1033C1120 1032.98 1123.98 1032.23 1127.06 1032.3C1130.16 1032.38 1131.24 1033.22 1132.06 1033.6C1136.01 1035.4 1141.91 1036.86 1149.06 1043M1076.06 1037L1068.06 1040M754.057 1049C756.07 1049.24 757.927 1049.6 760.062 1049.55C761.235 1049.52 762.434 1049.29 764.057 1049.17C775.435 1048.31 783.131 1048.72 785.855 1053.14C786.638 1054.41 786.209 1065.75 786.599 1066.95C787.584 1069.98 789.029 1070.94 794.057 1071.86C797.466 1072.48 803.629 1074.92 808.999 1071.98C813.374 1069.58 812.595 1067.64 812.909 1066C812.968 1065.7 813.047 1064.71 813.039 1063.01C813.024 1059.96 812.314 1057.87 812.057 1057M812.057 1057C814.236 1056.37 817.13 1055.94 821.057 1056.62C824.573 1057.23 826.941 1057.76 828.054 1058.15C832.3 1059.66 833.701 1062.03 835.389 1064.99C835.863 1065.82 835.768 1067.23 837.897 1068.99C840.95 1071.52 847.779 1070.99 849.057 1071C852.687 1071.04 859.566 1070.98 862.057 1069.4C868.377 1065.38 868.305 1062.69 869.057 1060M812.057 1057C803.306 1057 795.179 1055.31 788.057 1055M895.057 1069C898.098 1065.5 897.213 1056.36 908.057 1056.02C914.94 1055.8 919.545 1056 923.057 1056.01C926.39 1056.01 931.25 1056.29 934.057 1056.74C940.062 1057.71 941.488 1059.63 944.057 1062.01M750.057 1058.01C752.584 1060.36 754.829 1062.65 760.057 1063.39C762.006 1063.66 765.206 1063.89 769.057 1065.02C777.008 1067.35 778.203 1067.24 785.057 1067.01M758.057 1064.01V1066.01M886.057 1069.01C880.923 1071.85 880.129 1071.74 875.057 1071.97C871.393 1072.13 866.213 1072.22 862.057 1070.01M837.057 1070.01L826.057 1073.73L819.057 1074L810.057 1072.01" stroke="#1C1C1C" stroke-width="2" stroke-linecap="round"/>
<path d="M875.062 370C875.279 372.391 875.576 374.832 877.317 377.985C877.595 378.489 878.256 380.253 880.522 382.443C883.963 385.77 891.987 386.261 892.004 394.005C892.02 401.113 889.368 404.298 887.029 405.701C884.636 407.138 881.444 407.445 880.062 412M879.062 382C877.346 384.293 874.794 387.747 874.191 393C873.956 395.043 874.272 399.607 873.034 401.829C871.33 404.889 869.951 405.228 869.044 405.852C866.6 407.534 864.546 407.814 862.062 408M892.062 402H895.062M874.062 405L880.062 408" stroke="#1C1C1C" stroke-width="2" stroke-linecap="round"/>
<path d="M941.062 370C941.393 370.573 941.583 371.642 942.672 372.458C945.653 374.689 947.879 374.33 950.915 376.702C955.125 379.991 955.196 383.355 959.062 384M956.062 384C949.441 394.795 952.579 397.319 944.063 396.957C939.754 396.773 935.092 388.739 935.192 384C935.27 380.313 936.074 375.328 940.062 373M944.062 398C944.407 403.479 943.634 404.879 943.062 407" stroke="#1C1C1C" stroke-width="2" stroke-linecap="round"/>
</svg>
